<?xml version="1.0" encoding="utf-8"?>
<!-- Generator: Adobe Illustrator 19.1.0, SVG Export Plug-In . SVG Version: 6.00 Build 0)  -->
<svg version="1.1" id="Layer_1" xmlns="http://www.w3.org/2000/svg" xmlns:xlink="http://www.w3.org/1999/xlink" x="0px" y="0px"
	 viewBox="133 237 343 321" style="enable-background:new 133 237 343 321;" xml:space="preserve">
<style type="text/css">
	.st0{fill:#A5A5A5;}
</style>
<g>
	<path class="st0" d="M417.3,374.1H281.4c-24.9,0-45.5,18.5-48.9,42.6h-61.1c-1.9,0-3.4,1.6-3.4,3.4c0,1.9,1.6,3.4,3.4,3.4h60.6
		v20.4h-17.2c-1.9,0-3.4,1.6-3.4,3.4c0,1.9,1.6,3.4,3.4,3.4h17.2v15.9h-67.2c-1.9,0-3.4,1.6-3.4,3.4s1.6,3.4,3.4,3.4h67.2v0.8
		c0,4.8,0.8,9.5,2.1,13.8h-27.5c-1.9,0-3.4,1.6-3.4,3.4c0,1.9,1.6,3.4,3.4,3.4h30.1c7.9,16.9,24.9,28.8,45,28.8h135.9
		c27.2,0,49.5-22.2,49.5-49.5v-50.5C466.7,396.3,444.5,374.1,417.3,374.1z M455.6,474.1c0,20.4-15.9,37-36,38.3v-14
		c0-6.9-5.6-12.7-12.7-12.7l0,0c-6.9,0-12.7,5.6-12.7,12.7v14h-13.2v-14c0-6.9-5.6-12.7-12.7-12.7c-6.9,0-12.7,5.6-12.7,12.7v14
		h-13.2v-14c0-6.9-5.6-12.7-12.7-12.7c-6.9,0-12.7,5.6-12.7,12.7v14h-13.2v-14c0-6.9-5.6-12.7-12.7-12.7l0,0
		c-6.9,0-12.7,5.6-12.7,12.7v14c-12.7-0.8-23.5-7.7-29.9-17.7h19.8c1.9,0,3.4-1.6,3.4-3.4c0-1.9-1.6-3.4-3.4-3.4h-23.3
		c-1.6-4.2-2.6-9-2.6-13.8v-0.8h81.7c1.9,0,3.4-1.6,3.4-3.4c0-1.9-1.6-3.4-3.4-3.4h-81.7v-15.9h6.9c1.9,0,3.4-1.6,3.4-3.4
		c0-1.9-1.6-3.4-3.4-3.4h-6.9v-20.4h44.7c1.9,0,3.4-1.6,3.4-3.4c0-1.9-1.6-3.4-3.4-3.4h-43.9c3.2-17.2,17.7-30.4,35.4-31.5v13.2
		c0,6.9,5.6,12.7,12.7,12.7l0,0c6.9,0,12.7-5.6,12.7-12.7v-13.2h13.2v13.2c0,6.9,5.6,12.7,12.7,12.7c6.9,0,12.7-5.6,12.7-12.7v-13.2
		h13.2v13.2c0,6.9,5.6,12.7,12.7,12.7c6.9,0,12.7-5.6,12.7-12.7v-13.2h13.2v13.2c0,6.9,5.6,12.7,12.7,12.7l0,0
		c6.9,0,12.7-5.6,12.7-12.7v-13.2c20.1,1.3,36,18,36,38.3v50.8H455.6z"/>
	<path class="st0" d="M270.5,343.2c19.8,0,36-16.1,36-36s-16.1-36-36-36c-19.8,0-36,16.1-36,36S250.7,343.2,270.5,343.2z
		 M257.8,294.8c6.9,0,12.7,5.6,12.7,12.7c0,7.1-5.6,12.7-12.7,12.7c-6.9,0-12.7-5.6-12.7-12.7C245.1,300.3,251,294.8,257.8,294.8z"
		/>
	<path class="st0" d="M428.1,343.2c19.8,0,36-16.1,36-36s-16.1-36-36-36s-36,16.1-36,36S408.3,343.2,428.1,343.2z M418.1,294.8
		c6.9,0,12.7,5.6,12.7,12.7c0,7.1-5.6,12.7-12.7,12.7c-7.1,0-12.7-5.6-12.7-12.7C405.4,300.3,410.9,294.8,418.1,294.8z"/>
	<path class="st0" d="M204.1,447.3c0-1.9-1.6-3.4-3.4-3.4h-55.3c-1.9,0-3.4,1.6-3.4,3.4c0,1.9,1.6,3.4,3.4,3.4h55.3
		C202.6,450.5,204.1,449.2,204.1,447.3z"/>
	<path class="st0" d="M301.2,443.9h-33.8c-1.9,0-3.4,1.6-3.4,3.4c0,1.9,1.6,3.4,3.4,3.4h33.8c1.9,0,3.4-1.6,3.4-3.4
		S303,443.9,301.2,443.9z"/>
	<path class="st0" d="M164.7,487.8h-14.8c-1.9,0-3.4,1.6-3.4,3.4c0,1.9,1.6,3.4,3.4,3.4h14.5c1.9,0,3.4-1.6,3.4-3.4
		S166.6,487.8,164.7,487.8z"/>
	<path class="st0" d="M349.3,361.1L349.3,361.1c3.7,0,6.6-2.9,6.6-6.6v-45.7c0-3.7-2.9-6.6-6.6-6.6l0,0c-3.7,0-6.6,2.9-6.6,6.6v45.7
		C342.7,358,345.6,361.1,349.3,361.1z"/>
</g>
</svg>
