<?xml version="1.0" encoding="utf-8"?>
<!-- Generator: Adobe Illustrator 19.1.0, SVG Export Plug-In . SVG Version: 6.00 Build 0)  -->
<svg version="1.1" id="Layer_1" xmlns="http://www.w3.org/2000/svg" xmlns:xlink="http://www.w3.org/1999/xlink" x="0px" y="0px"
	 viewBox="133 237 343 321" style="enable-background:new 133 237 343 321;" xml:space="preserve">
<style type="text/css">
	.st0{fill:#A5A5A5;}
</style>
<g>
	<path class="st0" d="M452.4,524.6l-9.4-9.4l3.2-3.2c2.9-2.9,4.5-7,4.5-11.2s-1.6-8.3-4.5-11.2l-2.4-2.4c-2.9-2.9-6.4-4.5-10.4-4.5
		c-0.3-4-1.9-7.8-4.5-10.4l-2.4-2.4c-2.9-2.9-6.7-4.5-10.4-4.5c-0.3-4-1.9-7.8-4.5-10.4l-2.4-2.4c-2.9-2.9-7-4.5-11.2-4.5
		s-8.3,1.6-11.2,4.5l-3.2,3.2L372.7,445c11.2-15.5,17.9-34.5,17.9-55.1c0-51.6-42-93.6-93.6-93.6s-93.6,42-93.6,93.6
		s42,93.6,93.6,93.6c20.6,0,39.6-6.7,55.1-17.9l12.6,12.6c-0.3,1.1-0.3,2.1-0.3,3.2c0,3.2,0.8,6.1,2.7,8.8l-3.7,3.7
		c-6.1,6.1-6.1,16.3,0,22.7l2.4,2.4c3.2,3.2,7.2,4.5,11.2,4.5c4,0,8.3-1.6,11.2-4.5l4-4c2.1,1.3,4.8,2.1,7.5,2.1
		c0.3,3.7,1.6,7.5,4.5,10.4l2.4,2.4c2.9,2.9,7,4.5,11.2,4.5c1.1,0,2.1,0,3.2-0.3l11.2,11.2c2.9,2.9,6.4,4.3,10.2,4.3
		c3.7,0,7.5-1.3,10.2-4.3C458,539.3,458,530.2,452.4,524.6z M411.2,519.6c-2.1-2.1-2.1-5.6,0-7.8l14.2-14.2l3.2-3.2
		c1.1-1.1,2.4-1.6,3.7-1.6c1.3,0,2.7,0.5,3.7,1.6l2.4,2.4c2.1,2.1,2.1,5.6,0,7.8l-3.2,3.2L421.1,522c-2.1,2.1-5.6,2.1-7.8,0
		L411.2,519.6z M372.7,510.7l-2.4-2.4c-2.1-2.1-2.1-5.6,0-7.8l4-4c2.4,1.3,4.8,2.1,7.5,2.1c0.3,2.9,1.1,5.6,2.7,8l-3.7,3.7
		C378.3,512.9,374.8,512.9,372.7,510.7z M393.5,459.7c2.1-2.1,5.6-2.1,7.8,0l2.4,2.4c2.1,2.1,2.1,5.6,0,7.8l-3.2,3.2l-0.8,0.8l-4,4
		l-4.3,4.3l-5.1,5.1c-1.1,1.1-2.4,1.6-3.7,1.6s-2.9-0.5-4-1.6l-1.1-1.1l-1.3-1.3c-0.8-0.8-1.3-1.9-1.6-3.2c-0.3-1.6,0.3-3.2,1.6-4.5
		l14.2-14.2L393.5,459.7z M396.2,504.6l-1.1-1.1l-1.3-1.3c-0.8-0.8-1.3-1.9-1.6-3.2c-0.3-1.6,0.3-3.2,1.6-4.5l5.6-5.6l4.3-4.3
		l3.7-3.7l0.5-0.5l3.2-3.2c2.1-2.1,5.6-2.1,7.8,0l2.4,2.4c2.1,2.1,2.1,5.6,0,7.8l-3.2,3.2L404,504.6c-1.1,1.1-2.4,1.6-3.7,1.6
		C398.6,506.2,397.3,505.6,396.2,504.6z M297,468.5c-43.3,0-78.6-35.3-78.6-78.6c0-43.3,35.3-78.6,78.6-78.6s78.6,35.3,78.6,78.6
		c0,16.6-5.1,31.8-13.9,44.4c-5.6,8-12.3,15-20.3,20.3C328.6,463.1,313.3,468.5,297,468.5z"/>
	<path class="st0" d="M363.1,389.6c0-36.6-29.7-66.3-66.3-66.3c-36.6,0-66.3,29.7-66.3,66.3c0,36.6,29.7,66.3,66.3,66.3
		c13.1,0,25.1-3.7,35.6-10.4c8.3-5.3,15.2-12.3,20.3-20.3C359.3,415,363.1,402.7,363.1,389.6z M297,440.1
		c-27.8,0-50.5-22.7-50.5-50.5c0-27.8,22.7-50.5,50.5-50.5s50.5,22.7,50.5,50.5c0,8.8-2.1,16.8-6.1,24.1
		c-4.8,8.6-11.8,15.8-20.3,20.3C313.9,438,305.6,440.1,297,440.1z"/>
	<path class="st0" d="M288.7,377.8c-1.9-0.5-3.7-0.8-5.9-0.8c-10.7,0-19.5,8.8-19.5,19.5s8.8,19.5,19.5,19.5
		c5.3,0,10.4-2.1,13.9-5.9c3.5-3.5,5.6-8.3,5.6-13.6C302.1,387.7,296.5,380.3,288.7,377.8z"/>
	<path class="st0" d="M297,286.4c3.5,0,6.4-2.9,6.4-6.4v-28.3c0-3.5-2.9-6.4-6.4-6.4s-6.4,2.9-6.4,6.4V280
		C290.6,283.5,293.6,286.4,297,286.4z"/>
	<path class="st0" d="M214.9,316.6c1.3,1.3,2.9,1.9,4.5,1.9c1.6,0,3.2-0.5,4.5-1.9c2.4-2.4,2.4-6.4,0-8.8L204,287.7
		c-2.4-2.4-6.4-2.4-8.8,0c-2.4,2.4-2.4,6.4,0,8.8L214.9,316.6z"/>
	<path class="st0" d="M187.1,383.5h-28.3c-3.5,0-6.4,2.9-6.4,6.4c0,3.5,2.9,6.4,6.4,6.4h28.3c3.5,0,6.4-2.9,6.4-6.4
		C193.6,386.1,190.6,383.5,187.1,383.5z"/>
	<path class="st0" d="M214.9,462.9l-20.1,20.1c-2.4,2.4-2.4,6.4,0,8.8c1.3,1.3,2.9,1.9,4.5,1.9c1.6,0,3.2-0.5,4.5-1.9l20.1-20.1
		c2.4-2.4,2.4-6.4,0-8.8C221.4,460.5,217.4,460.5,214.9,462.9z"/>
	<path class="st0" d="M297,493.1c-3.5,0-6.4,2.9-6.4,6.4v28.3c0,3.5,2.9,6.4,6.4,6.4s6.4-2.9,6.4-6.4v-28.3
		C303.2,496,300.5,493.1,297,493.1z"/>
	<path class="st0" d="M406.6,396H435c3.5,0,6.4-2.9,6.4-6.4s-2.9-6.4-6.4-6.4h-28.3c-3.5,0-6.4,2.9-6.4,6.4
		C400.2,393.1,403.2,396,406.6,396z"/>
	<path class="st0" d="M374.6,318.5c1.6,0,3.2-0.5,4.5-1.9l20.1-20.1c2.4-2.4,2.4-6.4,0-8.8c-2.4-2.4-6.4-2.4-8.8,0l-20.1,20.1
		c-2.4,2.4-2.4,6.4,0,8.8C371.4,318,373,318.5,374.6,318.5z"/>
</g>
</svg>
