<?xml version="1.0" encoding="utf-8"?>
<!-- Generator: Adobe Illustrator 19.1.0, SVG Export Plug-In . SVG Version: 6.00 Build 0)  -->
<svg version="1.1" id="Layer_1" xmlns="http://www.w3.org/2000/svg" xmlns:xlink="http://www.w3.org/1999/xlink" x="0px" y="0px"
	 viewBox="-193 316.4 891.3 168.6" style="enable-background:new -193 316.4 891.3 168.6;" xml:space="preserve">
<style type="text/css">
	.st0{fill:#F5D544;}
	.st1{fill:#452AF8;}
	.st2{fill:#FD4A30;}
	.st3{fill:#6FF55C;}
	.st4{fill:#FB28B4;}
</style>
<g>
	<path class="st0" d="M-136.3,419.8h-12.6V482H-193V319.4h44.1v61.1h12.8l41-61.1h53.7l-58.9,79.3l64.1,83.3h-54.2L-136.3,419.8z"/>
	<path class="st1" d="M606.9,430.8V482h-44.1V319.4h72.5c41.3,0,63.1,22.8,63.1,56.2c0,32.7-21.7,55.2-62.5,55.2H606.9z M606.9,359
		v33.1h27.9c10.9,0,18.9-5.9,18.9-16.5c0-10.6-8-16.6-18.9-16.6H606.9z"/>
	<path class="st2" d="M66.8,316.4c-46.6,0-84.3,37.7-84.3,84.3S20.2,485,66.8,485s84.3-37.7,84.3-84.3
		C151.1,354.1,113.3,316.4,66.8,316.4z M66.8,442.8c-23.2,0-42-18.8-42-42s18.8-42,42-42s42,18.8,42,42
		C108.8,424,90,442.8,66.8,442.8z"/>
	<path class="st3" d="M433.5,316.4c-46.6,0-84.3,37.7-84.3,84.3s37.7,84.3,84.3,84.3s84.3-37.7,84.3-84.3
		C517.8,354.1,480.1,316.4,433.5,316.4z M433.5,442.8c-23.2,0-42-18.8-42-42s18.8-42,42-42s42,18.8,42,42
		C475.5,424,456.8,442.8,433.5,442.8z"/>
	<path class="st4" d="M307.9,482H191.8v-39.3h116.1V482z"/>
</g>
</svg>
