<?xml version="1.0" encoding="utf-8"?>
<!-- Generator: Adobe Illustrator 19.1.0, SVG Export Plug-In . SVG Version: 6.00 Build 0)  -->
<svg version="1.1" id="Layer_1" xmlns="http://www.w3.org/2000/svg" xmlns:xlink="http://www.w3.org/1999/xlink" x="0px" y="0px"
	 viewBox="0 0 891.3 168.6" enable-background="new 0 0 891.3 168.6" xml:space="preserve">
<g>
	<path fill="#FFFFFF" d="M56.7,103.4H44.1v62.2H0V3h44.1v61.1h12.8L97.9,3h53.7L92.7,82.3l64.1,83.3h-54.2L56.7,103.4z"/>
	<path fill="#FFFFFF" d="M799.9,114.4v51.2h-44.1V3h72.5c41.3,0,63.1,22.8,63.1,56.2c0,32.7-21.7,55.2-62.5,55.2H799.9z M799.9,42.6
		v33.1h27.9c10.9,0,18.9-5.9,18.9-16.5s-8-16.6-18.9-16.6H799.9z"/>
	<path fill="#FFFFFF" d="M259.8,0c-46.6,0-84.3,37.7-84.3,84.3s37.7,84.3,84.3,84.3s84.3-37.7,84.3-84.3S306.3,0,259.8,0z
		 M259.8,126.4c-23.2,0-42-18.8-42-42s18.8-42,42-42s42,18.8,42,42S283,126.4,259.8,126.4z"/>
	<path fill="#FFFFFF" d="M626.5,0c-46.6,0-84.3,37.7-84.3,84.3s37.7,84.3,84.3,84.3c46.6,0,84.3-37.7,84.3-84.3S673.1,0,626.5,0z
		 M626.5,126.4c-23.2,0-42-18.8-42-42s18.8-42,42-42c23.2,0,42,18.8,42,42S649.8,126.4,626.5,126.4z"/>
	<path fill="#FFFFFF" d="M500.9,165.6H384.8v-39.3h116.1V165.6z"/>
</g>
</svg>
