<?xml version="1.0" encoding="utf-8"?>
<!-- Generator: Adobe Illustrator 19.1.0, SVG Export Plug-In . SVG Version: 6.00 Build 0)  -->
<svg version="1.1" id="Layer_1" xmlns="http://www.w3.org/2000/svg" xmlns:xlink="http://www.w3.org/1999/xlink" x="0px" y="0px"
	 viewBox="133 237 343 321" style="enable-background:new 133 237 343 321;" xml:space="preserve">
<style type="text/css">
	.st0{fill:#A5A5A5;}
</style>
<g>
	<path class="st0" d="M206,401.2v-10.2c24.1-2.4,36.6-15.3,36.6-34.9c0-44.7-65.4-33.9-65.4-57.3c0-7.1,5.4-14.2,20.3-14.2
		c10.2,0,19.7,4.1,25.1,9.5c2.7,2.4,5.1,4.1,7.8,4.1c5.4,0,9.8-4.4,9.8-9.5c0-2-0.7-4.1-1.7-5.8c-6.1-8.5-18-14.2-32.2-16.3v-10.5
		c0-4.7-3.7-8.5-8.5-8.5c-4.4,0-8.1,3.7-8.1,8.5v10.2c-23,2.4-32.9,16.3-32.9,32.2c0,43,65.4,31.2,65.4,57.3
		c0,11.2-7.8,16.6-24.1,16.6c-12.2,0-21.7-6.1-29.5-13.6c-1.7-1.7-4.1-4.1-7.8-4.1c-5.1,0-9.5,4.4-9.5,9.8c0,1.7,0.7,3.7,1.4,5.1
		c6.1,9.8,19.7,19.3,36.9,21.4v10.2c0,4.7,3.7,8.5,8.1,8.5C202.3,409.7,206,406,206,401.2z"/>
	<path class="st0" d="M391.8,298.9c0-7.1,5.4-14.2,20.3-14.2c10.2,0,19.7,4.1,25.1,9.5c2.7,2.4,5.1,4.1,7.8,4.1
		c5.4,0,9.8-4.4,9.8-9.5c0-2-0.7-4.1-1.7-5.8c-6.1-8.5-18-14.2-32.2-16.3v-10.5c0-4.7-3.7-8.5-8.5-8.5c-4.4,0-8.1,3.7-8.1,8.5v10.2
		c-23,2.4-32.9,16.3-32.9,32.2c0,43,65.4,31.2,65.4,57.3c0,11.2-7.8,16.6-24.1,16.6c-12.2,0-21.7-6.1-29.5-13.6
		c-1.7-1.7-4.1-4.1-7.8-4.1c-5.1,0-9.5,4.4-9.5,9.8c0,1.7,0.7,3.7,1.4,5.1c6.1,9.8,19.7,19.3,36.9,21.4v10.2c0,4.7,3.7,8.5,8.1,8.5
		c4.7,0,8.5-3.7,8.5-8.5v-10.2c24.1-2.4,36.6-15.3,36.6-34.9C457.2,311.4,391.8,322.6,391.8,298.9z"/>
	<path class="st0" d="M304.3,417.5c6.1,0,11.2-5.1,11.2-11.2v-41.7c0-6.1-5.1-11.2-11.2-11.2c-6.1,0-11.2,5.1-11.2,11.2v41.7
		C293.1,412.8,298.2,417.5,304.3,417.5z"/>
	<path class="st0" d="M390.4,436.1H217.9c-11.9,0-21.4,9.5-21.4,21.4v68.5c0,11.9,9.5,21.4,21.4,21.4h172.5
		c11.9,0,21.4-9.5,21.4-21.4v-68.5C411.8,445.6,402.3,436.1,390.4,436.1z M391.4,525.6c0,0.7-0.3,1-1,1H217.9c-0.7,0-1-0.3-1-1
		v-68.5c0-0.7,0.3-1,1-1h15.6v12.5c0,3.4,2.7,6.4,6.4,6.4h11.5c3.4,0,6.4-2.7,6.4-6.4v-12.5h14.9v12.5c0,3.4,2.7,6.4,6.4,6.4h11.5
		c3.4,0,6.4-2.7,6.4-6.4v-12.5h14.9v12.5c0,3.4,2.7,6.4,6.4,6.4h11.5c3.4,0,6.4-2.7,6.4-6.4v-12.5h14.9v12.5c0,3.4,2.7,6.4,6.4,6.4
		h11.5c3.4,0,6.4-2.7,6.4-6.4v-12.5h15.6c0.7,0,1,0.3,1,1v68.5H391.4z"/>
</g>
</svg>
