<?xml version="1.0" encoding="utf-8"?>
<!-- Generator: Adobe Illustrator 19.1.0, SVG Export Plug-In . SVG Version: 6.00 Build 0)  -->
<svg version="1.1" id="Layer_1" xmlns="http://www.w3.org/2000/svg" xmlns:xlink="http://www.w3.org/1999/xlink" x="0px" y="0px"
	 viewBox="55 334 721.6 125" style="enable-background:new 55 334 721.6 125;" xml:space="preserve">
<style type="text/css">
	.st0{fill:#FFFFFF;}
</style>
<g>
	<path class="st0" d="M371.9,451.9c-8.1,0-16.1-1.5-23.5-4.5c-24.1-9.5-39.7-32.9-39.7-59.7c0-21.1,9.2-39.9,25.2-51.7
		c0.7-0.5,1.6-0.3,2.1,0.3c0.5,0.7,0.3,1.6-0.3,2.1c-15.2,11.2-24,29.2-24,49.3c0,25.5,14.8,47.9,37.7,56.9
		c7.1,2.8,14.7,4.2,22.4,4.2c0.8,0,1.5,0.7,1.5,1.5S372.7,451.9,371.9,451.9z"/>
</g>
<g>
	<g>
		<path class="st0" d="M322.7,344.8L322.7,344.8c-1.1,0-2.1-0.9-2.1-2l-0.2-5.6c0-1.1,0.9-2.1,2-2.1l0,0c1.1,0,2.1,0.9,2.1,2
			l0.2,5.6C324.7,343.8,323.9,344.7,322.7,344.8z"/>
	</g>
	<g>
		<path class="st0" d="M327.6,349.3L327.6,349.3c0-1.1,0.9-2.1,2-2.1l5.6-0.2c1.1,0,2.1,0.9,2.1,2l0,0c0,1.1-0.9,2.1-2,2.1l-5.6,0.2
			C328.6,351.3,327.7,350.4,327.6,349.3z"/>
	</g>
</g>
<g>
	<g>
		<path class="st0" d="M314.1,357.7L314.1,357.7c-1.1,0.4-2.3-0.2-2.6-1.2l-1.9-5.3c-0.4-1.1,0.2-2.3,1.2-2.6l0,0
			c1.1-0.4,2.3,0.2,2.6,1.2l1.9,5.3C315.7,356.1,315.2,357.3,314.1,357.7z"/>
	</g>
	<g>
		<path class="st0" d="M320.2,360.5L320.2,360.5c-0.4-1.1,0.2-2.3,1.2-2.6l5.3-1.9c1.1-0.4,2.3,0.2,2.6,1.2l0,0
			c0.4,1.1-0.2,2.3-1.2,2.6l-5.3,1.9C321.7,362.1,320.5,361.6,320.2,360.5z"/>
	</g>
</g>
<g>
	<g>
		<path class="st0" d="M308.1,371.5L308.1,371.5c-1,0.5-2.2,0.2-2.8-0.8l-2.7-5c-0.6-1-0.2-2.2,0.8-2.8l0,0c1-0.5,2.2-0.2,2.8,0.8
			l2.7,5C309.4,369.7,309.1,370.9,308.1,371.5z"/>
	</g>
	<g>
		<path class="st0" d="M314.5,373.3L314.5,373.3c-0.5-1-0.2-2.2,0.8-2.8l4.9-2.7c1-0.5,2.2-0.2,2.8,0.8l0,0c0.5,1,0.2,2.2-0.8,2.8
			l-4.9,2.7C316.3,374.7,315,374.3,314.5,373.3z"/>
	</g>
</g>
<g>
	<g>
		<path class="st0" d="M306.2,386.6L306.2,386.6c-0.9,0.7-2.2,0.5-2.9-0.4l-3.5-4.4c-0.7-0.9-0.5-2.2,0.4-2.9l0,0
			c0.9-0.7,2.2-0.5,2.9,0.4l3.4,4.4C307.2,384.6,307.1,385.9,306.2,386.6z"/>
	</g>
	<g>
		<path class="st0" d="M312.8,387.4L312.8,387.4c-0.7-0.9-0.5-2.2,0.4-2.9l4.4-3.5c0.9-0.7,2.2-0.5,2.9,0.4l0,0
			c0.7,0.9,0.5,2.2-0.4,2.9l-4.4,3.5C314.8,388.5,313.5,388.3,312.8,387.4z"/>
	</g>
</g>
<g>
	<g>
		<path class="st0" d="M309.3,402.1L309.3,402.1c-0.6,1-1.8,1.3-2.8,0.8l-4.9-2.8c-1-0.6-1.3-1.8-0.8-2.8l0,0c0.6-1,1.8-1.3,2.8-0.8
			l4.9,2.8C309.5,399.9,309.8,401.1,309.3,402.1z"/>
	</g>
	<g>
		<path class="st0" d="M315.7,400.4L315.7,400.4c-1-0.6-1.3-1.8-0.8-2.8l2.8-4.9c0.6-1,1.8-1.3,2.8-0.8l0,0c1,0.6,1.3,1.8,0.8,2.8
			l-2.8,4.9C318,400.6,316.7,400.9,315.7,400.4z"/>
	</g>
</g>
<g>
	<g>
		<path class="st0" d="M312.6,416.4L312.6,416.4c-0.6,1-1.8,1.3-2.8,0.8l-4.9-2.8c-1-0.6-1.3-1.8-0.8-2.8l0,0c0.6-1,1.8-1.3,2.8-0.8
			l4.9,2.8C312.8,414.1,313.1,415.4,312.6,416.4z"/>
	</g>
	<g>
		<path class="st0" d="M319,414.7L319,414.7c-1-0.6-1.3-1.8-0.8-2.8l2.8-4.9c0.6-1,1.8-1.3,2.8-0.8l0,0c1,0.6,1.3,1.8,0.8,2.8
			l-2.8,4.9C321.3,414.9,320,415.2,319,414.7z"/>
	</g>
</g>
<g>
	<g>
		<path class="st0" d="M321.7,429.4L321.7,429.4c-0.1,1.1-1.2,1.9-2.3,1.8l-5.6-0.7c-1.1-0.1-1.9-1.2-1.8-2.3l0,0
			c0.1-1.1,1.2-1.9,2.3-1.8l5.6,0.7C321,427.3,321.8,428.3,321.7,429.4z"/>
	</g>
	<g>
		<path class="st0" d="M326.9,425.3L326.9,425.3c-1.1-0.1-1.9-1.2-1.8-2.3l0.7-5.6c0.1-1.1,1.2-1.9,2.3-1.8l0,0
			c1.1,0.1,1.9,1.2,1.8,2.3l-0.7,5.6C329.1,424.6,328.1,425.4,326.9,425.3z"/>
	</g>
</g>
<g>
	<g>
		<path class="st0" d="M332.7,440.5L332.7,440.5c0.3,1.1-0.4,2.2-1.5,2.5l-5.5,1.4c-1.1,0.3-2.2-0.4-2.5-1.5l0,0
			c-0.3-1.1,0.4-2.2,1.5-2.5l5.5-1.4C331.3,438.7,332.4,439.4,332.7,440.5z"/>
	</g>
	<g>
		<path class="st0" d="M336.1,434.7L336.1,434.7c-1.1,0.3-2.2-0.4-2.5-1.5l-1.4-5.5c-0.3-1.1,0.4-2.2,1.5-2.5l0,0
			c1.1-0.3,2.2,0.4,2.5,1.5l1.4,5.5C337.9,433.3,337.2,434.5,336.1,434.7z"/>
	</g>
</g>
<g>
	<g>
		<path class="st0" d="M345.1,448.4L345.1,448.4c0.3,1.1-0.4,2.2-1.5,2.5l-5.5,1.4c-1.1,0.3-2.2-0.4-2.5-1.5l0,0
			c-0.3-1.1,0.4-2.2,1.5-2.5l5.5-1.4C343.7,446.6,344.8,447.3,345.1,448.4z"/>
	</g>
	<g>
		<path class="st0" d="M348.5,442.6L348.5,442.6c-1.1,0.3-2.2-0.4-2.5-1.5l-1.4-5.5c-0.3-1.1,0.4-2.2,1.5-2.5l0,0
			c1.1-0.3,2.2,0.4,2.5,1.5l1.4,5.5C350.2,441.2,349.6,442.4,348.5,442.6z"/>
	</g>
</g>
<g>
	<g>
		<path class="st0" d="M360.5,452L360.5,452c0.7,0.9,0.6,2.2-0.3,2.9l-4.4,3.5c-0.9,0.7-2.2,0.6-2.9-0.3l0,0
			c-0.7-0.9-0.6-2.2,0.3-2.9l4.4-3.5C358.5,450.9,359.8,451.1,360.5,452z"/>
	</g>
	<g>
		<path class="st0" d="M361.2,445.3L361.2,445.3c-0.9,0.7-2.2,0.6-2.9-0.3l-3.5-4.4c-0.7-0.9-0.6-2.2,0.3-2.9l0,0
			c0.9-0.7,2.2-0.6,2.9,0.3l3.5,4.4C362.2,443.3,362.1,444.6,361.2,445.3z"/>
	</g>
</g>
<g>
	<g>
		<path class="st0" d="M375,454.1L375,454.1c0.7,0.9,0.6,2.2-0.3,2.9l-4.4,3.5c-0.9,0.7-2.2,0.6-2.9-0.3l0,0
			c-0.7-0.9-0.6-2.2,0.3-2.9l4.4-3.5C373,453,374.3,453.2,375,454.1z"/>
	</g>
	<g>
		<path class="st0" d="M375.7,447.4L375.7,447.4c-0.9,0.7-2.2,0.6-2.9-0.3l-3.5-4.4c-0.7-0.9-0.6-2.2,0.3-2.9l0,0
			c0.9-0.7,2.2-0.6,2.9,0.3l3.5,4.4C376.7,445.4,376.6,446.7,375.7,447.4z"/>
	</g>
</g>
<g>
	<path class="st0" d="M458.7,451.9c-0.8,0-1.5-0.7-1.5-1.5s0.7-1.5,1.5-1.5c7.8,0,15.3-1.4,22.4-4.2c22.9-9,37.7-31.4,37.7-56.9
		c0-20.1-8.7-38.1-23.9-49.3c-0.7-0.5-0.8-1.4-0.3-2.1s1.4-0.8,2.1-0.3c16,11.8,25.2,30.6,25.2,51.7c0,26.8-15.6,50.2-39.6,59.7
		C474.7,450.4,466.8,451.9,458.7,451.9z"/>
</g>
<g>
	<g>
		<path class="st0" d="M503.3,349.3L503.3,349.3c0,1.1-0.9,2.1-2,2.1l-5.6,0.2c-1.1,0-2.1-0.9-2.1-2l0,0c0-1.1,0.9-2.1,2-2.1
			l5.6-0.2C502.3,347.3,503.3,348.2,503.3,349.3z"/>
	</g>
	<g>
		<path class="st0" d="M507.9,344.4L507.9,344.4c-1.1,0-2.1-0.9-2.1-2l-0.2-5.6c0-1.1,0.9-2.1,2-2.1l0,0c1.1,0,2.1,0.9,2.1,2
			l0.2,5.6C509.9,343.5,509,344.4,507.9,344.4z"/>
	</g>
</g>
<g>
	<g>
		<path class="st0" d="M510.7,360.6L510.7,360.6c-0.3,1.1-1.4,1.7-2.5,1.4l-5.4-1.5c-1.1-0.3-1.7-1.4-1.4-2.5l0,0
			c0.3-1.1,1.4-1.7,2.5-1.4l5.4,1.5C510.4,358.4,511.1,359.5,510.7,360.6z"/>
	</g>
	<g>
		<path class="st0" d="M516.6,357.3L516.6,357.3c-1.1-0.3-1.7-1.4-1.4-2.5l1.5-5.4c0.3-1.1,1.4-1.7,2.5-1.4l0,0
			c1.1,0.3,1.7,1.4,1.4,2.5l-1.5,5.4C518.8,357,517.7,357.6,516.6,357.3z"/>
	</g>
</g>
<g>
	<g>
		<path class="st0" d="M516.4,373.5L516.4,373.5c-0.5,1-1.7,1.5-2.7,1l-5.1-2.4c-1-0.5-1.5-1.7-1-2.7l0,0c0.5-1,1.7-1.5,2.7-1
			l5.1,2.4C516.4,371.2,516.9,372.5,516.4,373.5z"/>
	</g>
	<g>
		<path class="st0" d="M522.7,371.2L522.7,371.2c-1-0.5-1.5-1.7-1-2.7l2.4-5.1c0.5-1,1.7-1.5,2.7-1l0,0c1,0.5,1.5,1.7,1,2.7
			l-2.4,5.1C524.9,371.2,523.7,371.7,522.7,371.2z"/>
	</g>
</g>
<g>
	<g>
		<path class="st0" d="M518.1,387.6L518.1,387.6c-0.6,0.9-1.9,1.2-2.9,0.6l-4.7-3.1c-0.9-0.6-1.2-1.9-0.6-2.9l0,0
			c0.6-0.9,1.9-1.2,2.9-0.6l4.7,3.1C518.4,385.4,518.7,386.7,518.1,387.6z"/>
	</g>
	<g>
		<path class="st0" d="M524.6,386.3L524.6,386.3c-0.9-0.6-1.2-1.9-0.6-2.9l3.1-4.7c0.6-0.9,1.9-1.2,2.9-0.6l0,0
			c0.9,0.6,1.2,1.9,0.6,2.9l-3.1,4.7C526.8,386.7,525.5,386.9,524.6,386.3z"/>
	</g>
</g>
<g>
	<g>
		<path class="st0" d="M515,400.7L515,400.7c-0.9,0.6-2.2,0.4-2.9-0.6l-3.1-4.7c-0.6-0.9-0.4-2.2,0.6-2.9l0,0
			c0.9-0.6,2.2-0.4,2.9,0.6l3.1,4.7C516.2,398.7,516,400,515,400.7z"/>
	</g>
	<g>
		<path class="st0" d="M521.6,401.9L521.6,401.9c-0.6-0.9-0.4-2.2,0.6-2.9l4.7-3.1c0.9-0.6,2.2-0.4,2.9,0.6l0,0
			c0.6,0.9,0.4,2.2-0.6,2.9l-4.7,3.1C523.5,403.1,522.2,402.9,521.6,401.9z"/>
	</g>
</g>
<g>
	<g>
		<path class="st0" d="M511.7,414.9L511.7,414.9c-0.9,0.6-2.2,0.4-2.9-0.6l-3.1-4.7c-0.6-0.9-0.4-2.2,0.6-2.9l0,0
			c0.9-0.6,2.2-0.4,2.9,0.6l3.1,4.7C512.9,413,512.7,414.3,511.7,414.9z"/>
	</g>
	<g>
		<path class="st0" d="M518.3,416.2L518.3,416.2c-0.6-0.9-0.4-2.2,0.6-2.9l4.7-3.1c0.9-0.6,2.2-0.4,2.9,0.6l0,0
			c0.6,0.9,0.4,2.2-0.6,2.9l-4.7,3.1C520.2,417.4,518.9,417.2,518.3,416.2z"/>
	</g>
</g>
<g>
	<g>
		<path class="st0" d="M503.7,425.6L503.7,425.6c-1.1,0.2-2.2-0.5-2.4-1.6l-1.1-5.5c-0.2-1.1,0.5-2.2,1.6-2.4l0,0
			c1.1-0.2,2.2,0.5,2.4,1.6l1.1,5.5C505.5,424.3,504.8,425.4,503.7,425.6z"/>
	</g>
	<g>
		<path class="st0" d="M509.2,429.4L509.2,429.4c-0.2-1.1,0.5-2.2,1.6-2.4l5.5-1.1c1.1-0.2,2.2,0.5,2.4,1.6l0,0
			c0.2,1.1-0.5,2.2-1.6,2.4l-5.5,1.1C510.5,431.2,509.4,430.5,509.2,429.4z"/>
	</g>
</g>
<g>
	<g>
		<path class="st0" d="M494.4,435.1L494.4,435.1c-1.1-0.2-1.9-1.3-1.7-2.4l1-5.5c0.2-1.1,1.3-1.9,2.4-1.7l0,0
			c1.1,0.2,1.9,1.3,1.7,2.4l-1,5.5C496.6,434.5,495.5,435.3,494.4,435.1z"/>
	</g>
	<g>
		<path class="st0" d="M498.2,440.6L498.2,440.6c0.2-1.1,1.3-1.9,2.4-1.7l5.5,1c1.1,0.2,1.9,1.3,1.7,2.4l0,0
			c-0.2,1.1-1.3,1.9-2.4,1.7l-5.5-1C498.7,442.7,498,441.7,498.2,440.6z"/>
	</g>
</g>
<g>
	<g>
		<path class="st0" d="M482.1,443L482.1,443c-1.1-0.2-1.9-1.3-1.7-2.4l1-5.5c0.2-1.1,1.3-1.9,2.4-1.7l0,0c1.1,0.2,1.9,1.3,1.7,2.4
			l-1,5.5C484.2,442.4,483.2,443.2,482.1,443z"/>
	</g>
	<g>
		<path class="st0" d="M485.8,448.5L485.8,448.5c0.2-1.1,1.3-1.9,2.4-1.7l5.5,1c1.1,0.2,1.9,1.3,1.7,2.4l0,0
			c-0.2,1.1-1.3,1.9-2.4,1.7l-5.5-1C486.4,450.6,485.6,449.6,485.8,448.5z"/>
	</g>
</g>
<g>
	<g>
		<path class="st0" d="M469.2,445.6L469.2,445.6c-0.9-0.6-1.2-1.9-0.5-2.9l3.2-4.6c0.6-0.9,1.9-1.2,2.9-0.5l0,0
			c0.9,0.6,1.2,1.9,0.5,2.9l-3.2,4.6C471.4,446,470.1,446.2,469.2,445.6z"/>
	</g>
	<g>
		<path class="st0" d="M470.4,452.2L470.4,452.2c0.6-0.9,1.9-1.2,2.9-0.5l4.6,3.2c0.9,0.6,1.2,1.9,0.5,2.9l0,0
			c-0.6,0.9-1.9,1.2-2.9,0.5l-4.6-3.2C470,454.4,469.7,453.1,470.4,452.2z"/>
	</g>
</g>
<g>
	<g>
		<path class="st0" d="M454.7,447.7L454.7,447.7c-0.9-0.6-1.2-1.9-0.5-2.9l3.2-4.6c0.6-0.9,1.9-1.2,2.9-0.5l0,0
			c0.9,0.6,1.2,1.9,0.5,2.9l-3.2,4.6C456.9,448.1,455.6,448.4,454.7,447.7z"/>
	</g>
	<g>
		<path class="st0" d="M455.9,454.3L455.9,454.3c0.6-0.9,1.9-1.2,2.9-0.5l4.6,3.2c0.9,0.6,1.2,1.9,0.5,2.9l0,0
			c-0.6,0.9-1.9,1.2-2.9,0.5l-4.6-3.2C455.5,456.5,455.2,455.2,455.9,454.3z"/>
	</g>
</g>
<g>
	<path class="st0" d="M378.4,431.3c0,0.7-0.6,1.2-1.2,1.2c-0.6,0-1.2-0.6-1.2-1.2V419c0-0.7,0.6-1.2,1.2-1.2c0.6,0,1.2,0.6,1.2,1.2
		V431.3z"/>
	<path class="st0" d="M390.7,426.8h-2.9c-0.6,0-1.1-0.5-1.1-1.1s0.5-1.1,1.1-1.1h4.2c0.6,0,1.2,0.5,1.2,1.1v3.4
		c0,0.5-0.1,0.8-0.4,1.1c-1,1.4-3.3,2.3-5.6,2.3c-4.3,0-6.7-2.3-6.7-7.5c0-5.1,2.4-7.5,6.7-7.5c2.6,0,4.3,1,5.2,2.3
		c0.2,0.3,0.2,0.5,0.2,0.7c0,0.6-0.5,1.1-1.2,1.1c-0.3,0-0.6-0.1-0.9-0.4c-0.9-1-1.8-1.5-3.4-1.5c-2.9,0-4.1,1.8-4.1,5.3
		c0,3.8,1.3,5.3,4.1,5.3c1.6,0,2.7-0.4,3.5-1.2L390.7,426.8L390.7,426.8L390.7,426.8z"/>
	<path class="st0" d="M398,431.3c0,0.7-0.6,1.2-1.2,1.2c-0.6,0-1.2-0.6-1.2-1.2v-12.1c0-0.7,0.6-1.2,1.2-1.2h6.7
		c0.6,0,1.1,0.5,1.1,1.1s-0.5,1.1-1.1,1.1H398v4h4.1c0.6,0,1.1,0.5,1.1,1.1s-0.5,1.1-1.1,1.1H398V431.3z"/>
	<path class="st0" d="M416.3,417.6c3.1,0,5,1.8,5,4.4c0,4.5-7.5,6.3-7.5,8.2h6.6c0.6,0,1.1,0.5,1.1,1.1s-0.5,1.1-1.1,1.1h-8.2
		c-0.6,0-1.1-0.5-1.1-1.1c0-4.7,7.7-5.2,7.7-9.3c0-1.2-0.9-2.3-2.5-2.3c-1.3,0-2.1,0.7-2.4,1.5c-0.2,0.5-0.6,0.7-1.1,0.7
		c-0.6,0-1.2-0.5-1.2-1.2c0-0.2,0-0.3,0.1-0.5C412.4,418.8,413.9,417.6,416.3,417.6z"/>
	<path class="st0" d="M434.3,425.2c0,5.2-1.8,7.5-5.6,7.5c-3.9,0-5.6-2.4-5.6-7.5s1.8-7.5,5.6-7.5
		C432.6,417.6,434.3,420,434.3,425.2z M431.9,425.2c0-3.7-0.9-5.4-3.2-5.4c-2.3,0-3.2,1.6-3.2,5.4s1,5.4,3.2,5.4
		C430.9,430.6,431.9,428.9,431.9,425.2z"/>
	<path class="st0" d="M437.7,422c-0.2,0.2-0.4,0.2-0.7,0.2c-0.6,0-1.2-0.5-1.2-1.2c0-0.4,0.2-0.8,0.5-1l3.1-2
		c0.2-0.2,0.4-0.3,0.8-0.3c0.7,0,1.2,0.6,1.2,1.2v12.4c0,0.7-0.6,1.2-1.2,1.2c-0.6,0-1.2-0.6-1.2-1.2v-10.2L437.7,422z"/>
	<path class="st0" d="M454.6,427.7c0,3.5-2.3,5-5.4,5c-3.8,0-5.4-3-5.4-7.2c0-5.5,2.1-7.8,5.8-7.8c1.8,0,3.1,0.6,3.7,1.2
		c0.3,0.3,0.4,0.6,0.4,0.8c0,0.6-0.5,1.1-1.1,1.1c-0.2,0-0.4,0-0.7-0.2c-0.6-0.4-1.2-0.8-2.3-0.8c-2.1,0-3.3,1.5-3.3,4.3
		c0.7-0.7,1.9-1.3,3.3-1.3C452.5,422.8,454.6,424.5,454.6,427.7z M452.2,427.7c0-1.8-1.3-2.7-2.8-2.7s-2.5,0.8-3.1,1.8
		c0,2.4,1.1,3.8,2.9,3.8C450.9,430.5,452.2,429.8,452.2,427.7z"/>
</g>
<g>
	<path class="st0" d="M127.6,451.2c-8.1,0-16.1-1.5-23.5-4.5C80,437.2,64.5,413.8,64.5,387c0-21.1,9.2-39.9,25.2-51.7
		c0.7-0.5,1.6-0.3,2.1,0.3s0.3,1.6-0.3,2.1c-15.2,11.2-23.9,29.2-23.9,49.3c0,25.5,14.8,47.9,37.7,56.9c7.1,2.8,14.7,4.2,22.4,4.2
		c0.8,0,1.5,0.7,1.5,1.5C129.2,450.4,128.4,451.2,127.6,451.2z"/>
</g>
<g>
	<g>
		<path class="st0" d="M78.4,344.1L78.4,344.1c-1.1,0-2.1-0.9-2.1-2l-0.3-5.6c0-1.1,0.9-2.1,2-2.1l0,0c1.1,0,2.1,0.9,2.1,2l0.2,5.6
			C80.4,343.1,79.5,344,78.4,344.1z"/>
	</g>
	<g>
		<path class="st0" d="M83.3,348.6L83.3,348.6c0-1.1,0.9-2.1,2-2.1l5.6-0.2c1.1,0,2.1,0.9,2.1,2l0,0c0,1.1-0.9,2.1-2,2.1l-5.6,0.2
			C84.3,350.6,83.3,349.7,83.3,348.6z"/>
	</g>
</g>
<g>
	<g>
		<path class="st0" d="M69.8,357L69.8,357c-1.1,0.4-2.3-0.2-2.6-1.2l-1.9-5.3c-0.4-1.1,0.2-2.3,1.2-2.6l0,0c1.1-0.4,2.3,0.2,2.6,1.2
			l1.9,5.3C71.4,355.4,70.8,356.6,69.8,357z"/>
	</g>
	<g>
		<path class="st0" d="M75.8,359.8L75.8,359.8c-0.4-1.1,0.2-2.3,1.2-2.6l5.3-1.9c1.1-0.4,2.3,0.2,2.6,1.2l0,0
			c0.4,1.1-0.2,2.3-1.2,2.6l-5.3,1.9C77.4,361.4,76.2,360.9,75.8,359.8z"/>
	</g>
</g>
<g>
	<g>
		<path class="st0" d="M63.7,370.8L63.7,370.8c-1,0.5-2.2,0.2-2.8-0.8l-2.7-4.9c-0.5-1-0.2-2.2,0.8-2.8l0,0c1-0.5,2.2-0.2,2.8,0.8
			l2.7,4.9C65.1,369,64.7,370.2,63.7,370.8z"/>
	</g>
	<g>
		<path class="st0" d="M70.1,372.6L70.1,372.6c-0.5-1-0.2-2.2,0.8-2.8l4.9-2.7c1-0.5,2.2-0.2,2.8,0.8l0,0c0.5,1,0.2,2.2-0.8,2.8
			l-4.9,2.7C71.9,374,70.7,373.6,70.1,372.6z"/>
	</g>
</g>
<g>
	<g>
		<path class="st0" d="M61.8,385.9L61.8,385.9c-0.9,0.7-2.2,0.5-2.9-0.4l-3.5-4.4c-0.7-0.9-0.5-2.2,0.4-2.9l0,0
			c0.9-0.7,2.2-0.5,2.9,0.4l3.5,4.4C62.9,383.9,62.7,385.2,61.8,385.9z"/>
	</g>
	<g>
		<path class="st0" d="M68.4,386.7L68.4,386.7c-0.7-0.9-0.5-2.2,0.4-2.9l4.4-3.5c0.9-0.7,2.2-0.5,2.9,0.4l0,0
			c0.7,0.9,0.5,2.2-0.4,2.9l-4.4,3.5C70.4,387.8,69.1,387.6,68.4,386.7z"/>
	</g>
</g>
<g>
	<g>
		<path class="st0" d="M64.9,401.4L64.9,401.4c-0.6,1-1.8,1.3-2.8,0.8l-4.9-2.8c-1-0.6-1.3-1.8-0.8-2.8l0,0c0.6-1,1.8-1.3,2.8-0.8
			l4.9,2.8C65.2,399.2,65.5,400.4,64.9,401.4z"/>
	</g>
	<g>
		<path class="st0" d="M71.4,399.7L71.4,399.7c-1-0.6-1.3-1.8-0.8-2.8l2.8-4.9c0.6-1,1.8-1.3,2.8-0.8l0,0c1,0.6,1.3,1.8,0.8,2.8
			l-2.8,4.9C73.6,399.9,72.3,400.2,71.4,399.7z"/>
	</g>
</g>
<g>
	<g>
		<path class="st0" d="M68.2,415.7L68.2,415.7c-0.6,1-1.8,1.3-2.8,0.8l-4.9-2.8c-1-0.6-1.3-1.8-0.8-2.8l0,0c0.6-1,1.8-1.3,2.8-0.8
			l4.9,2.8C68.5,413.4,68.8,414.7,68.2,415.7z"/>
	</g>
	<g>
		<path class="st0" d="M74.7,414L74.7,414c-1-0.6-1.3-1.8-0.8-2.8l2.8-4.9c0.6-1,1.8-1.3,2.8-0.8l0,0c1,0.6,1.3,1.8,0.8,2.8
			l-2.8,4.9C76.9,414.2,75.6,414.5,74.7,414z"/>
	</g>
</g>
<g>
	<g>
		<path class="st0" d="M77.4,428.7L77.4,428.7c-0.1,1.1-1.2,1.9-2.3,1.8l-5.6-0.7c-1.1-0.1-1.9-1.2-1.8-2.3l0,0
			c0.1-1.1,1.2-1.9,2.3-1.8l5.6,0.7C76.7,426.6,77.5,427.6,77.4,428.7z"/>
	</g>
	<g>
		<path class="st0" d="M82.6,424.6L82.6,424.6c-1.1-0.1-1.9-1.2-1.8-2.3l0.7-5.6c0.1-1.1,1.2-1.9,2.3-1.8l0,0
			c1.1,0.1,1.9,1.2,1.8,2.3l-0.7,5.6C84.7,423.9,83.7,424.7,82.6,424.6z"/>
	</g>
</g>
<g>
	<g>
		<path class="st0" d="M88.4,439.8L88.4,439.8c0.3,1.1-0.4,2.2-1.5,2.5l-5.5,1.4c-1.1,0.3-2.2-0.4-2.5-1.5l0,0
			c-0.3-1.1,0.4-2.2,1.5-2.5l5.5-1.4C87,438,88.1,438.7,88.4,439.8z"/>
	</g>
	<g>
		<path class="st0" d="M91.8,434L91.8,434c-1.1,0.3-2.2-0.4-2.5-1.5l-1.4-5.5c-0.3-1.1,0.4-2.2,1.5-2.5l0,0c1.1-0.3,2.2,0.4,2.5,1.5
			l1.4,5.5C93.5,432.6,92.9,433.8,91.8,434z"/>
	</g>
</g>
<g>
	<g>
		<path class="st0" d="M100.7,447.7L100.7,447.7c0.3,1.1-0.4,2.2-1.5,2.5l-5.5,1.4c-1.1,0.3-2.2-0.4-2.5-1.5l0,0
			c-0.3-1.1,0.4-2.2,1.5-2.5l5.5-1.4C99.3,445.9,100.4,446.6,100.7,447.7z"/>
	</g>
	<g>
		<path class="st0" d="M104.1,441.9L104.1,441.9c-1.1,0.3-2.2-0.4-2.5-1.5l-1.4-5.5c-0.3-1.1,0.4-2.2,1.5-2.5l0,0
			c1.1-0.3,2.2,0.4,2.5,1.5l1.4,5.5C105.9,440.5,105.2,441.7,104.1,441.9z"/>
	</g>
</g>
<g>
	<g>
		<path class="st0" d="M116.1,451.3L116.1,451.3c0.7,0.9,0.6,2.2-0.3,2.9l-4.4,3.5c-0.9,0.7-2.2,0.6-2.9-0.3l0,0
			c-0.7-0.9-0.6-2.2,0.3-2.9l4.4-3.5C114.1,450.2,115.4,450.4,116.1,451.3z"/>
	</g>
	<g>
		<path class="st0" d="M116.9,444.6L116.9,444.6c-0.9,0.7-2.2,0.6-2.9-0.3l-3.5-4.4c-0.7-0.9-0.6-2.2,0.3-2.9l0,0
			c0.9-0.7,2.2-0.6,2.9,0.3l3.5,4.4C117.9,442.6,117.7,443.9,116.9,444.6z"/>
	</g>
</g>
<g>
	<g>
		<path class="st0" d="M130.6,453.4L130.6,453.4c0.7,0.9,0.6,2.2-0.3,2.9l-4.4,3.5c-0.9,0.7-2.2,0.6-2.9-0.3l0,0
			c-0.7-0.9-0.6-2.2,0.3-2.9l4.4-3.5C128.6,452.3,129.9,452.5,130.6,453.4z"/>
	</g>
	<g>
		<path class="st0" d="M131.4,446.7L131.4,446.7c-0.9,0.7-2.2,0.6-2.9-0.3L125,442c-0.7-0.9-0.6-2.2,0.3-2.9l0,0
			c0.9-0.7,2.2-0.6,2.9,0.3l3.5,4.4C132.4,444.7,132.2,446,131.4,446.7z"/>
	</g>
</g>
<g>
	<path class="st0" d="M214.3,451.2c-0.8,0-1.5-0.7-1.5-1.5s0.7-1.5,1.5-1.5c7.7,0,15.3-1.4,22.4-4.2c22.9-9,37.7-31.4,37.7-56.9
		c0-20.1-8.7-38.1-23.9-49.3c-0.7-0.5-0.8-1.4-0.3-2.1s1.4-0.8,2.1-0.3c16,11.8,25.2,30.6,25.2,51.7c0,26.8-15.6,50.2-39.6,59.7
		C230.4,449.7,222.4,451.2,214.3,451.2z"/>
</g>
<g>
	<g>
		<path class="st0" d="M259,348.6L259,348.6c0,1.1-0.9,2.1-2,2.1l-5.6,0.2c-1.1,0-2.1-0.9-2.1-2l0,0c0-1.1,0.9-2.1,2-2.1l5.6-0.2
			C258,346.6,258.9,347.5,259,348.6z"/>
	</g>
	<g>
		<path class="st0" d="M263.5,343.7L263.5,343.7c-1.1,0-2.1-0.9-2.1-2l-0.2-5.6c0-1.1,0.9-2.1,2-2.1l0,0c1.1,0,2.1,0.9,2.1,2
			l0.2,5.6C265.5,342.8,264.6,343.7,263.5,343.7z"/>
	</g>
</g>
<g>
	<g>
		<path class="st0" d="M266.4,359.9L266.4,359.9c-0.3,1.1-1.4,1.7-2.5,1.4l-5.4-1.5c-1.1-0.3-1.7-1.4-1.4-2.5l0,0
			c0.3-1.1,1.4-1.7,2.5-1.4l5.4,1.5C266.1,357.7,266.7,358.8,266.4,359.9z"/>
	</g>
	<g>
		<path class="st0" d="M272.2,356.6L272.2,356.6c-1.1-0.3-1.7-1.4-1.4-2.5l1.5-5.4c0.3-1.1,1.4-1.7,2.5-1.4l0,0
			c1.1,0.3,1.7,1.4,1.4,2.5l-1.5,5.4C274.4,356.3,273.3,356.9,272.2,356.6z"/>
	</g>
</g>
<g>
	<g>
		<path class="st0" d="M272.1,372.8L272.1,372.8c-0.5,1-1.7,1.5-2.7,1l-5.1-2.4c-1-0.5-1.5-1.7-1-2.7l0,0c0.5-1,1.7-1.5,2.7-1
			l5.1,2.4C272.1,370.5,272.5,371.8,272.1,372.8z"/>
	</g>
	<g>
		<path class="st0" d="M278.3,370.5L278.3,370.5c-1-0.5-1.5-1.7-1-2.7l2.4-5.1c0.5-1,1.7-1.5,2.7-1l0,0c1,0.5,1.5,1.7,1,2.7
			l-2.4,5.1C280.6,370.5,279.3,371,278.3,370.5z"/>
	</g>
</g>
<g>
	<g>
		<path class="st0" d="M273.7,386.9L273.7,386.9c-0.6,0.9-1.9,1.2-2.9,0.6l-4.7-3.1c-0.9-0.6-1.2-1.9-0.6-2.9l0,0
			c0.6-0.9,1.9-1.2,2.9-0.6l4.7,3.1C274.1,384.7,274.3,386,273.7,386.9z"/>
	</g>
	<g>
		<path class="st0" d="M280.3,385.6L280.3,385.6c-0.9-0.6-1.2-1.9-0.6-2.9l3.1-4.7c0.6-0.9,1.9-1.2,2.9-0.6l0,0
			c0.9,0.6,1.2,1.9,0.6,2.9l-3.1,4.7C282.5,386,281.2,386.2,280.3,385.6z"/>
	</g>
</g>
<g>
	<g>
		<path class="st0" d="M270.7,400L270.7,400c-0.9,0.6-2.2,0.4-2.9-0.6l-3.1-4.7c-0.6-0.9-0.4-2.2,0.6-2.9l0,0
			c0.9-0.6,2.2-0.4,2.9,0.6l3.1,4.7C271.9,398,271.6,399.3,270.7,400z"/>
	</g>
	<g>
		<path class="st0" d="M277.2,401.2L277.2,401.2c-0.6-0.9-0.4-2.2,0.6-2.9l4.7-3.1c0.9-0.6,2.2-0.4,2.9,0.6l0,0
			c0.6,0.9,0.4,2.2-0.6,2.9l-4.7,3.1C279.2,402.4,277.9,402.2,277.2,401.2z"/>
	</g>
</g>
<g>
	<g>
		<path class="st0" d="M267.4,414.2L267.4,414.2c-0.9,0.6-2.2,0.4-2.9-0.6l-3.1-4.7c-0.6-0.9-0.4-2.2,0.6-2.9l0,0
			c0.9-0.6,2.2-0.4,2.9,0.6l3.1,4.7C268.6,412.3,268.3,413.6,267.4,414.2z"/>
	</g>
	<g>
		<path class="st0" d="M273.9,415.5L273.9,415.5c-0.6-0.9-0.4-2.2,0.6-2.9l4.7-3.1c0.9-0.6,2.2-0.4,2.9,0.6l0,0
			c0.6,0.9,0.4,2.2-0.6,2.9l-4.7,3.1C275.9,416.7,274.6,416.5,273.9,415.5z"/>
	</g>
</g>
<g>
	<g>
		<path class="st0" d="M259.3,424.9L259.3,424.9c-1.1,0.2-2.2-0.5-2.4-1.6l-1.1-5.5c-0.2-1.1,0.5-2.2,1.6-2.4l0,0
			c1.1-0.2,2.2,0.5,2.4,1.6l1.1,5.5C261.2,423.6,260.5,424.7,259.3,424.9z"/>
	</g>
	<g>
		<path class="st0" d="M264.9,428.7L264.9,428.7c-0.2-1.1,0.5-2.2,1.6-2.4l5.5-1.1c1.1-0.2,2.2,0.5,2.4,1.6l0,0
			c0.2,1.1-0.5,2.2-1.6,2.4l-5.5,1.1C266.1,430.5,265.1,429.8,264.9,428.7z"/>
	</g>
</g>
<g>
	<g>
		<path class="st0" d="M250.1,434.4L250.1,434.4c-1.1-0.2-1.9-1.3-1.7-2.4l1-5.5c0.2-1.1,1.3-1.9,2.4-1.7l0,0
			c1.1,0.2,1.9,1.3,1.7,2.4l-1,5.5C252.2,433.8,251.2,434.6,250.1,434.4z"/>
	</g>
	<g>
		<path class="st0" d="M253.8,439.9L253.8,439.9c0.2-1.1,1.3-1.9,2.4-1.7l5.5,1c1.1,0.2,1.9,1.3,1.7,2.4l0,0
			c-0.2,1.1-1.3,1.9-2.4,1.7l-5.5-1C254.4,442,253.6,441,253.8,439.9z"/>
	</g>
</g>
<g>
	<g>
		<path class="st0" d="M237.7,442.3L237.7,442.3c-1.1-0.2-1.9-1.3-1.7-2.4l1-5.5c0.2-1.1,1.3-1.9,2.4-1.7l0,0
			c1.1,0.2,1.9,1.3,1.7,2.4l-1,5.5C239.9,441.7,238.8,442.5,237.7,442.3z"/>
	</g>
	<g>
		<path class="st0" d="M241.5,447.8L241.5,447.8c0.2-1.1,1.3-1.9,2.4-1.7l5.5,1c1.1,0.2,1.9,1.3,1.7,2.4l0,0
			c-0.2,1.1-1.3,1.9-2.4,1.7l-5.5-1C242,449.9,241.3,448.9,241.5,447.8z"/>
	</g>
</g>
<g>
	<g>
		<path class="st0" d="M224.8,444.9L224.8,444.9c-0.9-0.6-1.2-1.9-0.5-2.9l3.2-4.6c0.6-0.9,1.9-1.2,2.9-0.5l0,0
			c0.9,0.6,1.2,1.9,0.5,2.9l-3.2,4.6C227.1,445.3,225.8,445.5,224.8,444.9z"/>
	</g>
	<g>
		<path class="st0" d="M226,451.5L226,451.5c0.6-0.9,1.9-1.2,2.9-0.5l4.6,3.2c0.9,0.6,1.2,1.9,0.5,2.9l0,0c-0.6,0.9-1.9,1.2-2.9,0.5
			l-4.6-3.2C225.6,453.7,225.4,452.4,226,451.5z"/>
	</g>
</g>
<g>
	<g>
		<path class="st0" d="M210.3,447L210.3,447c-0.9-0.6-1.2-1.9-0.5-2.9l3.2-4.6c0.6-0.9,1.9-1.2,2.9-0.5l0,0c0.9,0.6,1.2,1.9,0.5,2.9
			l-3.2,4.6C212.5,447.4,211.3,447.7,210.3,447z"/>
	</g>
	<g>
		<path class="st0" d="M211.5,453.6L211.5,453.6c0.6-0.9,1.9-1.2,2.9-0.5l4.6,3.2c0.9,0.6,1.2,1.9,0.5,2.9l0,0
			c-0.6,0.9-1.9,1.2-2.9,0.5l-4.6-3.2C211.1,455.8,210.9,454.5,211.5,453.6z"/>
	</g>
</g>
<g>
	<path class="st0" d="M617.6,451.2c-8.1,0-16.1-1.5-23.5-4.5c-24.1-9.5-39.6-32.9-39.6-59.7c0-21.1,9.2-39.9,25.2-51.7
		c0.7-0.5,1.6-0.3,2.1,0.3s0.3,1.6-0.3,2.1c-15.2,11.2-23.9,29.2-23.9,49.3c0,25.5,14.8,47.9,37.7,56.9c7.1,2.8,14.7,4.2,22.4,4.2
		c0.8,0,1.5,0.7,1.5,1.5C619.2,450.4,618.4,451.2,617.6,451.2z"/>
</g>
<g>
	<g>
		<path class="st0" d="M568.4,344.1L568.4,344.1c-1.1,0-2.1-0.9-2.1-2l-0.2-5.6c0-1.1,0.9-2.1,2-2.1l0,0c1.1,0,2.1,0.9,2.1,2
			l0.2,5.6C570.5,343.1,569.6,344,568.4,344.1z"/>
	</g>
	<g>
		<path class="st0" d="M573.3,348.6L573.3,348.6c0-1.1,0.9-2.1,2-2.1l5.6-0.2c1.1,0,2.1,0.9,2.1,2l0,0c0,1.1-0.9,2.1-2,2.1l-5.6,0.2
			C574.3,350.6,573.4,349.7,573.3,348.6z"/>
	</g>
</g>
<g>
	<g>
		<path class="st0" d="M559.8,357L559.8,357c-1.1,0.4-2.3-0.2-2.6-1.2l-1.9-5.3c-0.4-1.1,0.2-2.3,1.2-2.6l0,0
			c1.1-0.4,2.3,0.2,2.6,1.2l1.9,5.3C561.5,355.4,560.9,356.6,559.8,357z"/>
	</g>
	<g>
		<path class="st0" d="M565.9,359.8L565.9,359.8c-0.4-1.1,0.2-2.3,1.2-2.6l5.3-1.9c1.1-0.4,2.3,0.2,2.6,1.2l0,0
			c0.4,1.1-0.2,2.3-1.2,2.6l-5.3,1.9C567.4,361.4,566.2,360.9,565.9,359.8z"/>
	</g>
</g>
<g>
	<g>
		<path class="st0" d="M553.8,370.8L553.8,370.8c-1,0.5-2.2,0.2-2.8-0.8l-2.7-4.9c-0.5-1-0.2-2.2,0.8-2.8l0,0c1-0.5,2.2-0.2,2.8,0.8
			l2.7,4.9C555.1,369,554.8,370.2,553.8,370.8z"/>
	</g>
	<g>
		<path class="st0" d="M560.2,372.6L560.2,372.6c-0.5-1-0.2-2.2,0.8-2.8l4.9-2.7c1-0.5,2.2-0.2,2.8,0.8l0,0c0.5,1,0.2,2.2-0.8,2.8
			l-4.9,2.7C562,374,560.7,373.6,560.2,372.6z"/>
	</g>
</g>
<g>
	<g>
		<path class="st0" d="M551.9,385.9L551.9,385.9c-0.9,0.7-2.2,0.5-2.9-0.4l-3.5-4.4c-0.7-0.9-0.5-2.2,0.4-2.9l0,0
			c0.9-0.7,2.2-0.5,2.9,0.4l3.5,4.4C552.9,383.9,552.8,385.2,551.9,385.9z"/>
	</g>
	<g>
		<path class="st0" d="M558.5,386.7L558.5,386.7c-0.7-0.9-0.5-2.2,0.4-2.9l4.4-3.5c0.9-0.7,2.2-0.5,2.9,0.4l0,0
			c0.7,0.9,0.5,2.2-0.4,2.9l-4.4,3.5C560.5,387.8,559.2,387.6,558.5,386.7z"/>
	</g>
</g>
<g>
	<g>
		<path class="st0" d="M555,401.4L555,401.4c-0.6,1-1.8,1.3-2.8,0.8l-4.9-2.8c-1-0.6-1.3-1.8-0.8-2.8l0,0c0.6-1,1.8-1.3,2.8-0.8
			l4.9,2.8C555.2,399.2,555.5,400.4,555,401.4z"/>
	</g>
	<g>
		<path class="st0" d="M561.4,399.7L561.4,399.7c-1-0.6-1.3-1.8-0.8-2.8l2.8-4.9c0.6-1,1.8-1.3,2.8-0.8l0,0c1,0.6,1.3,1.8,0.8,2.8
			l-2.8,4.9C563.7,399.9,562.4,400.2,561.4,399.7z"/>
	</g>
</g>
<g>
	<g>
		<path class="st0" d="M558.3,415.7L558.3,415.7c-0.6,1-1.8,1.3-2.8,0.8l-4.9-2.8c-1-0.6-1.3-1.8-0.8-2.8l0,0c0.6-1,1.8-1.3,2.8-0.8
			l4.9,2.8C558.5,413.4,558.8,414.7,558.3,415.7z"/>
	</g>
	<g>
		<path class="st0" d="M564.7,414L564.7,414c-1-0.6-1.3-1.8-0.8-2.8l2.8-4.9c0.6-1,1.8-1.3,2.8-0.8l0,0c1,0.6,1.3,1.8,0.8,2.8
			l-2.8,4.9C567,414.2,565.7,414.5,564.7,414z"/>
	</g>
</g>
<g>
	<g>
		<path class="st0" d="M567.4,428.7L567.4,428.7c-0.1,1.1-1.2,1.9-2.3,1.8l-5.6-0.7c-1.1-0.1-1.9-1.2-1.8-2.3l0,0
			c0.1-1.1,1.2-1.9,2.3-1.8l5.6,0.7C566.7,426.6,567.5,427.6,567.4,428.7z"/>
	</g>
	<g>
		<path class="st0" d="M572.6,424.6L572.6,424.6c-1.1-0.1-1.9-1.2-1.8-2.3l0.7-5.6c0.1-1.1,1.2-1.9,2.3-1.8l0,0
			c1.1,0.1,1.9,1.2,1.8,2.3l-0.7,5.6C574.8,423.9,573.8,424.7,572.6,424.6z"/>
	</g>
</g>
<g>
	<g>
		<path class="st0" d="M578.4,439.8L578.4,439.8c0.3,1.1-0.4,2.2-1.5,2.5l-5.5,1.4c-1.1,0.3-2.2-0.4-2.5-1.5l0,0
			c-0.3-1.1,0.4-2.2,1.5-2.5l5.5-1.4C577,438,578.1,438.7,578.4,439.8z"/>
	</g>
	<g>
		<path class="st0" d="M581.8,434L581.8,434c-1.1,0.3-2.2-0.4-2.5-1.5l-1.4-5.5c-0.3-1.1,0.4-2.2,1.5-2.5l0,0
			c1.1-0.3,2.2,0.4,2.5,1.5l1.4,5.5C583.6,432.6,582.9,433.8,581.8,434z"/>
	</g>
</g>
<g>
	<g>
		<path class="st0" d="M590.8,447.7L590.8,447.7c0.3,1.1-0.4,2.2-1.5,2.5l-5.5,1.4c-1.1,0.3-2.2-0.4-2.5-1.5l0,0
			c-0.3-1.1,0.4-2.2,1.5-2.5l5.5-1.4C589.4,445.9,590.5,446.6,590.8,447.7z"/>
	</g>
	<g>
		<path class="st0" d="M594.2,441.9L594.2,441.9c-1.1,0.3-2.2-0.4-2.5-1.5l-1.4-5.5c-0.3-1.1,0.4-2.2,1.5-2.5l0,0
			c1.1-0.3,2.2,0.4,2.5,1.5l1.4,5.5C595.9,440.5,595.3,441.7,594.2,441.9z"/>
	</g>
</g>
<g>
	<g>
		<path class="st0" d="M606.2,451.3L606.2,451.3c0.7,0.9,0.6,2.2-0.3,2.9l-4.4,3.5c-0.9,0.7-2.2,0.6-2.9-0.3l0,0
			c-0.7-0.9-0.6-2.2,0.3-2.9l4.4-3.5C604.2,450.2,605.5,450.4,606.2,451.3z"/>
	</g>
	<g>
		<path class="st0" d="M606.9,444.6L606.9,444.6c-0.9,0.7-2.2,0.6-2.9-0.3l-3.5-4.4c-0.7-0.9-0.6-2.2,0.3-2.9l0,0
			c0.9-0.7,2.2-0.6,2.9,0.3l3.5,4.4C607.9,442.6,607.8,443.9,606.9,444.6z"/>
	</g>
</g>
<g>
	<g>
		<path class="st0" d="M620.7,453.4L620.7,453.4c0.7,0.9,0.6,2.2-0.3,2.9l-4.4,3.5c-0.9,0.7-2.2,0.6-2.9-0.3l0,0
			c-0.7-0.9-0.6-2.2,0.3-2.9l4.4-3.5C618.7,452.3,620,452.5,620.7,453.4z"/>
	</g>
	<g>
		<path class="st0" d="M621.4,446.7L621.4,446.7c-0.9,0.7-2.2,0.6-2.9-0.3L615,442c-0.7-0.9-0.6-2.2,0.3-2.9l0,0
			c0.9-0.7,2.2-0.6,2.9,0.3l3.5,4.4C622.4,444.7,622.3,446,621.4,446.7z"/>
	</g>
</g>
<g>
	<path class="st0" d="M704.4,451.2c-0.8,0-1.5-0.7-1.5-1.5s0.7-1.5,1.5-1.5c7.7,0,15.3-1.4,22.4-4.2c22.9-9,37.7-31.4,37.7-56.9
		c0-20.1-8.7-38.1-23.9-49.3c-0.7-0.5-0.8-1.4-0.3-2.1s1.4-0.8,2.1-0.3c16,11.8,25.2,30.6,25.2,51.7c0,26.8-15.6,50.2-39.6,59.7
		C720.4,449.7,712.5,451.2,704.4,451.2z"/>
</g>
<g>
	<g>
		<path class="st0" d="M749,348.6L749,348.6c0,1.1-0.9,2.1-2,2.1l-5.6,0.2c-1.1,0-2.1-0.9-2.1-2l0,0c0-1.1,0.9-2.1,2-2.1l5.6-0.2
			C748,346.6,749,347.5,749,348.6z"/>
	</g>
	<g>
		<path class="st0" d="M753.6,343.7L753.6,343.7c-1.1,0-2.1-0.9-2.1-2l-0.2-5.6c0-1.1,0.9-2.1,2-2.1l0,0c1.1,0,2.1,0.9,2.1,2
			l0.2,5.6C755.6,342.8,754.7,343.7,753.6,343.7z"/>
	</g>
</g>
<g>
	<g>
		<path class="st0" d="M756.5,359.9L756.5,359.9c-0.3,1.1-1.4,1.7-2.5,1.4l-5.4-1.5c-1.1-0.3-1.7-1.4-1.4-2.5l0,0
			c0.3-1.1,1.4-1.7,2.5-1.4l5.4,1.5C756.1,357.7,756.8,358.8,756.5,359.9z"/>
	</g>
	<g>
		<path class="st0" d="M762.3,356.6L762.3,356.6c-1.1-0.3-1.7-1.4-1.4-2.5l1.5-5.4c0.3-1.1,1.4-1.7,2.5-1.4l0,0
			c1.1,0.3,1.7,1.4,1.4,2.5l-1.5,5.4C764.5,356.3,763.4,356.9,762.3,356.6z"/>
	</g>
</g>
<g>
	<g>
		<path class="st0" d="M762.1,372.8L762.1,372.8c-0.5,1-1.7,1.5-2.7,1l-5.1-2.4c-1-0.5-1.5-1.7-1-2.7l0,0c0.5-1,1.7-1.5,2.7-1
			l5.1,2.4C762.1,370.5,762.6,371.8,762.1,372.8z"/>
	</g>
	<g>
		<path class="st0" d="M768.4,370.5L768.4,370.5c-1-0.5-1.5-1.7-1-2.7l2.4-5.1c0.5-1,1.7-1.5,2.7-1l0,0c1,0.5,1.5,1.7,1,2.7
			l-2.4,5.1C770.6,370.5,769.4,371,768.4,370.5z"/>
	</g>
</g>
<g>
	<g>
		<path class="st0" d="M763.8,386.9L763.8,386.9c-0.6,0.9-1.9,1.2-2.9,0.6l-4.7-3.1c-0.9-0.6-1.2-1.9-0.6-2.9l0,0
			c0.6-0.9,1.9-1.2,2.9-0.6l4.7,3.1C764.1,384.7,764.4,386,763.8,386.9z"/>
	</g>
	<g>
		<path class="st0" d="M770.3,385.6L770.3,385.6c-0.9-0.6-1.2-1.9-0.6-2.9l3.1-4.7c0.6-0.9,1.9-1.2,2.9-0.6l0,0
			c0.9,0.6,1.2,1.9,0.6,2.9l-3.1,4.7C772.5,386,771.2,386.2,770.3,385.6z"/>
	</g>
</g>
<g>
	<g>
		<path class="st0" d="M760.7,400L760.7,400c-0.9,0.6-2.2,0.4-2.9-0.6l-3.1-4.7c-0.6-0.9-0.4-2.2,0.6-2.9l0,0
			c0.9-0.6,2.2-0.4,2.9,0.6l3.1,4.7C761.9,398,761.7,399.3,760.7,400z"/>
	</g>
	<g>
		<path class="st0" d="M767.3,401.2L767.3,401.2c-0.6-0.9-0.4-2.2,0.6-2.9l4.7-3.1c0.9-0.6,2.2-0.4,2.9,0.6l0,0
			c0.6,0.9,0.4,2.2-0.6,2.9l-4.7,3.1C769.2,402.4,767.9,402.2,767.3,401.2z"/>
	</g>
</g>
<g>
	<g>
		<path class="st0" d="M757.4,414.2L757.4,414.2c-0.9,0.6-2.2,0.4-2.9-0.6l-3.1-4.7c-0.6-0.9-0.4-2.2,0.6-2.9l0,0
			c0.9-0.6,2.2-0.4,2.9,0.6l3.1,4.7C758.6,412.3,758.4,413.6,757.4,414.2z"/>
	</g>
	<g>
		<path class="st0" d="M764,415.5L764,415.5c-0.6-0.9-0.4-2.2,0.6-2.9l4.7-3.1c0.9-0.6,2.2-0.4,2.9,0.6l0,0c0.6,0.9,0.4,2.2-0.6,2.9
			l-4.7,3.1C765.9,416.7,764.6,416.5,764,415.5z"/>
	</g>
</g>
<g>
	<g>
		<path class="st0" d="M749.4,424.9L749.4,424.9c-1.1,0.2-2.2-0.5-2.4-1.6l-1.1-5.5c-0.2-1.1,0.5-2.2,1.6-2.4l0,0
			c1.1-0.2,2.2,0.5,2.4,1.6l1.1,5.5C751.2,423.6,750.5,424.7,749.4,424.9z"/>
	</g>
	<g>
		<path class="st0" d="M754.9,428.7L754.9,428.7c-0.2-1.1,0.5-2.2,1.6-2.4l5.5-1.1c1.1-0.2,2.2,0.5,2.4,1.6l0,0
			c0.2,1.1-0.5,2.2-1.6,2.4l-5.5,1.1C756.2,430.5,755.1,429.8,754.9,428.7z"/>
	</g>
</g>
<g>
	<g>
		<path class="st0" d="M740.1,434.4L740.1,434.4c-1.1-0.2-1.9-1.3-1.7-2.4l1-5.5c0.2-1.1,1.3-1.9,2.4-1.7l0,0
			c1.1,0.2,1.9,1.3,1.7,2.4l-1,5.5C742.3,433.8,741.2,434.6,740.1,434.4z"/>
	</g>
	<g>
		<path class="st0" d="M743.9,439.9L743.9,439.9c0.2-1.1,1.3-1.9,2.4-1.7l5.5,1c1.1,0.2,1.9,1.3,1.7,2.4l0,0
			c-0.2,1.1-1.3,1.9-2.4,1.7l-5.5-1C744.4,442,743.7,441,743.9,439.9z"/>
	</g>
</g>
<g>
	<g>
		<path class="st0" d="M727.8,442.3L727.8,442.3c-1.1-0.2-1.9-1.3-1.7-2.4l1-5.5c0.2-1.1,1.3-1.9,2.4-1.7l0,0
			c1.1,0.2,1.9,1.3,1.7,2.4l-1,5.5C729.9,441.7,728.9,442.5,727.8,442.3z"/>
	</g>
	<g>
		<path class="st0" d="M731.5,447.8L731.5,447.8c0.2-1.1,1.3-1.9,2.4-1.7l5.5,1c1.1,0.2,1.9,1.3,1.7,2.4l0,0
			c-0.2,1.1-1.3,1.9-2.4,1.7l-5.5-1C732.1,449.9,731.3,448.9,731.5,447.8z"/>
	</g>
</g>
<g>
	<g>
		<path class="st0" d="M714.9,444.9L714.9,444.9c-0.9-0.6-1.2-1.9-0.5-2.9l3.2-4.6c0.6-0.9,1.9-1.2,2.9-0.5l0,0
			c0.9,0.6,1.2,1.9,0.5,2.9l-3.2,4.6C717.1,445.3,715.8,445.5,714.9,444.9z"/>
	</g>
	<g>
		<path class="st0" d="M716.1,451.5L716.1,451.5c0.6-0.9,1.9-1.2,2.9-0.5l4.6,3.2c0.9,0.6,1.2,1.9,0.5,2.9l0,0
			c-0.6,0.9-1.9,1.2-2.9,0.5l-4.6-3.2C715.7,453.7,715.4,452.4,716.1,451.5z"/>
	</g>
</g>
<g>
	<g>
		<path class="st0" d="M700.4,447L700.4,447c-0.9-0.6-1.2-1.9-0.5-2.9l3.2-4.6c0.6-0.9,1.9-1.2,2.9-0.5l0,0c0.9,0.6,1.2,1.9,0.5,2.9
			l-3.2,4.6C702.6,447.4,701.3,447.7,700.4,447z"/>
	</g>
	<g>
		<path class="st0" d="M701.6,453.6L701.6,453.6c0.6-0.9,1.9-1.2,2.9-0.5l4.6,3.2c0.9,0.6,1.2,1.9,0.5,2.9l0,0
			c-0.6,0.9-1.9,1.2-2.9,0.5l-4.6-3.2C701.2,455.8,700.9,454.5,701.6,453.6z"/>
	</g>
</g>
<g>
	<path class="st0" d="M377.2,381.3v8.1c0,0.4-0.4,0.8-0.8,0.8c-0.3,0-0.5-0.1-0.7-0.4l-4.1-6v5.5c0,0.4-0.4,0.8-0.8,0.8
		c-0.4,0-0.8-0.4-0.8-0.8v-8.1c0-0.4,0.4-0.8,0.8-0.8c0.3,0,0.5,0.1,0.6,0.3l4.1,6v-5.5c0-0.4,0.4-0.8,0.8-0.8
		C376.8,380.5,377.2,380.8,377.2,381.3z"/>
	<path class="st0" d="M378.8,386.9v-5.6c0-0.4,0.4-0.8,0.8-0.8c0.4,0,0.8,0.4,0.8,0.8v5.6c0,0.9,0.3,1.8,1.9,1.8
		c1.6,0,1.9-1,1.9-1.8v-5.6c0-0.4,0.4-0.8,0.8-0.8c0.4,0,0.8,0.4,0.8,0.8v5.6c0,1.6-0.7,3.3-3.5,3.3
		C379.5,390.2,378.8,388.5,378.8,386.9z"/>
	<path class="st0" d="M387.1,385.3c0-3.3,1.6-4.9,4.4-4.9s4.4,1.6,4.4,4.9s-1.6,4.9-4.4,4.9S387.1,388.6,387.1,385.3z M388.7,385.3
		c0,2.3,0.9,3.4,2.8,3.4c1.8,0,2.8-1.1,2.8-3.4s-0.9-3.5-2.8-3.5C389.6,381.8,388.7,383,388.7,385.3z"/>
	<path class="st0" d="M399.9,389.6l-3.2-8c0-0.1-0.1-0.2-0.1-0.3c0-0.4,0.4-0.8,0.8-0.8s0.7,0.3,0.7,0.5l2.4,6.5l2.4-6.5
		c0.1-0.2,0.3-0.5,0.7-0.5s0.8,0.4,0.8,0.8c0,0.1,0,0.2-0.1,0.3l-3.2,8c-0.1,0.3-0.3,0.5-0.8,0.5S400,389.9,399.9,389.6z"/>
	<path class="st0" d="M405.4,385.3c0-3.3,1.6-4.9,4.4-4.9s4.4,1.6,4.4,4.9s-1.6,4.9-4.4,4.9S405.4,388.6,405.4,385.3z M407.1,385.3
		c0,2.3,0.9,3.4,2.8,3.4c1.8,0,2.8-1.1,2.8-3.4s-0.9-3.5-2.8-3.5C408,381.8,407.1,383,407.1,385.3z"/>
	<path class="st0" d="M420.6,387.5l-0.9,2c-0.1,0.3-0.4,0.5-0.8,0.5c-0.4,0-0.8-0.4-0.8-0.8c0-0.1,0-0.2,0.1-0.3l3.3-8.1
		c0.1-0.2,0.3-0.5,0.7-0.5s0.7,0.3,0.7,0.5l3.3,8.1c0,0.1,0.1,0.2,0.1,0.3c0,0.4-0.4,0.8-0.8,0.8c-0.4,0-0.6-0.2-0.8-0.5l-0.9-2
		H420.6z M422.3,383.1l-1.1,2.9h2.3L422.3,383.1z"/>
	<path class="st0" d="M431.5,383.8l-1.6,5.7c-0.1,0.4-0.4,0.6-0.8,0.6s-0.7-0.2-0.8-0.6l-2.4-8c0-0.1,0-0.2,0-0.3
		c0-0.4,0.4-0.8,0.8-0.8c0.4,0,0.7,0.3,0.8,0.6l1.6,5.9l1.6-5.9c0.1-0.4,0.4-0.6,0.8-0.6c0.4,0,0.7,0.2,0.8,0.6l1.6,5.9l1.6-5.9
		c0.1-0.2,0.3-0.6,0.8-0.6s0.8,0.4,0.8,0.8c0,0.1,0,0.2,0,0.3l-2.4,8c-0.1,0.3-0.4,0.6-0.8,0.6s-0.7-0.3-0.8-0.6L431.5,383.8z"/>
	<path class="st0" d="M439,387.5l-0.9,2c-0.1,0.3-0.4,0.5-0.8,0.5s-0.8-0.4-0.8-0.8c0-0.1,0-0.2,0.1-0.3l3.3-8.1
		c0.1-0.2,0.3-0.5,0.7-0.5s0.7,0.3,0.7,0.5l3.3,8.1c0,0.1,0.1,0.2,0.1,0.3c0,0.4-0.4,0.8-0.8,0.8s-0.6-0.2-0.8-0.5l-0.9-2H439z
		 M440.7,383.1l-1.1,2.9h2.3L440.7,383.1z"/>
	<path class="st0" d="M447.5,386.4v2.9c0,0.4-0.4,0.8-0.8,0.8c-0.4,0-0.8-0.4-0.8-0.8v-7.9c0-0.4,0.4-0.8,0.8-0.8h2.7
		c1.9,0,3,1.3,3,2.9c0,1.3-0.8,2.6-2.2,2.8l2.1,2.5c0.1,0.2,0.2,0.3,0.2,0.5c0,0.4-0.4,0.8-0.8,0.8c-0.2,0-0.5-0.1-0.6-0.3l-2.5-3.4
		H447.5z M447.5,382v2.9h1.9c0.9,0,1.2-0.7,1.2-1.5s-0.4-1.5-1.3-1.5h-1.8V382z"/>
	<path class="st0" d="M456.4,380.6c2.8,0,4.6,1.3,4.6,4.7c0,3.5-1.8,4.7-4.6,4.7h-1.9c-0.4,0-0.8-0.4-0.8-0.8v-7.8
		c0-0.4,0.4-0.8,0.8-0.8L456.4,380.6L456.4,380.6z M455.3,388.5h1.1c1.8,0,2.9-0.8,2.9-3.2c0-2.4-1.1-3.3-2.9-3.3h-1.1V388.5z"/>
	<path class="st0" d="M352,406.8c-0.4,0-0.8-0.4-0.8-0.8v-7.8c0-0.4,0.4-0.8,0.8-0.8h2.5c2.1,0,2.9,1.1,2.9,2.4c0,0.9-0.5,1.6-1,1.9
		c1.1,0.4,1.5,1.2,1.5,2.3c0,1.7-1,2.8-3,2.8L352,406.8L352,406.8z M352.8,401.2h1.7c0.9,0,1.2-0.5,1.2-1.2s-0.4-1.2-1.2-1.2h-1.7
		V401.2z M352.8,405.3h2c1,0,1.4-0.5,1.4-1.4s-0.5-1.4-1.4-1.4h-2V405.3z"/>
	<path class="st0" d="M360.8,401.3h2.6c0.4,0,0.7,0.3,0.7,0.7c0,0.4-0.3,0.7-0.7,0.7h-2.6v2.6h3.7c0.4,0,0.7,0.3,0.7,0.7
		s-0.3,0.7-0.7,0.7H360c-0.4,0-0.8-0.4-0.8-0.8v-7.7c0-0.4,0.4-0.8,0.8-0.8h4.4c0.4,0,0.7,0.3,0.7,0.7c0,0.4-0.3,0.7-0.7,0.7h-3.6
		V401.3z"/>
	<path class="st0" d="M369.7,398.6c-1.2,0-1.6,0.5-1.6,1.1c0,1.8,5.1,1,5.1,4.5c0,1.7-1.2,2.8-3.5,2.8c-1.7,0-3-0.8-3.5-1.7
		c-0.1-0.1-0.1-0.3-0.1-0.4c0-0.4,0.3-0.8,0.7-0.8c0.3,0,0.5,0.2,0.6,0.3c0.6,0.6,1.3,1.1,2.3,1.1c1.3,0,1.9-0.4,1.9-1.3
		c0-2-5.1-1.1-5.1-4.5c0-1.4,1-2.6,3.2-2.6c1.4,0,2.6,0.5,3.2,1.3c0.1,0.1,0.1,0.3,0.1,0.4c0,0.4-0.3,0.7-0.8,0.7
		c-0.2,0-0.4-0.1-0.6-0.3C371.2,399,370.5,398.6,369.7,398.6z"/>
	<path class="st0" d="M378,398.8v7.3c0,0.4-0.4,0.8-0.8,0.8c-0.4,0-0.8-0.4-0.8-0.8v-7.3h-2.1c-0.4,0-0.7-0.3-0.7-0.7
		c0-0.4,0.3-0.7,0.7-0.7h5.9c0.4,0,0.7,0.3,0.7,0.7c0,0.4-0.3,0.7-0.7,0.7H378z"/>
	<path class="st0" d="M388.4,398.6c-1.2,0-1.6,0.5-1.6,1.1c0,1.8,5.1,1,5.1,4.5c0,1.7-1.2,2.8-3.5,2.8c-1.7,0-3-0.8-3.5-1.7
		c-0.1-0.1-0.1-0.3-0.1-0.4c0-0.4,0.3-0.8,0.7-0.8c0.3,0,0.5,0.2,0.6,0.3c0.6,0.6,1.3,1.1,2.3,1.1c1.3,0,1.9-0.4,1.9-1.3
		c0-2-5.1-1.1-5.1-4.5c0-1.4,1-2.6,3.2-2.6c1.4,0,2.6,0.5,3.2,1.3c0.1,0.1,0.1,0.3,0.1,0.4c0,0.4-0.3,0.7-0.8,0.7
		c-0.2,0-0.4-0.1-0.6-0.3C389.9,399,389.2,398.6,388.4,398.6z"/>
	<path class="st0" d="M396.7,398.8v7.3c0,0.4-0.4,0.8-0.8,0.8c-0.4,0-0.8-0.4-0.8-0.8v-7.3H393c-0.4,0-0.7-0.3-0.7-0.7
		c0-0.4,0.3-0.7,0.7-0.7h5.9c0.4,0,0.7,0.3,0.7,0.7c0,0.4-0.3,0.7-0.7,0.7H396.7z"/>
	<path class="st0" d="M400.7,403.7v-5.6c0-0.4,0.4-0.8,0.8-0.8c0.4,0,0.8,0.4,0.8,0.8v5.6c0,0.9,0.3,1.8,1.9,1.8s1.9-1,1.9-1.8v-5.6
		c0-0.4,0.4-0.8,0.8-0.8c0.4,0,0.8,0.4,0.8,0.8v5.6c0,1.6-0.7,3.3-3.5,3.3C401.4,407,400.7,405.3,400.7,403.7z"/>
	<path class="st0" d="M412.1,397.4c2.8,0,4.6,1.3,4.6,4.7c0,3.5-1.8,4.7-4.6,4.7h-1.9c-0.4,0-0.8-0.4-0.8-0.8v-7.8
		c0-0.4,0.4-0.8,0.8-0.8H412.1z M411,405.3h1.1c1.8,0,2.9-0.8,2.9-3.2c0-2.4-1.1-3.3-2.9-3.3H411V405.3z"/>
	<path class="st0" d="M419.6,401.3h2.6c0.4,0,0.7,0.3,0.7,0.7c0,0.4-0.3,0.7-0.7,0.7h-2.6v2.6h3.7c0.4,0,0.7,0.3,0.7,0.7
		s-0.3,0.7-0.7,0.7h-4.5c-0.4,0-0.8-0.4-0.8-0.8v-7.7c0-0.4,0.4-0.8,0.8-0.8h4.4c0.4,0,0.7,0.3,0.7,0.7c0,0.4-0.3,0.7-0.7,0.7h-3.6
		L419.6,401.3L419.6,401.3z"/>
	<path class="st0" d="M432.4,398.1v8.1c0,0.4-0.4,0.8-0.8,0.8c-0.3,0-0.5-0.1-0.7-0.4l-4.1-6v5.5c0,0.4-0.4,0.8-0.8,0.8
		c-0.4,0-0.8-0.4-0.8-0.8V398c0-0.4,0.4-0.8,0.8-0.8c0.3,0,0.5,0.1,0.6,0.3l4.1,6V398c0-0.4,0.4-0.8,0.8-0.8
		C432,397.3,432.4,397.6,432.4,398.1z"/>
	<path class="st0" d="M437.9,398.8v7.3c0,0.4-0.4,0.8-0.8,0.8c-0.4,0-0.8-0.4-0.8-0.8v-7.3h-2.1c-0.4,0-0.7-0.3-0.7-0.7
		c0-0.4,0.3-0.7,0.7-0.7h5.9c0.4,0,0.7,0.3,0.7,0.7c0,0.4-0.3,0.7-0.7,0.7H437.9z"/>
	<path class="st0" d="M451.4,403.2h-1.9c-0.4,0-0.7-0.3-0.7-0.7c0-0.4,0.3-0.7,0.7-0.7h2.7c0.4,0,0.8,0.3,0.8,0.7v2.2
		c0,0.3-0.1,0.5-0.2,0.7c-0.7,0.9-2.2,1.5-3.7,1.5c-2.8,0-4.4-1.5-4.4-4.9c0-3.3,1.6-4.9,4.4-4.9c1.7,0,2.8,0.7,3.4,1.5
		c0.1,0.2,0.2,0.3,0.2,0.5c0,0.4-0.3,0.7-0.8,0.7c-0.2,0-0.4-0.1-0.6-0.3c-0.6-0.6-1.2-1-2.2-1c-1.9,0-2.7,1.1-2.7,3.5
		c0,2.5,0.8,3.4,2.7,3.4c1,0,1.8-0.2,2.3-0.8V403.2z"/>
	<path class="st0" d="M456.3,404.3l-0.9,2c-0.1,0.3-0.4,0.5-0.8,0.5s-0.8-0.4-0.8-0.8c0-0.1,0-0.2,0.1-0.3l3.3-8.1
		c0.1-0.2,0.3-0.5,0.7-0.5s0.7,0.3,0.7,0.5l3.3,8.1c0,0.1,0.1,0.2,0.1,0.3c0,0.4-0.4,0.8-0.8,0.8s-0.6-0.2-0.8-0.5l-0.9-2H456.3z
		 M458,399.9l-1.1,2.9h2.3L458,399.9z"/>
	<path class="st0" d="M466.9,404.9l-2.2-3.9v5.1c0,0.4-0.4,0.8-0.8,0.8c-0.4,0-0.8-0.4-0.8-0.8V398c0-0.4,0.4-0.8,0.8-0.8
		s0.6,0.2,0.7,0.4l3,5.3l3-5.3c0.1-0.3,0.4-0.4,0.7-0.4c0.4,0,0.8,0.4,0.8,0.8v8.1c0,0.4-0.4,0.8-0.8,0.8c-0.4,0-0.8-0.4-0.8-0.8
		V401l-2.2,3.9c-0.1,0.3-0.4,0.4-0.7,0.4C467.3,405.3,467,405.2,466.9,404.9z"/>
	<path class="st0" d="M475.4,401.3h2.6c0.4,0,0.7,0.3,0.7,0.7c0,0.4-0.3,0.7-0.7,0.7h-2.6v2.6h3.7c0.4,0,0.7,0.3,0.7,0.7
		s-0.3,0.7-0.7,0.7h-4.5c-0.4,0-0.8-0.4-0.8-0.8v-7.7c0-0.4,0.4-0.8,0.8-0.8h4.4c0.4,0,0.7,0.3,0.7,0.7c0,0.4-0.3,0.7-0.7,0.7h-3.6
		V401.3z"/>
</g>
<g>
	<path class="st0" d="M375.2,368.1c0,0.7-0.6,1.3-1.3,1.3c-0.7,0-1.3-0.6-1.3-1.3v-13c0-0.7,0.6-1.3,1.3-1.3h7.2
		c0.7,0,1.2,0.5,1.2,1.2s-0.5,1.2-1.2,1.2h-5.8v4.3h4.3c0.6,0,1.2,0.5,1.2,1.2c0,0.6-0.5,1.2-1.2,1.2h-4.3L375.2,368.1L375.2,368.1z
		"/>
	<path class="st0" d="M387.2,368.1c0,0.7-0.6,1.3-1.3,1.3c-0.7,0-1.3-0.6-1.3-1.3v-13.2c0-0.7,0.6-1.3,1.3-1.3
		c0.7,0,1.3,0.6,1.3,1.3V368.1z"/>
	<path class="st0" d="M401.6,354.9v13.2c0,0.7-0.6,1.3-1.3,1.3c-0.4,0-0.9-0.2-1.1-0.6l-6.8-9.8v9.1c0,0.7-0.6,1.3-1.3,1.3
		c-0.7,0-1.3-0.6-1.3-1.3v-13.2c0-0.7,0.6-1.3,1.3-1.3c0.5,0,0.8,0.2,1.1,0.6l6.8,9.9V355c0-0.7,0.6-1.3,1.3-1.3
		C401,353.7,401.6,354.2,401.6,354.9z"/>
	<path class="st0" d="M407.3,365.2l-1.4,3.3c-0.2,0.5-0.6,0.9-1.2,0.9c-0.7,0-1.3-0.6-1.3-1.3c0-0.1,0-0.3,0.1-0.5l5.4-13.2
		c0.1-0.3,0.5-0.8,1.2-0.8c0.7,0,1.1,0.5,1.2,0.8l5.4,13.2c0.1,0.2,0.1,0.3,0.1,0.5c0,0.7-0.6,1.3-1.3,1.3c-0.6,0-1-0.4-1.2-0.9
		l-1.4-3.3H407.3z M410.1,358l-1.9,4.8h3.8L410.1,358z"/>
	<path class="st0" d="M426.8,366.8c0.8,0,1.3,0.6,1.3,1.2c0,0.7-0.5,1.2-1.3,1.2H420c-0.8,0-1.3-0.6-1.3-1.3v-13
		c0-0.7,0.6-1.3,1.3-1.3c0.7,0,1.3,0.6,1.3,1.3v11.8L426.8,366.8L426.8,366.8z"/>
	<path class="st0" d="M432.6,368.1c0,0.7-0.6,1.3-1.3,1.3c-0.7,0-1.3-0.6-1.3-1.3v-13.2c0-0.7,0.6-1.3,1.3-1.3
		c0.7,0,1.3,0.6,1.3,1.3V368.1z"/>
	<path class="st0" d="M440.6,355.9c-1.9,0-2.6,0.9-2.6,1.8c0,3,8.4,1.6,8.4,7.4c0,2.8-2,4.6-5.8,4.6c-2.7,0-4.9-1.4-5.8-2.8
		c-0.1-0.2-0.2-0.4-0.2-0.6c0-0.7,0.6-1.2,1.2-1.2c0.5,0,0.8,0.3,1,0.5c1,1,2.2,1.7,3.8,1.7c2.1,0,3.1-0.7,3.1-2.1
		c0-3.4-8.4-1.8-8.4-7.4c0-2.3,1.6-4.2,5.3-4.2c2.3,0,4.3,0.9,5.2,2.2c0.1,0.2,0.2,0.5,0.2,0.7c0,0.7-0.6,1.2-1.2,1.2
		c-0.3,0-0.6-0.2-1-0.5C443.2,356.4,442,355.9,440.6,355.9z"/>
	<path class="st0" d="M454.3,356.1v12c0,0.7-0.6,1.3-1.3,1.3c-0.7,0-1.3-0.6-1.3-1.3v-12h-3.5c-0.6,0-1.2-0.5-1.2-1.2
		c0-0.6,0.5-1.2,1.2-1.2h9.7c0.6,0,1.2,0.5,1.2,1.2c0,0.6-0.5,1.2-1.2,1.2H454.3z"/>
</g>
<g>
	<g>
		<path class="st0" d="M87.1,377.4c0-4.3,2.1-6.3,5.7-6.3s5.7,2.1,5.7,6.3c0,4.2-2.1,6.3-5.7,6.3S87.1,381.6,87.1,377.4z
			 M89.3,377.4c0,3,1.2,4.4,3.5,4.4c2.4,0,3.5-1.5,3.5-4.4c0-3-1.2-4.4-3.5-4.4C90.5,372.9,89.3,374.4,89.3,377.4z"/>
		<path class="st0" d="M102.3,382.5c0,0.6-0.5,1-1,1s-1-0.5-1-1v-10.2c0-0.6,0.5-1,1-1h5.6c0.5,0,0.9,0.4,0.9,0.9s-0.4,0.9-0.9,0.9
			h-4.6v3.3h3.4c0.5,0,0.9,0.4,0.9,0.9s-0.4,0.9-0.9,0.9h-3.4V382.5z"/>
		<path class="st0" d="M111.8,382.5c0,0.6-0.5,1-1,1s-1-0.5-1-1v-10.2c0-0.6,0.5-1,1-1h5.6c0.5,0,0.9,0.4,0.9,0.9s-0.4,0.9-0.9,0.9
			h-4.6v3.3h3.4c0.5,0,0.9,0.4,0.9,0.9s-0.4,0.9-0.9,0.9h-3.4V382.5z"/>
		<path class="st0" d="M121.2,382.5c0,0.6-0.5,1-1,1s-1-0.5-1-1v-10.3c0-0.6,0.5-1,1-1s1,0.5,1,1V382.5z"/>
		<path class="st0" d="M122.9,377.4c0-4.3,2.1-6.3,5.6-6.3c2.2,0,3.6,0.9,4.3,1.9c0.1,0.2,0.2,0.4,0.2,0.6c0,0.5-0.4,1-1,1
			c-0.3,0-0.5-0.1-0.7-0.4c-0.7-0.8-1.5-1.3-2.8-1.3c-2.4,0-3.5,1.5-3.5,4.4c0,3.2,1.1,4.4,3.5,4.4c1.3,0,2.1-0.3,2.9-1.2
			c0.3-0.3,0.5-0.4,0.8-0.4c0.5,0,1,0.4,1,1c0,0.2-0.1,0.4-0.2,0.5c-0.9,1.2-2.6,1.9-4.5,1.9C124.9,383.7,122.9,381.8,122.9,377.4z"
			/>
		<path class="st0" d="M136.9,382.5c0,0.6-0.5,1-1,1s-1-0.5-1-1v-10.3c0-0.6,0.5-1,1-1s1,0.5,1,1V382.5z"/>
		<path class="st0" d="M141.5,380.3l-1.1,2.6c-0.2,0.4-0.5,0.7-1,0.7c-0.6,0-1-0.5-1-1c0-0.1,0-0.3,0.1-0.4l4.2-10.4
			c0.1-0.3,0.4-0.6,1-0.6s0.8,0.4,1,0.6l4.2,10.4c0.1,0.1,0.1,0.3,0.1,0.4c0,0.6-0.5,1-1,1s-0.8-0.3-1-0.7l-1.1-2.6H141.5z
			 M143.6,374.6l-1.5,3.8h3L143.6,374.6z"/>
		<path class="st0" d="M156.7,381.5c0.6,0,1,0.4,1,1s-0.4,1-1,1h-5.3c-0.6,0-1-0.4-1-1v-10.2c0-0.6,0.5-1,1-1s1,0.5,1,1v9.3
			L156.7,381.5L156.7,381.5z"/>
		<path class="st0" d="M167.4,372.9c-1.5,0-2.1,0.7-2.1,1.4c0,2.4,6.6,1.3,6.6,5.8c0,2.2-1.5,3.6-4.5,3.6c-2.1,0-3.9-1.1-4.6-2.2
			c-0.1-0.1-0.1-0.3-0.1-0.5c0-0.5,0.4-1,1-1c0.4,0,0.6,0.2,0.8,0.4c0.8,0.8,1.7,1.4,3,1.4c1.6,0,2.4-0.5,2.4-1.7
			c0-2.6-6.6-1.4-6.6-5.8c0-1.8,1.3-3.3,4.1-3.3c1.8,0,3.4,0.7,4.1,1.7c0.1,0.2,0.2,0.4,0.2,0.6c0,0.5-0.4,1-1,1
			c-0.3,0-0.5-0.1-0.8-0.4C169.3,373.4,168.4,372.9,167.4,372.9z"/>
		<path class="st0" d="M175.6,376.4h3.4c0.5,0,0.9,0.4,0.9,0.9s-0.4,0.9-0.9,0.9h-3.4v3.3h4.8c0.5,0,0.9,0.4,0.9,0.9
			s-0.4,0.9-0.9,0.9h-5.8c-0.6,0-1-0.5-1-1v-10c0-0.6,0.5-1,1-1h5.6c0.5,0,0.9,0.4,0.9,0.9s-0.4,0.9-0.9,0.9h-4.6V376.4z"/>
		<path class="st0" d="M189.3,381.5c0.6,0,1,0.4,1,1s-0.4,1-1,1H184c-0.6,0-1-0.4-1-1v-10.2c0-0.6,0.5-1,1-1s1,0.5,1,1v9.3
			L189.3,381.5L189.3,381.5z"/>
		<path class="st0" d="M193.9,376.4h3.4c0.5,0,0.9,0.4,0.9,0.9s-0.4,0.9-0.9,0.9h-3.4v3.3h4.8c0.5,0,0.9,0.4,0.9,0.9
			s-0.4,0.9-0.9,0.9h-5.8c-0.6,0-1-0.5-1-1v-10c0-0.6,0.5-1,1-1h5.6c0.5,0,0.9,0.4,0.9,0.9s-0.4,0.9-0.9,0.9h-4.6V376.4z"/>
		<path class="st0" d="M200.7,377.4c0-4.3,2.1-6.3,5.6-6.3c2.2,0,3.6,0.9,4.3,1.9c0.1,0.2,0.2,0.4,0.2,0.6c0,0.5-0.4,1-1,1
			c-0.3,0-0.5-0.1-0.7-0.4c-0.7-0.8-1.5-1.3-2.8-1.3c-2.4,0-3.5,1.5-3.5,4.4c0,3.2,1.1,4.4,3.5,4.4c1.3,0,2.1-0.3,2.9-1.2
			c0.3-0.3,0.5-0.4,0.8-0.4c0.5,0,1,0.4,1,1c0,0.2-0.1,0.4-0.2,0.5c-0.9,1.2-2.6,1.9-4.5,1.9C202.8,383.7,200.7,381.8,200.7,377.4z"
			/>
		<path class="st0" d="M217.8,373.2v9.4c0,0.6-0.5,1-1,1s-1-0.5-1-1v-9.4H213c-0.5,0-0.9-0.4-0.9-0.9s0.4-0.9,0.9-0.9h7.6
			c0.5,0,0.9,0.4,0.9,0.9s-0.4,0.9-0.9,0.9H217.8z"/>
		<path class="st0" d="M225,382.5c0,0.6-0.5,1-1,1s-1-0.5-1-1v-10.3c0-0.6,0.5-1,1-1s1,0.5,1,1V382.5z"/>
		<path class="st0" d="M226.7,377.4c0-4.3,2.1-6.3,5.7-6.3s5.7,2.1,5.7,6.3c0,4.2-2.1,6.3-5.7,6.3
			C228.8,383.7,226.7,381.6,226.7,377.4z M228.9,377.4c0,3,1.2,4.4,3.5,4.4c2.4,0,3.5-1.5,3.5-4.4c0-3-1.2-4.4-3.5-4.4
			C230,372.9,228.9,374.4,228.9,377.4z"/>
		<path class="st0" d="M248.9,372.2v10.4c0,0.6-0.5,1-1,1c-0.3,0-0.7-0.2-0.8-0.5l-5.3-7.7v7.1c0,0.6-0.5,1-1,1s-1-0.5-1-1v-10.4
			c0-0.6,0.5-1,1-1c0.4,0,0.6,0.2,0.8,0.4l5.3,7.7v-7.1c0-0.6,0.5-1,1-1C248.5,371.2,248.9,371.6,248.9,372.2z"/>
		<path class="st0" d="M102.1,392.4c3.4,0,5.5,1.5,5.5,5.7s-2.1,5.7-5.5,5.7h-2.3c-0.5,0-1-0.4-1-1v-9.5c0-0.5,0.4-1,1-1
			L102.1,392.4L102.1,392.4z M100.8,402.1h1.3c2.2,0,3.5-1,3.5-3.9c0-3-1.3-4-3.5-4h-1.3V402.1z"/>
		<path class="st0" d="M111.2,403c0,0.5-0.4,1-1,1s-1-0.4-1-1v-9.7c0-0.5,0.4-1,1-1s1,0.4,1,1V403z"/>
		<path class="st0" d="M115.2,403c0,0.5-0.4,1-1,1s-1-0.4-1-1v-9.6c0-0.5,0.4-1,1-1h5.3c0.5,0,0.9,0.4,0.9,0.9s-0.4,0.9-0.9,0.9
			h-4.3v3.1h3.2c0.5,0,0.9,0.4,0.9,0.9s-0.4,0.9-0.9,0.9h-3.2V403z"/>
		<path class="st0" d="M124.1,403c0,0.5-0.4,1-1,1s-1-0.4-1-1v-9.6c0-0.5,0.4-1,1-1h5.3c0.5,0,0.9,0.4,0.9,0.9s-0.4,0.9-0.9,0.9
			h-4.3v3.1h3.2c0.5,0,0.9,0.4,0.9,0.9s-0.4,0.9-0.9,0.9h-3.2V403z"/>
		<path class="st0" d="M133,397.2h3.2c0.5,0,0.9,0.4,0.9,0.9s-0.4,0.9-0.9,0.9H133v3.1h4.5c0.5,0,0.9,0.4,0.9,0.9s-0.4,0.9-0.9,0.9
			H132c-0.5,0-1-0.4-1-1v-9.5c0-0.5,0.4-1,1-1h5.3c0.5,0,0.9,0.4,0.9,0.9s-0.4,0.9-0.9,0.9H133V397.2z"/>
		<path class="st0" d="M141.9,399.5v3.5c0,0.5-0.4,1-1,1s-1-0.4-1-1v-9.6c0-0.5,0.4-1,1-1h3.2c2.3,0,3.6,1.6,3.6,3.6
			c0,1.6-1,3.2-2.6,3.4l2.5,3.1c0.2,0.2,0.2,0.4,0.2,0.6c0,0.5-0.4,1-1,1c-0.3,0-0.6-0.1-0.8-0.4l-3-4.2H141.9z M141.9,394.2v3.6
			h2.3c1.1,0,1.5-0.9,1.5-1.8s-0.5-1.8-1.6-1.8L141.9,394.2L141.9,394.2z"/>
		<path class="st0" d="M151.4,397.2h3.2c0.5,0,0.9,0.4,0.9,0.9s-0.4,0.9-0.9,0.9h-3.2v3.1h4.5c0.5,0,0.9,0.4,0.9,0.9
			s-0.4,0.9-0.9,0.9h-5.5c-0.5,0-1-0.4-1-1v-9.5c0-0.5,0.4-1,1-1h5.3c0.5,0,0.9,0.4,0.9,0.9s-0.4,0.9-0.9,0.9h-4.3V397.2z"/>
		<path class="st0" d="M166.9,393.2v9.8c0,0.5-0.4,1-1,1c-0.3,0-0.6-0.2-0.8-0.4l-5-7.2v6.7c0,0.5-0.4,1-1,1s-1-0.4-1-1v-9.8
			c0-0.5,0.4-1,1-1c0.3,0,0.6,0.2,0.8,0.4l5,7.3v-6.7c0-0.5,0.4-1,1-1S166.9,392.7,166.9,393.2z"/>
		<path class="st0" d="M173.7,394.1v8.9c0,0.5-0.4,1-1,1s-1-0.4-1-1v-8.9h-2.6c-0.5,0-0.9-0.4-0.9-0.9s0.4-0.9,0.9-0.9h7.2
			c0.5,0,0.9,0.4,0.9,0.9s-0.4,0.9-0.9,0.9H173.7z"/>
		<path class="st0" d="M190.1,399.4h-2.3c-0.5,0-0.9-0.4-0.9-0.9s0.4-0.9,0.9-0.9h3.3c0.5,0,0.9,0.4,0.9,0.9v2.7
			c0,0.4-0.1,0.6-0.3,0.9c-0.8,1.1-2.6,1.9-4.4,1.9c-3.4,0-5.3-1.8-5.3-5.9c0-4,1.9-6,5.3-6c2.1,0,3.4,0.8,4.1,1.8
			c0.1,0.2,0.2,0.4,0.2,0.6c0,0.5-0.4,0.9-0.9,0.9c-0.2,0-0.5-0.1-0.7-0.3c-0.7-0.8-1.4-1.2-2.7-1.2c-2.3,0-3.3,1.4-3.3,4.2
			c0,3,1,4.2,3.3,4.2c1.3,0,2.1-0.3,2.8-1V399.4z"/>
		<path class="st0" d="M196,400.9l-1,2.5c-0.2,0.4-0.5,0.6-0.9,0.6c-0.5,0-1-0.4-1-1c0-0.1,0-0.2,0.1-0.4l4-9.8
			c0.1-0.2,0.4-0.6,0.9-0.6s0.8,0.4,0.9,0.6l4,9.8c0.1,0.1,0.1,0.3,0.1,0.4c0,0.5-0.4,1-1,1c-0.4,0-0.8-0.3-0.9-0.6l-1-2.5H196z
			 M198,395.5l-1.4,3.6h2.8L198,395.5z"/>
		<path class="st0" d="M208.9,401.6l-2.7-4.7v6.2c0,0.5-0.4,1-1,1c-0.5,0-1-0.4-1-1v-9.8c0-0.5,0.4-1,1-1c0.4,0,0.7,0.2,0.9,0.5
			l3.6,6.5l3.6-6.5c0.2-0.3,0.4-0.5,0.9-0.5s1,0.4,1,1v9.8c0,0.5-0.4,1-1,1c-0.5,0-1-0.4-1-1v-6.2l-2.7,4.7
			c-0.2,0.3-0.5,0.5-0.8,0.5S209.1,401.9,208.9,401.6z"/>
		<path class="st0" d="M219.2,397.2h3.2c0.5,0,0.9,0.4,0.9,0.9s-0.4,0.9-0.9,0.9h-3.2v3.1h4.5c0.5,0,0.9,0.4,0.9,0.9
			s-0.4,0.9-0.9,0.9h-5.5c-0.5,0-1-0.4-1-1v-9.5c0-0.5,0.4-1,1-1h5.3c0.5,0,0.9,0.4,0.9,0.9s-0.4,0.9-0.9,0.9h-4.3V397.2z"/>
		<path class="st0" d="M230,393.9c-1.4,0-1.9,0.7-1.9,1.3c0,2.2,6.2,1.2,6.2,5.4c0,2.1-1.5,3.4-4.3,3.4c-2,0-3.6-1-4.3-2.1
			c-0.1-0.1-0.1-0.3-0.1-0.5c0-0.5,0.4-0.9,0.9-0.9c0.4,0,0.6,0.2,0.7,0.4c0.7,0.7,1.6,1.3,2.8,1.3c1.5,0,2.3-0.5,2.3-1.6
			c0-2.5-6.2-1.3-6.2-5.4c0-1.7,1.2-3.1,3.9-3.1c1.7,0,3.2,0.6,3.9,1.6c0.1,0.2,0.2,0.3,0.2,0.5c0,0.5-0.4,0.9-0.9,0.9
			c-0.2,0-0.5-0.1-0.7-0.4C231.9,394.3,231,393.9,230,393.9z"/>
		<path class="st0" d="M155.1,412.6c2.5,0,3.9,1.4,3.9,3.5c0,3.6-5.9,5-5.9,6.5h5.2c0.5,0,0.9,0.4,0.9,0.9s-0.4,0.9-0.9,0.9h-6.5
			c-0.5,0-0.9-0.4-0.9-0.9c0-3.8,6.1-4.1,6.1-7.3c0-1-0.7-1.8-2-1.8c-1.1,0-1.6,0.6-1.9,1.2c-0.2,0.4-0.5,0.5-0.9,0.5
			c-0.5,0-0.9-0.4-0.9-0.9c0-0.1,0-0.2,0.1-0.4C152,413.5,153.2,412.6,155.1,412.6z"/>
		<path class="st0" d="M169.4,418.5c0,4.1-1.4,6-4.4,6c-3.1,0-4.5-1.9-4.5-6s1.4-5.9,4.5-5.9C168,412.6,169.4,414.5,169.4,418.5z
			 M167.4,418.5c0-3-0.7-4.2-2.5-4.2s-2.5,1.3-2.5,4.2c0,3,0.8,4.2,2.5,4.2C166.7,422.8,167.4,421.5,167.4,418.5z"/>
		<path class="st0" d="M172,416c-0.2,0.1-0.3,0.2-0.6,0.2c-0.5,0-0.9-0.4-0.9-0.9c0-0.3,0.2-0.6,0.4-0.8l2.4-1.6
			c0.2-0.1,0.3-0.2,0.6-0.2c0.5,0,1,0.4,1,1v9.8c0,0.5-0.4,1-1,1c-0.5,0-1-0.4-1-1v-8.1L172,416z"/>
		<path class="st0" d="M185.4,420.5c0,2.8-1.8,4-4.3,4c-3,0-4.3-2.4-4.3-5.7c0-4.4,1.7-6.2,4.6-6.2c1.4,0,2.5,0.5,3,1
			c0.2,0.2,0.3,0.4,0.3,0.6c0,0.5-0.4,0.9-0.9,0.9c-0.1,0-0.3,0-0.5-0.2c-0.5-0.3-1-0.6-1.8-0.6c-1.7,0-2.6,1.2-2.6,3.4
			c0.5-0.6,1.5-1,2.6-1C183.8,416.6,185.4,418,185.4,420.5z M183.5,420.5c0-1.5-1-2.2-2.2-2.2s-2,0.6-2.4,1.4c0,1.9,0.8,3,2.3,3
			C182.5,422.8,183.5,422.2,183.5,420.5z"/>
	</g>
</g>
<g>
	<g>
		<path class="st0" d="M578.1,376.6c0-4.3,2.1-6.3,5.7-6.3c3.6,0,5.7,2.1,5.7,6.3c0,4.2-2.1,6.3-5.7,6.3
			C580.2,382.9,578.1,380.8,578.1,376.6z M580.3,376.6c0,3,1.2,4.4,3.5,4.4c2.4,0,3.5-1.5,3.5-4.4c0-3-1.2-4.4-3.5-4.4
			C581.4,372.1,580.3,373.6,580.3,376.6z"/>
		<path class="st0" d="M593.3,381.7c0,0.6-0.5,1-1,1s-1-0.5-1-1v-10.2c0-0.6,0.5-1,1-1h5.6c0.5,0,0.9,0.4,0.9,0.9s-0.4,0.9-0.9,0.9
			h-4.6v3.3h3.4c0.5,0,0.9,0.4,0.9,0.9s-0.4,0.9-0.9,0.9h-3.4V381.7z"/>
		<path class="st0" d="M602.7,381.7c0,0.6-0.5,1-1,1s-1-0.5-1-1v-10.2c0-0.6,0.5-1,1-1h5.6c0.5,0,0.9,0.4,0.9,0.9s-0.4,0.9-0.9,0.9
			h-4.6v3.3h3.4c0.5,0,0.9,0.4,0.9,0.9s-0.4,0.9-0.9,0.9h-3.4V381.7z"/>
		<path class="st0" d="M612.1,381.7c0,0.6-0.5,1-1,1s-1-0.5-1-1v-10.3c0-0.6,0.5-1,1-1s1,0.5,1,1V381.7z"/>
		<path class="st0" d="M613.8,376.6c0-4.3,2.1-6.3,5.6-6.3c2.2,0,3.6,0.9,4.3,1.9c0.1,0.2,0.2,0.4,0.2,0.6c0,0.5-0.4,1-1,1
			c-0.3,0-0.5-0.1-0.7-0.4c-0.7-0.8-1.5-1.3-2.8-1.3c-2.4,0-3.5,1.5-3.5,4.4c0,3.2,1.1,4.4,3.5,4.4c1.3,0,2.1-0.3,2.9-1.2
			c0.3-0.3,0.5-0.4,0.8-0.4c0.5,0,1,0.4,1,1c0,0.2-0.1,0.4-0.2,0.5c-0.9,1.2-2.6,1.9-4.5,1.9C615.9,382.9,613.8,381,613.8,376.6z"/>
		<path class="st0" d="M627.9,381.7c0,0.6-0.5,1-1,1s-1-0.5-1-1v-10.3c0-0.6,0.5-1,1-1s1,0.5,1,1V381.7z"/>
		<path class="st0" d="M632.4,379.5l-1.1,2.6c-0.2,0.4-0.5,0.7-1,0.7c-0.6,0-1-0.5-1-1c0-0.1,0-0.3,0.1-0.4l4.2-10.4
			c0.1-0.3,0.4-0.6,1-0.6s0.8,0.4,1,0.6l4.2,10.4c0.1,0.1,0.1,0.3,0.1,0.4c0,0.6-0.5,1-1,1s-0.8-0.3-1-0.7l-1.1-2.6H632.4z
			 M634.6,373.8l-1.5,3.8h3L634.6,373.8z"/>
		<path class="st0" d="M647.6,380.7c0.6,0,1,0.4,1,1s-0.4,1-1,1h-5.3c-0.6,0-1-0.4-1-1v-10.2c0-0.6,0.5-1,1-1s1,0.5,1,1v9.3
			L647.6,380.7L647.6,380.7z"/>
		<path class="st0" d="M658.3,372.1c-1.5,0-2.1,0.7-2.1,1.4c0,2.4,6.6,1.3,6.6,5.8c0,2.2-1.5,3.6-4.5,3.6c-2.1,0-3.9-1.1-4.6-2.2
			c-0.1-0.1-0.1-0.3-0.1-0.5c0-0.5,0.4-1,1-1c0.4,0,0.6,0.2,0.8,0.4c0.8,0.8,1.7,1.4,3,1.4c1.6,0,2.4-0.5,2.4-1.7
			c0-2.6-6.6-1.4-6.6-5.8c0-1.8,1.3-3.3,4.1-3.3c1.8,0,3.4,0.7,4.1,1.7c0.1,0.2,0.2,0.4,0.2,0.6c0,0.5-0.4,1-1,1
			c-0.3,0-0.5-0.1-0.8-0.4C660.3,372.6,659.4,372.1,658.3,372.1z"/>
		<path class="st0" d="M666.6,375.6h3.4c0.5,0,0.9,0.4,0.9,0.9s-0.4,0.9-0.9,0.9h-3.4v3.3h4.8c0.5,0,0.9,0.4,0.9,0.9
			s-0.4,0.9-0.9,0.9h-5.8c-0.6,0-1-0.5-1-1v-10c0-0.6,0.5-1,1-1h5.6c0.5,0,0.9,0.4,0.9,0.9s-0.4,0.9-0.9,0.9h-4.6V375.6z"/>
		<path class="st0" d="M680.3,380.7c0.6,0,1,0.4,1,1s-0.4,1-1,1H675c-0.6,0-1-0.4-1-1v-10.2c0-0.6,0.5-1,1-1s1,0.5,1,1v9.3
			L680.3,380.7L680.3,380.7z"/>
		<path class="st0" d="M684.8,375.6h3.4c0.5,0,0.9,0.4,0.9,0.9s-0.4,0.9-0.9,0.9h-3.4v3.3h4.8c0.5,0,0.9,0.4,0.9,0.9
			s-0.4,0.9-0.9,0.9h-5.8c-0.6,0-1-0.5-1-1v-10c0-0.6,0.5-1,1-1h5.6c0.5,0,0.9,0.4,0.9,0.9s-0.4,0.9-0.9,0.9h-4.6V375.6z"/>
		<path class="st0" d="M691.7,376.6c0-4.3,2.1-6.3,5.6-6.3c2.2,0,3.6,0.9,4.3,1.9c0.1,0.2,0.2,0.4,0.2,0.6c0,0.5-0.4,1-1,1
			c-0.3,0-0.5-0.1-0.7-0.4c-0.7-0.8-1.5-1.3-2.8-1.3c-2.4,0-3.5,1.5-3.5,4.4c0,3.2,1.1,4.4,3.5,4.4c1.3,0,2.1-0.3,2.9-1.2
			c0.3-0.3,0.5-0.4,0.8-0.4c0.5,0,1,0.4,1,1c0,0.2-0.1,0.4-0.2,0.5c-0.9,1.2-2.6,1.9-4.5,1.9C693.7,382.9,691.7,381,691.7,376.6z"/>
		<path class="st0" d="M708.7,372.4v9.4c0,0.6-0.5,1-1,1s-1-0.5-1-1v-9.4h-2.8c-0.5,0-0.9-0.4-0.9-0.9s0.4-0.9,0.9-0.9h7.6
			c0.5,0,0.9,0.4,0.9,0.9s-0.4,0.9-0.9,0.9H708.7z"/>
		<path class="st0" d="M716,381.7c0,0.6-0.5,1-1,1s-1-0.5-1-1v-10.3c0-0.6,0.5-1,1-1s1,0.5,1,1V381.7z"/>
		<path class="st0" d="M717.7,376.6c0-4.3,2.1-6.3,5.7-6.3c3.6,0,5.7,2.1,5.7,6.3c0,4.2-2.1,6.3-5.7,6.3
			C719.7,382.9,717.7,380.8,717.7,376.6z M719.8,376.6c0,3,1.2,4.4,3.5,4.4c2.4,0,3.5-1.5,3.5-4.4c0-3-1.2-4.4-3.5-4.4
			C721,372.1,719.8,373.6,719.8,376.6z"/>
		<path class="st0" d="M739.9,371.4v10.4c0,0.6-0.5,1-1,1c-0.3,0-0.7-0.2-0.8-0.5l-5.3-7.7v7.1c0,0.6-0.5,1-1,1s-1-0.5-1-1v-10.4
			c0-0.6,0.5-1,1-1c0.4,0,0.6,0.2,0.8,0.4l5.3,7.7v-7.1c0-0.6,0.5-1,1-1C739.4,370.4,739.9,370.8,739.9,371.4z"/>
		<path class="st0" d="M641.8,402.9h4.7c0.7,0,1.3,0.6,1.3,1.3s-0.6,1.3-1.3,1.3h-4.7v4.6h6.6c0.7,0,1.3,0.6,1.3,1.3
			s-0.6,1.3-1.3,1.3h-8.1c-0.8,0-1.4-0.6-1.4-1.4v-13.9c0-0.8,0.6-1.4,1.4-1.4h7.8c0.7,0,1.3,0.6,1.3,1.3c0,0.7-0.6,1.3-1.3,1.3
			h-6.3V402.9z"/>
		<path class="st0" d="M663.3,406.2h-3.4c-0.7,0-1.3-0.6-1.3-1.3c0-0.7,0.6-1.3,1.3-1.3h4.8c0.7,0,1.4,0.6,1.4,1.3v4
			c0,0.6-0.1,1-0.4,1.3c-1.2,1.6-3.8,2.7-6.5,2.7c-5,0-7.8-2.6-7.8-8.7c0-5.9,2.8-8.8,7.8-8.8c3,0,5,1.2,6,2.7
			c0.2,0.3,0.3,0.6,0.3,0.8c0,0.7-0.6,1.3-1.3,1.3c-0.3,0-0.7-0.2-1-0.5c-1-1.1-2.1-1.8-3.9-1.8c-3.3,0-4.8,2-4.8,6.2
			c0,4.4,1.5,6.1,4.8,6.1c1.8,0,3.1-0.4,4.1-1.4L663.3,406.2L663.3,406.2z"/>
		<path class="st0" d="M674.2,406.5l-3.8,5.7c-0.3,0.4-0.7,0.7-1.2,0.7c-0.8,0-1.5-0.7-1.5-1.4c0-0.3,0.1-0.6,0.2-0.8l4.7-6.5
			l-4.3-6.1c-0.2-0.2-0.3-0.5-0.3-0.9c0-0.8,0.7-1.4,1.5-1.4c0.5,0,0.9,0.2,1.2,0.6l3.6,5.3l3.6-5.3c0.3-0.4,0.7-0.6,1.2-0.6
			c0.8,0,1.5,0.6,1.5,1.4c0,0.3-0.1,0.6-0.3,0.9l-4.3,6.1l4.7,6.5c0.2,0.2,0.2,0.5,0.2,0.8c0,0.8-0.6,1.4-1.4,1.4
			c-0.5,0-0.9-0.2-1.2-0.7L674.2,406.5z"/>
		<path class="st0" d="M646.1,421.4c2.5,0,3.9,1.4,3.9,3.5c0,3.6-5.9,5-5.9,6.5h5.2c0.5,0,0.9,0.4,0.9,0.9s-0.4,0.9-0.9,0.9h-6.5
			c-0.5,0-0.9-0.4-0.9-0.9c0-3.8,6.1-4.1,6.1-7.3c0-1-0.7-1.8-2-1.8c-1.1,0-1.6,0.6-1.9,1.2c-0.2,0.4-0.5,0.5-0.8,0.5
			c-0.5,0-0.9-0.4-0.9-0.9c0-0.1,0-0.2,0.1-0.4C643,422.3,644.2,421.4,646.1,421.4z"/>
		<path class="st0" d="M660.3,427.3c0,4.1-1.4,6-4.4,6c-3.1,0-4.5-1.9-4.5-6s1.4-5.9,4.5-5.9C658.9,421.4,660.3,423.3,660.3,427.3z
			 M658.4,427.3c0-3-0.7-4.2-2.5-4.2s-2.5,1.3-2.5,4.2c0,3,0.8,4.2,2.5,4.2S658.4,430.3,658.4,427.3z"/>
		<path class="st0" d="M663,424.8c-0.2,0.1-0.3,0.2-0.6,0.2c-0.5,0-0.9-0.4-0.9-0.9c0-0.3,0.2-0.6,0.4-0.8l2.4-1.6
			c0.2-0.1,0.3-0.2,0.6-0.2c0.5,0,1,0.4,1,1v9.8c0,0.5-0.4,1-1,1s-1-0.4-1-1v-8.1L663,424.8z"/>
		<path class="st0" d="M676.4,429.3c0,2.8-1.8,4-4.3,4c-3,0-4.3-2.4-4.3-5.7c0-4.4,1.7-6.2,4.6-6.2c1.4,0,2.5,0.5,3,1
			c0.2,0.2,0.3,0.4,0.3,0.6c0,0.5-0.4,0.9-0.9,0.9c-0.1,0-0.3,0-0.5-0.2c-0.5-0.3-1-0.6-1.8-0.6c-1.7,0-2.6,1.2-2.6,3.4
			c0.5-0.6,1.5-1,2.6-1C674.7,425.4,676.4,426.8,676.4,429.3z M674.5,429.3c0-1.5-1-2.2-2.2-2.2s-2,0.6-2.4,1.4c0,1.9,0.8,3,2.3,3
			C673.5,431.6,674.5,431,674.5,429.3z"/>
	</g>
</g>
</svg>
