<?xml version="1.0" encoding="utf-8"?>
<!-- Generator: Adobe Illustrator 19.1.0, SVG Export Plug-In . SVG Version: 6.00 Build 0)  -->
<svg version="1.1" id="Layer_1" xmlns="http://www.w3.org/2000/svg" xmlns:xlink="http://www.w3.org/1999/xlink" x="0px" y="0px"
	 viewBox="55 348.6 721.6 125" style="enable-background:new 55 348.6 721.6 125;" xml:space="preserve">
<style type="text/css">
	.st0{fill:#FFFFFF;}
</style>
<g>
	<path class="st0" d="M127.5,464.7c-8.1,0-16.1-1.5-23.5-4.5c-24.1-9.5-39.7-32.9-39.7-59.7c0-21.1,9.2-39.9,25.2-51.7
		c0.7-0.5,1.6-0.3,2.1,0.3c0.5,0.7,0.3,1.6-0.3,2.1c-15.2,11.2-24,29.2-24,49.3c0,25.5,14.8,47.9,37.7,56.9
		c7.1,2.8,14.7,4.2,22.4,4.2c0.8,0,1.5,0.7,1.5,1.5S128.3,464.7,127.5,464.7z"/>
</g>
<g>
	<g>
		<path class="st0" d="M78.3,357.6L78.3,357.6c-1.1,0-2.1-0.9-2.1-2L76,350c0-1.1,0.9-2.1,2-2.1l0,0c1.1,0,2.1,0.9,2.1,2l0.2,5.6
			C80.3,356.6,79.5,357.5,78.3,357.6z"/>
	</g>
	<g>
		<path class="st0" d="M83.2,362.1L83.2,362.1c0-1.1,0.9-2.1,2-2.1l5.6-0.2c1.1,0,2.1,0.9,2.1,2l0,0c0,1.1-0.9,2.1-2,2.1l-5.6,0.2
			C84.2,364.1,83.3,363.2,83.2,362.1z"/>
	</g>
</g>
<g>
	<g>
		<path class="st0" d="M69.7,370.5L69.7,370.5c-1.1,0.4-2.3-0.2-2.6-1.2l-1.9-5.3c-0.4-1.1,0.2-2.3,1.2-2.6l0,0
			c1.1-0.4,2.3,0.2,2.6,1.2l1.9,5.3C71.3,368.9,70.8,370.1,69.7,370.5z"/>
	</g>
	<g>
		<path class="st0" d="M75.8,373.3L75.8,373.3c-0.4-1.1,0.2-2.3,1.2-2.6l5.3-1.9c1.1-0.4,2.3,0.2,2.6,1.2l0,0
			c0.4,1.1-0.2,2.3-1.2,2.6l-5.3,1.9C77.3,374.9,76.1,374.4,75.8,373.3z"/>
	</g>
</g>
<g>
	<g>
		<path class="st0" d="M63.7,384.3L63.7,384.3c-1,0.5-2.2,0.2-2.8-0.8l-2.7-5c-0.6-1-0.2-2.2,0.8-2.8l0,0c1-0.5,2.2-0.2,2.8,0.8
			l2.7,5C65,382.5,64.7,383.7,63.7,384.3z"/>
	</g>
	<g>
		<path class="st0" d="M70.1,386.1L70.1,386.1c-0.5-1-0.2-2.2,0.8-2.8l4.9-2.7c1-0.5,2.2-0.2,2.8,0.8l0,0c0.5,1,0.2,2.2-0.8,2.8
			l-4.9,2.7C71.9,387.5,70.6,387.1,70.1,386.1z"/>
	</g>
</g>
<g>
	<g>
		<path class="st0" d="M61.8,399.4L61.8,399.4c-0.9,0.7-2.2,0.5-2.9-0.4l-3.5-4.4c-0.7-0.9-0.5-2.2,0.4-2.9l0,0
			c0.9-0.7,2.2-0.5,2.9,0.4l3.4,4.4C62.8,397.4,62.7,398.7,61.8,399.4z"/>
	</g>
	<g>
		<path class="st0" d="M68.4,400.2L68.4,400.2c-0.7-0.9-0.5-2.2,0.4-2.9l4.4-3.5c0.9-0.7,2.2-0.5,2.9,0.4l0,0
			c0.7,0.9,0.5,2.2-0.4,2.9l-4.4,3.5C70.4,401.3,69.1,401.1,68.4,400.2z"/>
	</g>
</g>
<g>
	<g>
		<path class="st0" d="M64.9,414.9L64.9,414.9c-0.6,1-1.8,1.3-2.8,0.8l-4.9-2.8c-1-0.6-1.3-1.8-0.8-2.8l0,0c0.6-1,1.8-1.3,2.8-0.8
			l4.9,2.8C65.1,412.7,65.4,413.9,64.9,414.9z"/>
	</g>
	<g>
		<path class="st0" d="M71.3,413.2L71.3,413.2c-1-0.6-1.3-1.8-0.8-2.8l2.8-4.9c0.6-1,1.8-1.3,2.8-0.8l0,0c1,0.6,1.3,1.8,0.8,2.8
			l-2.8,4.9C73.6,413.4,72.3,413.7,71.3,413.2z"/>
	</g>
</g>
<g>
	<g>
		<path class="st0" d="M68.2,429.2L68.2,429.2c-0.6,1-1.8,1.3-2.8,0.8l-4.9-2.8c-1-0.6-1.3-1.8-0.8-2.8l0,0c0.6-1,1.8-1.3,2.8-0.8
			l4.9,2.8C68.4,426.9,68.7,428.2,68.2,429.2z"/>
	</g>
	<g>
		<path class="st0" d="M74.6,427.5L74.6,427.5c-1-0.6-1.3-1.8-0.8-2.8l2.8-4.9c0.6-1,1.8-1.3,2.8-0.8l0,0c1,0.6,1.3,1.8,0.8,2.8
			l-2.8,4.9C76.9,427.7,75.6,428,74.6,427.5z"/>
	</g>
</g>
<g>
	<g>
		<path class="st0" d="M77.3,442.2L77.3,442.2c-0.1,1.1-1.2,1.9-2.3,1.8l-5.6-0.7c-1.1-0.1-1.9-1.2-1.8-2.3l0,0
			c0.1-1.1,1.2-1.9,2.3-1.8l5.6,0.7C76.6,440.1,77.4,441.1,77.3,442.2z"/>
	</g>
	<g>
		<path class="st0" d="M82.5,438.1L82.5,438.1c-1.1-0.1-1.9-1.2-1.8-2.3l0.7-5.6c0.1-1.1,1.2-1.9,2.3-1.8l0,0
			c1.1,0.1,1.9,1.2,1.8,2.3l-0.7,5.6C84.7,437.4,83.7,438.2,82.5,438.1z"/>
	</g>
</g>
<g>
	<g>
		<path class="st0" d="M88.3,453.3L88.3,453.3c0.3,1.1-0.4,2.2-1.5,2.5l-5.5,1.4c-1.1,0.3-2.2-0.4-2.5-1.5l0,0
			c-0.3-1.1,0.4-2.2,1.5-2.5l5.5-1.4C86.9,451.5,88,452.2,88.3,453.3z"/>
	</g>
	<g>
		<path class="st0" d="M91.7,447.5L91.7,447.5c-1.1,0.3-2.2-0.4-2.5-1.5l-1.4-5.5c-0.3-1.1,0.4-2.2,1.5-2.5l0,0
			c1.1-0.3,2.2,0.4,2.5,1.5l1.4,5.5C93.5,446.1,92.8,447.3,91.7,447.5z"/>
	</g>
</g>
<g>
	<g>
		<path class="st0" d="M100.7,461.2L100.7,461.2c0.3,1.1-0.4,2.2-1.5,2.5l-5.5,1.4c-1.1,0.3-2.2-0.4-2.5-1.5l0,0
			c-0.3-1.1,0.4-2.2,1.5-2.5l5.5-1.4C99.3,459.4,100.4,460.1,100.7,461.2z"/>
	</g>
	<g>
		<path class="st0" d="M104.1,455.4L104.1,455.4c-1.1,0.3-2.2-0.4-2.5-1.5l-1.4-5.5c-0.3-1.1,0.4-2.2,1.5-2.5l0,0
			c1.1-0.3,2.2,0.4,2.5,1.5l1.4,5.5C105.8,454,105.2,455.2,104.1,455.4z"/>
	</g>
</g>
<g>
	<g>
		<path class="st0" d="M116.1,464.8L116.1,464.8c0.7,0.9,0.6,2.2-0.3,2.9l-4.4,3.5c-0.9,0.7-2.2,0.6-2.9-0.3l0,0
			c-0.7-0.9-0.6-2.2,0.3-2.9l4.4-3.5C114.1,463.7,115.4,463.9,116.1,464.8z"/>
	</g>
	<g>
		<path class="st0" d="M116.8,458.1L116.8,458.1c-0.9,0.7-2.2,0.6-2.9-0.3l-3.5-4.4c-0.7-0.9-0.6-2.2,0.3-2.9l0,0
			c0.9-0.7,2.2-0.6,2.9,0.3l3.5,4.4C117.8,456.1,117.7,457.4,116.8,458.1z"/>
	</g>
</g>
<g>
	<g>
		<path class="st0" d="M130.6,466.9L130.6,466.9c0.7,0.9,0.6,2.2-0.3,2.9l-4.4,3.5c-0.9,0.7-2.2,0.6-2.9-0.3l0,0
			c-0.7-0.9-0.6-2.2,0.3-2.9l4.4-3.5C128.6,465.8,129.9,466,130.6,466.9z"/>
	</g>
	<g>
		<path class="st0" d="M131.3,460.2L131.3,460.2c-0.9,0.7-2.2,0.6-2.9-0.3l-3.5-4.4c-0.7-0.9-0.6-2.2,0.3-2.9l0,0
			c0.9-0.7,2.2-0.6,2.9,0.3l3.5,4.4C132.3,458.2,132.2,459.5,131.3,460.2z"/>
	</g>
</g>
<g>
	<path class="st0" d="M214.3,464.7c-0.8,0-1.5-0.7-1.5-1.5c0-0.8,0.7-1.5,1.5-1.5c7.8,0,15.3-1.4,22.4-4.2
		c22.9-9,37.7-31.4,37.7-56.9c0-20.1-8.7-38.1-23.9-49.3c-0.7-0.5-0.8-1.4-0.3-2.1c0.5-0.7,1.4-0.8,2.1-0.3
		c16,11.8,25.2,30.6,25.2,51.7c0,26.8-15.6,50.2-39.6,59.7C230.3,463.2,222.4,464.7,214.3,464.7z"/>
</g>
<g>
	<g>
		<path class="st0" d="M258.9,362.1L258.9,362.1c0,1.1-0.9,2.1-2,2.1l-5.6,0.2c-1.1,0-2.1-0.9-2.1-2l0,0c0-1.1,0.9-2.1,2-2.1
			l5.6-0.2C257.9,360.1,258.9,361,258.9,362.1z"/>
	</g>
	<g>
		<path class="st0" d="M263.5,357.2L263.5,357.2c-1.1,0-2.1-0.9-2.1-2l-0.2-5.6c0-1.1,0.9-2.1,2-2.1l0,0c1.1,0,2.1,0.9,2.1,2
			l0.2,5.6C265.5,356.3,264.6,357.2,263.5,357.2z"/>
	</g>
</g>
<g>
	<g>
		<path class="st0" d="M266.3,373.4L266.3,373.4c-0.3,1.1-1.4,1.7-2.5,1.4l-5.4-1.5c-1.1-0.3-1.7-1.4-1.4-2.5l0,0
			c0.3-1.1,1.4-1.7,2.5-1.4l5.4,1.5C266,371.2,266.7,372.3,266.3,373.4z"/>
	</g>
	<g>
		<path class="st0" d="M272.2,370.1L272.2,370.1c-1.1-0.3-1.7-1.4-1.4-2.5l1.5-5.4c0.3-1.1,1.4-1.7,2.5-1.4l0,0
			c1.1,0.3,1.7,1.4,1.4,2.5l-1.5,5.4C274.4,369.8,273.3,370.4,272.2,370.1z"/>
	</g>
</g>
<g>
	<g>
		<path class="st0" d="M272,386.3L272,386.3c-0.5,1-1.7,1.5-2.7,1l-5.1-2.4c-1-0.5-1.5-1.7-1-2.7l0,0c0.5-1,1.7-1.5,2.7-1l5.1,2.4
			C272,384,272.5,385.3,272,386.3z"/>
	</g>
	<g>
		<path class="st0" d="M278.3,384L278.3,384c-1-0.5-1.5-1.7-1-2.7l2.4-5.1c0.5-1,1.7-1.5,2.7-1l0,0c1,0.5,1.5,1.7,1,2.7L281,383
			C280.5,384,279.3,384.5,278.3,384z"/>
	</g>
</g>
<g>
	<g>
		<path class="st0" d="M273.7,400.4L273.7,400.4c-0.6,0.9-1.9,1.2-2.9,0.6l-4.7-3.1c-0.9-0.6-1.2-1.9-0.6-2.9l0,0
			c0.6-0.9,1.9-1.2,2.9-0.6l4.7,3.1C274,398.2,274.3,399.5,273.7,400.4z"/>
	</g>
	<g>
		<path class="st0" d="M280.2,399.1L280.2,399.1c-0.9-0.6-1.2-1.9-0.6-2.9l3.1-4.7c0.6-0.9,1.9-1.2,2.9-0.6l0,0
			c0.9,0.6,1.2,1.9,0.6,2.9l-3.1,4.7C282.4,399.5,281.1,399.7,280.2,399.1z"/>
	</g>
</g>
<g>
	<g>
		<path class="st0" d="M270.6,413.5L270.6,413.5c-0.9,0.6-2.2,0.4-2.9-0.6l-3.1-4.7c-0.6-0.9-0.4-2.2,0.6-2.9l0,0
			c0.9-0.6,2.2-0.4,2.9,0.6l3.1,4.7C271.8,411.5,271.6,412.8,270.6,413.5z"/>
	</g>
	<g>
		<path class="st0" d="M277.2,414.7L277.2,414.7c-0.6-0.9-0.4-2.2,0.6-2.9l4.7-3.1c0.9-0.6,2.2-0.4,2.9,0.6l0,0
			c0.6,0.9,0.4,2.2-0.6,2.9l-4.7,3.1C279.1,415.9,277.8,415.7,277.2,414.7z"/>
	</g>
</g>
<g>
	<g>
		<path class="st0" d="M267.3,427.7L267.3,427.7c-0.9,0.6-2.2,0.4-2.9-0.6l-3.1-4.7c-0.6-0.9-0.4-2.2,0.6-2.9l0,0
			c0.9-0.6,2.2-0.4,2.9,0.6l3.1,4.7C268.5,425.8,268.3,427.1,267.3,427.7z"/>
	</g>
	<g>
		<path class="st0" d="M273.9,429L273.9,429c-0.6-0.9-0.4-2.2,0.6-2.9l4.7-3.1c0.9-0.6,2.2-0.4,2.9,0.6l0,0c0.6,0.9,0.4,2.2-0.6,2.9
			l-4.7,3.1C275.8,430.2,274.5,430,273.9,429z"/>
	</g>
</g>
<g>
	<g>
		<path class="st0" d="M259.3,438.4L259.3,438.4c-1.1,0.2-2.2-0.5-2.4-1.6l-1.1-5.5c-0.2-1.1,0.5-2.2,1.6-2.4l0,0
			c1.1-0.2,2.2,0.5,2.4,1.6l1.1,5.5C261.1,437.1,260.4,438.2,259.3,438.4z"/>
	</g>
	<g>
		<path class="st0" d="M264.8,442.2L264.8,442.2c-0.2-1.1,0.5-2.2,1.6-2.4l5.5-1.1c1.1-0.2,2.2,0.5,2.4,1.6l0,0
			c0.2,1.1-0.5,2.2-1.6,2.4l-5.5,1.1C266.1,444,265,443.3,264.8,442.2z"/>
	</g>
</g>
<g>
	<g>
		<path class="st0" d="M250,447.9L250,447.9c-1.1-0.2-1.9-1.3-1.7-2.4l1-5.5c0.2-1.1,1.3-1.9,2.4-1.7l0,0c1.1,0.2,1.9,1.3,1.7,2.4
			l-1,5.5C252.2,447.3,251.1,448.1,250,447.9z"/>
	</g>
	<g>
		<path class="st0" d="M253.8,453.4L253.8,453.4c0.2-1.1,1.3-1.9,2.4-1.7l5.5,1c1.1,0.2,1.9,1.3,1.7,2.4l0,0
			c-0.2,1.1-1.3,1.9-2.4,1.7l-5.5-1C254.3,455.5,253.6,454.5,253.8,453.4z"/>
	</g>
</g>
<g>
	<g>
		<path class="st0" d="M237.7,455.8L237.7,455.8c-1.1-0.2-1.9-1.3-1.7-2.4l1-5.5c0.2-1.1,1.3-1.9,2.4-1.7l0,0
			c1.1,0.2,1.9,1.3,1.7,2.4l-1,5.5C239.8,455.2,238.8,456,237.7,455.8z"/>
	</g>
	<g>
		<path class="st0" d="M241.4,461.3L241.4,461.3c0.2-1.1,1.3-1.9,2.4-1.7l5.5,1c1.1,0.2,1.9,1.3,1.7,2.4l0,0
			c-0.2,1.1-1.3,1.9-2.4,1.7l-5.5-1C242,463.4,241.2,462.4,241.4,461.3z"/>
	</g>
</g>
<g>
	<g>
		<path class="st0" d="M224.8,458.4L224.8,458.4c-0.9-0.6-1.2-1.9-0.5-2.9l3.2-4.6c0.6-0.9,1.9-1.2,2.9-0.5l0,0
			c0.9,0.6,1.2,1.9,0.5,2.9l-3.2,4.6C227,458.8,225.7,459,224.8,458.4z"/>
	</g>
	<g>
		<path class="st0" d="M226,465L226,465c0.6-0.9,1.9-1.2,2.9-0.5l4.6,3.2c0.9,0.6,1.2,1.9,0.5,2.9l0,0c-0.6,0.9-1.9,1.2-2.9,0.5
			l-4.6-3.2C225.6,467.2,225.3,465.9,226,465z"/>
	</g>
</g>
<g>
	<g>
		<path class="st0" d="M210.3,460.5L210.3,460.5c-0.9-0.6-1.2-1.9-0.5-2.9l3.2-4.6c0.6-0.9,1.9-1.2,2.9-0.5l0,0
			c0.9,0.6,1.2,1.9,0.5,2.9l-3.2,4.6C212.5,460.9,211.2,461.2,210.3,460.5z"/>
	</g>
	<g>
		<path class="st0" d="M211.5,467.1L211.5,467.1c0.6-0.9,1.9-1.2,2.9-0.5l4.6,3.2c0.9,0.6,1.2,1.9,0.5,2.9l0,0
			c-0.6,0.9-1.9,1.2-2.9,0.5L212,470C211.1,469.3,210.8,468,211.5,467.1z"/>
	</g>
</g>
<g>
	<path class="st0" d="M134,444.1c0,0.7-0.6,1.2-1.2,1.2s-1.2-0.6-1.2-1.2v-12.3c0-0.7,0.6-1.2,1.2-1.2s1.2,0.6,1.2,1.2V444.1z"/>
	<path class="st0" d="M146.3,439.6h-2.9c-0.6,0-1.1-0.5-1.1-1.1s0.5-1.1,1.1-1.1h4.2c0.6,0,1.2,0.5,1.2,1.1v3.4
		c0,0.5-0.1,0.8-0.4,1.1c-1,1.4-3.3,2.3-5.6,2.3c-4.3,0-6.7-2.3-6.7-7.5c0-5.1,2.4-7.5,6.7-7.5c2.6,0,4.3,1,5.2,2.3
		c0.2,0.3,0.2,0.5,0.2,0.7c0,0.6-0.5,1.1-1.2,1.1c-0.3,0-0.6-0.1-0.9-0.4c-0.9-1-1.8-1.5-3.4-1.5c-2.9,0-4.1,1.8-4.1,5.3
		c0,3.8,1.3,5.3,4.1,5.3c1.6,0,2.7-0.4,3.5-1.2L146.3,439.6L146.3,439.6L146.3,439.6z"/>
	<path class="st0" d="M153.6,444.1c0,0.7-0.6,1.2-1.2,1.2s-1.2-0.6-1.2-1.2V432c0-0.7,0.6-1.2,1.2-1.2h6.7c0.6,0,1.1,0.5,1.1,1.1
		s-0.5,1.1-1.1,1.1h-5.5v4h4.1c0.6,0,1.1,0.5,1.1,1.1s-0.5,1.1-1.1,1.1h-4.1V444.1z"/>
	<path class="st0" d="M171.9,430.4c3.1,0,5,1.8,5,4.4c0,4.5-7.5,6.3-7.5,8.2h6.6c0.6,0,1.1,0.5,1.1,1.1s-0.5,1.1-1.1,1.1h-8.2
		c-0.6,0-1.1-0.5-1.1-1.1c0-4.7,7.7-5.2,7.7-9.3c0-1.2-0.9-2.3-2.5-2.3c-1.3,0-2.1,0.7-2.4,1.5c-0.2,0.5-0.6,0.7-1.1,0.7
		c-0.6,0-1.2-0.5-1.2-1.2c0-0.2,0-0.3,0.1-0.5C168,431.6,169.5,430.4,171.9,430.4z"/>
	<path class="st0" d="M189.9,438c0,5.2-1.8,7.5-5.6,7.5c-3.9,0-5.6-2.4-5.6-7.5s1.8-7.5,5.6-7.5C188.2,430.4,189.9,432.8,189.9,438z
		 M187.5,438c0-3.7-0.9-5.4-3.2-5.4c-2.3,0-3.2,1.6-3.2,5.4c0,3.8,1,5.4,3.2,5.4C186.5,443.4,187.5,441.7,187.5,438z"/>
	<path class="st0" d="M193.3,434.8c-0.2,0.2-0.4,0.2-0.7,0.2c-0.6,0-1.2-0.5-1.2-1.2c0-0.4,0.2-0.8,0.5-1l3.1-2
		c0.2-0.2,0.4-0.3,0.8-0.3c0.7,0,1.2,0.6,1.2,1.2v12.4c0,0.7-0.6,1.2-1.2,1.2s-1.2-0.6-1.2-1.2v-10.2L193.3,434.8z"/>
	<path class="st0" d="M210.2,440.5c0,3.5-2.3,5-5.4,5c-3.8,0-5.4-3-5.4-7.2c0-5.5,2.1-7.8,5.8-7.8c1.8,0,3.1,0.6,3.7,1.2
		c0.3,0.3,0.4,0.6,0.4,0.8c0,0.6-0.5,1.1-1.1,1.1c-0.2,0-0.4,0-0.7-0.2c-0.6-0.4-1.2-0.8-2.3-0.8c-2.1,0-3.3,1.5-3.3,4.3
		c0.7-0.7,1.9-1.3,3.3-1.3C208.1,435.6,210.2,437.3,210.2,440.5z M207.8,440.5c0-1.8-1.3-2.7-2.8-2.7s-2.5,0.8-3.1,1.8
		c0,2.4,1.1,3.8,2.9,3.8C206.5,443.3,207.8,442.6,207.8,440.5z"/>
</g>
<g>
	<path class="st0" d="M372.6,464.7c-8.1,0-16.1-1.5-23.5-4.5c-24.1-9.5-39.6-32.9-39.6-59.7c0-21.1,9.2-39.9,25.2-51.7
		c0.7-0.5,1.6-0.3,2.1,0.3s0.3,1.6-0.3,2.1c-15.2,11.2-23.9,29.2-23.9,49.3c0,25.5,14.8,47.9,37.7,56.9c7.1,2.8,14.7,4.2,22.4,4.2
		c0.8,0,1.5,0.7,1.5,1.5C374.2,463.9,373.4,464.7,372.6,464.7z"/>
</g>
<g>
	<g>
		<path class="st0" d="M323.4,357.6L323.4,357.6c-1.1,0-2.1-0.9-2.1-2L321,350c0-1.1,0.9-2.1,2-2.1l0,0c1.1,0,2.1,0.9,2.1,2l0.2,5.6
			C325.4,356.6,324.5,357.5,323.4,357.6z"/>
	</g>
	<g>
		<path class="st0" d="M328.3,362.1L328.3,362.1c0-1.1,0.9-2.1,2-2.1l5.6-0.2c1.1,0,2.1,0.9,2.1,2l0,0c0,1.1-0.9,2.1-2,2.1l-5.6,0.2
			C329.3,364.1,328.3,363.2,328.3,362.1z"/>
	</g>
</g>
<g>
	<g>
		<path class="st0" d="M314.8,370.5L314.8,370.5c-1.1,0.4-2.3-0.2-2.6-1.2l-1.9-5.3c-0.4-1.1,0.2-2.3,1.2-2.6l0,0
			c1.1-0.4,2.3,0.2,2.6,1.2l1.9,5.3C316.4,368.9,315.8,370.1,314.8,370.5z"/>
	</g>
	<g>
		<path class="st0" d="M320.8,373.3L320.8,373.3c-0.4-1.1,0.2-2.3,1.2-2.6l5.3-1.9c1.1-0.4,2.3,0.2,2.6,1.2l0,0
			c0.4,1.1-0.2,2.3-1.2,2.6l-5.3,1.9C322.4,374.9,321.2,374.4,320.8,373.3z"/>
	</g>
</g>
<g>
	<g>
		<path class="st0" d="M308.7,384.3L308.7,384.3c-1,0.5-2.2,0.2-2.8-0.8l-2.7-4.9c-0.5-1-0.2-2.2,0.8-2.8l0,0c1-0.5,2.2-0.2,2.8,0.8
			l2.7,4.9C310.1,382.5,309.7,383.7,308.7,384.3z"/>
	</g>
	<g>
		<path class="st0" d="M315.1,386.1L315.1,386.1c-0.5-1-0.2-2.2,0.8-2.8l4.9-2.7c1-0.5,2.2-0.2,2.8,0.8l0,0c0.5,1,0.2,2.2-0.8,2.8
			l-4.9,2.7C316.9,387.5,315.7,387.1,315.1,386.1z"/>
	</g>
</g>
<g>
	<g>
		<path class="st0" d="M306.8,399.4L306.8,399.4c-0.9,0.7-2.2,0.5-2.9-0.4l-3.5-4.4c-0.7-0.9-0.5-2.2,0.4-2.9l0,0
			c0.9-0.7,2.2-0.5,2.9,0.4l3.5,4.4C307.9,397.4,307.7,398.7,306.8,399.4z"/>
	</g>
	<g>
		<path class="st0" d="M313.4,400.2L313.4,400.2c-0.7-0.9-0.5-2.2,0.4-2.9l4.4-3.5c0.9-0.7,2.2-0.5,2.9,0.4l0,0
			c0.7,0.9,0.5,2.2-0.4,2.9l-4.4,3.5C315.4,401.3,314.1,401.1,313.4,400.2z"/>
	</g>
</g>
<g>
	<g>
		<path class="st0" d="M309.9,414.9L309.9,414.9c-0.6,1-1.8,1.3-2.8,0.8l-4.9-2.8c-1-0.6-1.3-1.8-0.8-2.8l0,0c0.6-1,1.8-1.3,2.8-0.8
			l4.9,2.8C310.2,412.7,310.5,413.9,309.9,414.9z"/>
	</g>
	<g>
		<path class="st0" d="M316.4,413.2L316.4,413.2c-1-0.6-1.3-1.8-0.8-2.8l2.8-4.9c0.6-1,1.8-1.3,2.8-0.8l0,0c1,0.6,1.3,1.8,0.8,2.8
			l-2.8,4.9C318.6,413.4,317.3,413.7,316.4,413.2z"/>
	</g>
</g>
<g>
	<g>
		<path class="st0" d="M313.2,429.2L313.2,429.2c-0.6,1-1.8,1.3-2.8,0.8l-4.9-2.8c-1-0.6-1.3-1.8-0.8-2.8l0,0c0.6-1,1.8-1.3,2.8-0.8
			l4.9,2.8C313.5,426.9,313.8,428.2,313.2,429.2z"/>
	</g>
	<g>
		<path class="st0" d="M319.7,427.5L319.7,427.5c-1-0.6-1.3-1.8-0.8-2.8l2.8-4.9c0.6-1,1.8-1.3,2.8-0.8l0,0c1,0.6,1.3,1.8,0.8,2.8
			l-2.8,4.9C321.9,427.7,320.6,428,319.7,427.5z"/>
	</g>
</g>
<g>
	<g>
		<path class="st0" d="M322.4,442.2L322.4,442.2c-0.1,1.1-1.2,1.9-2.3,1.8l-5.6-0.7c-1.1-0.1-1.9-1.2-1.8-2.3l0,0
			c0.1-1.1,1.2-1.9,2.3-1.8l5.6,0.7C321.7,440.1,322.5,441.1,322.4,442.2z"/>
	</g>
	<g>
		<path class="st0" d="M327.6,438.1L327.6,438.1c-1.1-0.1-1.9-1.2-1.8-2.3l0.7-5.6c0.1-1.1,1.2-1.9,2.3-1.8l0,0
			c1.1,0.1,1.9,1.2,1.8,2.3l-0.7,5.6C329.7,437.4,328.7,438.2,327.6,438.1z"/>
	</g>
</g>
<g>
	<g>
		<path class="st0" d="M333.4,453.3L333.4,453.3c0.3,1.1-0.4,2.2-1.5,2.5l-5.5,1.4c-1.1,0.3-2.2-0.4-2.5-1.5l0,0
			c-0.3-1.1,0.4-2.2,1.5-2.5l5.5-1.4C332,451.5,333.1,452.2,333.4,453.3z"/>
	</g>
	<g>
		<path class="st0" d="M336.8,447.5L336.8,447.5c-1.1,0.3-2.2-0.4-2.5-1.5l-1.4-5.5c-0.3-1.1,0.4-2.2,1.5-2.5l0,0
			c1.1-0.3,2.2,0.4,2.5,1.5l1.4,5.5C338.5,446.1,337.9,447.3,336.8,447.5z"/>
	</g>
</g>
<g>
	<g>
		<path class="st0" d="M345.7,461.2L345.7,461.2c0.3,1.1-0.4,2.2-1.5,2.5l-5.5,1.4c-1.1,0.3-2.2-0.4-2.5-1.5l0,0
			c-0.3-1.1,0.4-2.2,1.5-2.5l5.5-1.4C344.3,459.4,345.4,460.1,345.7,461.2z"/>
	</g>
	<g>
		<path class="st0" d="M349.1,455.4L349.1,455.4c-1.1,0.3-2.2-0.4-2.5-1.5l-1.4-5.5c-0.3-1.1,0.4-2.2,1.5-2.5l0,0
			c1.1-0.3,2.2,0.4,2.5,1.5l1.4,5.5C350.9,454,350.2,455.2,349.1,455.4z"/>
	</g>
</g>
<g>
	<g>
		<path class="st0" d="M361.1,464.8L361.1,464.8c0.7,0.9,0.6,2.2-0.3,2.9l-4.4,3.5c-0.9,0.7-2.2,0.6-2.9-0.3l0,0
			c-0.7-0.9-0.6-2.2,0.3-2.9l4.4-3.5C359.1,463.7,360.4,463.9,361.1,464.8z"/>
	</g>
	<g>
		<path class="st0" d="M361.9,458.1L361.9,458.1c-0.9,0.7-2.2,0.6-2.9-0.3l-3.5-4.4c-0.7-0.9-0.6-2.2,0.3-2.9l0,0
			c0.9-0.7,2.2-0.6,2.9,0.3l3.5,4.4C362.9,456.1,362.7,457.4,361.9,458.1z"/>
	</g>
</g>
<g>
	<g>
		<path class="st0" d="M375.6,466.9L375.6,466.9c0.7,0.9,0.6,2.2-0.3,2.9l-4.4,3.5c-0.9,0.7-2.2,0.6-2.9-0.3l0,0
			c-0.7-0.9-0.6-2.2,0.3-2.9l4.4-3.5C373.6,465.8,374.9,466,375.6,466.9z"/>
	</g>
	<g>
		<path class="st0" d="M376.4,460.2L376.4,460.2c-0.9,0.7-2.2,0.6-2.9-0.3l-3.5-4.4c-0.7-0.9-0.6-2.2,0.3-2.9l0,0
			c0.9-0.7,2.2-0.6,2.9,0.3l3.5,4.4C377.4,458.2,377.2,459.5,376.4,460.2z"/>
	</g>
</g>
<g>
	<path class="st0" d="M459.3,464.7c-0.8,0-1.5-0.7-1.5-1.5c0-0.8,0.7-1.5,1.5-1.5c7.7,0,15.3-1.4,22.4-4.2
		c22.9-9,37.7-31.4,37.7-56.9c0-20.1-8.7-38.1-23.9-49.3c-0.7-0.5-0.8-1.4-0.3-2.1c0.5-0.7,1.4-0.8,2.1-0.3
		c16,11.8,25.2,30.6,25.2,51.7c0,26.8-15.6,50.2-39.6,59.7C475.4,463.2,467.4,464.7,459.3,464.7z"/>
</g>
<g>
	<g>
		<path class="st0" d="M504,362.1L504,362.1c0,1.1-0.9,2.1-2,2.1l-5.6,0.2c-1.1,0-2.1-0.9-2.1-2l0,0c0-1.1,0.9-2.1,2-2.1l5.6-0.2
			C503,360.1,503.9,361,504,362.1z"/>
	</g>
	<g>
		<path class="st0" d="M508.5,357.2L508.5,357.2c-1.1,0-2.1-0.9-2.1-2l-0.2-5.6c0-1.1,0.9-2.1,2-2.1l0,0c1.1,0,2.1,0.9,2.1,2
			l0.2,5.6C510.5,356.3,509.6,357.2,508.5,357.2z"/>
	</g>
</g>
<g>
	<g>
		<path class="st0" d="M511.4,373.4L511.4,373.4c-0.3,1.1-1.4,1.7-2.5,1.4l-5.4-1.5c-1.1-0.3-1.7-1.4-1.4-2.5l0,0
			c0.3-1.1,1.4-1.7,2.5-1.4l5.4,1.5C511.1,371.2,511.7,372.3,511.4,373.4z"/>
	</g>
	<g>
		<path class="st0" d="M517.2,370.1L517.2,370.1c-1.1-0.3-1.7-1.4-1.4-2.5l1.5-5.4c0.3-1.1,1.4-1.7,2.5-1.4l0,0
			c1.1,0.3,1.7,1.4,1.4,2.5l-1.5,5.4C519.4,369.8,518.3,370.4,517.2,370.1z"/>
	</g>
</g>
<g>
	<g>
		<path class="st0" d="M517.1,386.3L517.1,386.3c-0.5,1-1.7,1.5-2.7,1l-5.1-2.4c-1-0.5-1.5-1.7-1-2.7l0,0c0.5-1,1.7-1.5,2.7-1
			l5.1,2.4C517.1,384,517.5,385.3,517.1,386.3z"/>
	</g>
	<g>
		<path class="st0" d="M523.3,384L523.3,384c-1-0.5-1.5-1.7-1-2.7l2.4-5.1c0.5-1,1.7-1.5,2.7-1l0,0c1,0.5,1.5,1.7,1,2.7L526,383
			C525.6,384,524.3,384.5,523.3,384z"/>
	</g>
</g>
<g>
	<g>
		<path class="st0" d="M518.7,400.4L518.7,400.4c-0.6,0.9-1.9,1.2-2.9,0.6l-4.7-3.1c-0.9-0.6-1.2-1.9-0.6-2.9l0,0
			c0.6-0.9,1.9-1.2,2.9-0.6l4.7,3.1C519.1,398.2,519.3,399.5,518.7,400.4z"/>
	</g>
	<g>
		<path class="st0" d="M525.3,399.1L525.3,399.1c-0.9-0.6-1.2-1.9-0.6-2.9l3.1-4.7c0.6-0.9,1.9-1.2,2.9-0.6l0,0
			c0.9,0.6,1.2,1.9,0.6,2.9l-3.1,4.7C527.5,399.5,526.2,399.7,525.3,399.1z"/>
	</g>
</g>
<g>
	<g>
		<path class="st0" d="M515.7,413.5L515.7,413.5c-0.9,0.6-2.2,0.4-2.9-0.6l-3.1-4.7c-0.6-0.9-0.4-2.2,0.6-2.9l0,0
			c0.9-0.6,2.2-0.4,2.9,0.6l3.1,4.7C516.9,411.5,516.6,412.8,515.7,413.5z"/>
	</g>
	<g>
		<path class="st0" d="M522.2,414.7L522.2,414.7c-0.6-0.9-0.4-2.2,0.6-2.9l4.7-3.1c0.9-0.6,2.2-0.4,2.9,0.6l0,0
			c0.6,0.9,0.4,2.2-0.6,2.9l-4.7,3.1C524.2,415.9,522.9,415.7,522.2,414.7z"/>
	</g>
</g>
<g>
	<g>
		<path class="st0" d="M512.4,427.7L512.4,427.7c-0.9,0.6-2.2,0.4-2.9-0.6l-3.1-4.7c-0.6-0.9-0.4-2.2,0.6-2.9l0,0
			c0.9-0.6,2.2-0.4,2.9,0.6l3.1,4.7C513.6,425.8,513.3,427.1,512.4,427.7z"/>
	</g>
	<g>
		<path class="st0" d="M518.9,429L518.9,429c-0.6-0.9-0.4-2.2,0.6-2.9l4.7-3.1c0.9-0.6,2.2-0.4,2.9,0.6l0,0c0.6,0.9,0.4,2.2-0.6,2.9
			l-4.7,3.1C520.9,430.2,519.6,430,518.9,429z"/>
	</g>
</g>
<g>
	<g>
		<path class="st0" d="M504.3,438.4L504.3,438.4c-1.1,0.2-2.2-0.5-2.4-1.6l-1.1-5.5c-0.2-1.1,0.5-2.2,1.6-2.4l0,0
			c1.1-0.2,2.2,0.5,2.4,1.6l1.1,5.5C506.2,437.1,505.5,438.2,504.3,438.4z"/>
	</g>
	<g>
		<path class="st0" d="M509.9,442.2L509.9,442.2c-0.2-1.1,0.5-2.2,1.6-2.4l5.5-1.1c1.1-0.2,2.2,0.5,2.4,1.6l0,0
			c0.2,1.1-0.5,2.2-1.6,2.4l-5.5,1.1C511.1,444,510.1,443.3,509.9,442.2z"/>
	</g>
</g>
<g>
	<g>
		<path class="st0" d="M495.1,447.9L495.1,447.9c-1.1-0.2-1.9-1.3-1.7-2.4l1-5.5c0.2-1.1,1.3-1.9,2.4-1.7l0,0
			c1.1,0.2,1.9,1.3,1.7,2.4l-1,5.5C497.2,447.3,496.2,448.1,495.1,447.9z"/>
	</g>
	<g>
		<path class="st0" d="M498.8,453.4L498.8,453.4c0.2-1.1,1.3-1.9,2.4-1.7l5.5,1c1.1,0.2,1.9,1.3,1.7,2.4l0,0
			c-0.2,1.1-1.3,1.9-2.4,1.7l-5.5-1C499.4,455.5,498.6,454.5,498.8,453.4z"/>
	</g>
</g>
<g>
	<g>
		<path class="st0" d="M482.7,455.8L482.7,455.8c-1.1-0.2-1.9-1.3-1.7-2.4l1-5.5c0.2-1.1,1.3-1.9,2.4-1.7l0,0
			c1.1,0.2,1.9,1.3,1.7,2.4l-1,5.5C484.9,455.2,483.8,456,482.7,455.8z"/>
	</g>
	<g>
		<path class="st0" d="M486.5,461.3L486.5,461.3c0.2-1.1,1.3-1.9,2.4-1.7l5.5,1c1.1,0.2,1.9,1.3,1.7,2.4l0,0
			c-0.2,1.1-1.3,1.9-2.4,1.7l-5.5-1C487,463.4,486.3,462.4,486.5,461.3z"/>
	</g>
</g>
<g>
	<g>
		<path class="st0" d="M469.8,458.4L469.8,458.4c-0.9-0.6-1.2-1.9-0.5-2.9l3.2-4.6c0.6-0.9,1.9-1.2,2.9-0.5l0,0
			c0.9,0.6,1.2,1.9,0.5,2.9l-3.2,4.6C472.1,458.8,470.8,459,469.8,458.4z"/>
	</g>
	<g>
		<path class="st0" d="M471,465L471,465c0.6-0.9,1.9-1.2,2.9-0.5l4.6,3.2c0.9,0.6,1.2,1.9,0.5,2.9l0,0c-0.6,0.9-1.9,1.2-2.9,0.5
			l-4.6-3.2C470.6,467.2,470.4,465.9,471,465z"/>
	</g>
</g>
<g>
	<g>
		<path class="st0" d="M455.3,460.5L455.3,460.5c-0.9-0.6-1.2-1.9-0.5-2.9l3.2-4.6c0.6-0.9,1.9-1.2,2.9-0.5l0,0
			c0.9,0.6,1.2,1.9,0.5,2.9l-3.2,4.6C457.5,460.9,456.3,461.2,455.3,460.5z"/>
	</g>
	<g>
		<path class="st0" d="M456.5,467.1L456.5,467.1c0.6-0.9,1.9-1.2,2.9-0.5l4.6,3.2c0.9,0.6,1.2,1.9,0.5,2.9l0,0
			c-0.6,0.9-1.9,1.2-2.9,0.5L457,470C456.1,469.3,455.9,468,456.5,467.1z"/>
	</g>
</g>
<g>
	<path class="st0" d="M617.6,464.7c-8.1,0-16.1-1.5-23.5-4.5c-24.1-9.5-39.6-32.9-39.6-59.7c0-21.1,9.2-39.9,25.2-51.7
		c0.7-0.5,1.6-0.3,2.1,0.3s0.3,1.6-0.3,2.1c-15.2,11.2-23.9,29.2-23.9,49.3c0,25.5,14.8,47.9,37.7,56.9c7.1,2.8,14.7,4.2,22.4,4.2
		c0.8,0,1.5,0.7,1.5,1.5C619.2,463.9,618.4,464.7,617.6,464.7z"/>
</g>
<g>
	<g>
		<path class="st0" d="M568.4,357.6L568.4,357.6c-1.1,0-2.1-0.9-2.1-2l-0.2-5.6c0-1.1,0.9-2.1,2-2.1l0,0c1.1,0,2.1,0.9,2.1,2
			l0.2,5.6C570.5,356.6,569.6,357.5,568.4,357.6z"/>
	</g>
	<g>
		<path class="st0" d="M573.3,362.1L573.3,362.1c0-1.1,0.9-2.1,2-2.1l5.6-0.2c1.1,0,2.1,0.9,2.1,2l0,0c0,1.1-0.9,2.1-2,2.1l-5.6,0.2
			C574.3,364.1,573.4,363.2,573.3,362.1z"/>
	</g>
</g>
<g>
	<g>
		<path class="st0" d="M559.8,370.5L559.8,370.5c-1.1,0.4-2.3-0.2-2.6-1.2l-1.9-5.3c-0.4-1.1,0.2-2.3,1.2-2.6l0,0
			c1.1-0.4,2.3,0.2,2.6,1.2l1.9,5.3C561.5,368.9,560.9,370.1,559.8,370.5z"/>
	</g>
	<g>
		<path class="st0" d="M565.9,373.3L565.9,373.3c-0.4-1.1,0.2-2.3,1.2-2.6l5.3-1.9c1.1-0.4,2.3,0.2,2.6,1.2l0,0
			c0.4,1.1-0.2,2.3-1.2,2.6l-5.3,1.9C567.4,374.9,566.2,374.4,565.9,373.3z"/>
	</g>
</g>
<g>
	<g>
		<path class="st0" d="M553.8,384.3L553.8,384.3c-1,0.5-2.2,0.2-2.8-0.8l-2.7-4.9c-0.5-1-0.2-2.2,0.8-2.8l0,0c1-0.5,2.2-0.2,2.8,0.8
			l2.7,4.9C555.1,382.5,554.8,383.7,553.8,384.3z"/>
	</g>
	<g>
		<path class="st0" d="M560.2,386.1L560.2,386.1c-0.5-1-0.2-2.2,0.8-2.8l4.9-2.7c1-0.5,2.2-0.2,2.8,0.8l0,0c0.5,1,0.2,2.2-0.8,2.8
			l-4.9,2.7C562,387.5,560.7,387.1,560.2,386.1z"/>
	</g>
</g>
<g>
	<g>
		<path class="st0" d="M551.9,399.4L551.9,399.4c-0.9,0.7-2.2,0.5-2.9-0.4l-3.5-4.4c-0.7-0.9-0.5-2.2,0.4-2.9l0,0
			c0.9-0.7,2.2-0.5,2.9,0.4l3.5,4.4C552.9,397.4,552.8,398.7,551.9,399.4z"/>
	</g>
	<g>
		<path class="st0" d="M558.5,400.2L558.5,400.2c-0.7-0.9-0.5-2.2,0.4-2.9l4.4-3.5c0.9-0.7,2.2-0.5,2.9,0.4l0,0
			c0.7,0.9,0.5,2.2-0.4,2.9l-4.4,3.5C560.5,401.3,559.2,401.1,558.5,400.2z"/>
	</g>
</g>
<g>
	<g>
		<path class="st0" d="M555,414.9L555,414.9c-0.6,1-1.8,1.3-2.8,0.8l-4.9-2.8c-1-0.6-1.3-1.8-0.8-2.8l0,0c0.6-1,1.8-1.3,2.8-0.8
			l4.9,2.8C555.2,412.7,555.5,413.9,555,414.9z"/>
	</g>
	<g>
		<path class="st0" d="M561.4,413.2L561.4,413.2c-1-0.6-1.3-1.8-0.8-2.8l2.8-4.9c0.6-1,1.8-1.3,2.8-0.8l0,0c1,0.6,1.3,1.8,0.8,2.8
			l-2.8,4.9C563.7,413.4,562.4,413.7,561.4,413.2z"/>
	</g>
</g>
<g>
	<g>
		<path class="st0" d="M558.3,429.2L558.3,429.2c-0.6,1-1.8,1.3-2.8,0.8l-4.9-2.8c-1-0.6-1.3-1.8-0.8-2.8l0,0c0.6-1,1.8-1.3,2.8-0.8
			l4.9,2.8C558.5,426.9,558.8,428.2,558.3,429.2z"/>
	</g>
	<g>
		<path class="st0" d="M564.7,427.5L564.7,427.5c-1-0.6-1.3-1.8-0.8-2.8l2.8-4.9c0.6-1,1.8-1.3,2.8-0.8l0,0c1,0.6,1.3,1.8,0.8,2.8
			l-2.8,4.9C567,427.7,565.7,428,564.7,427.5z"/>
	</g>
</g>
<g>
	<g>
		<path class="st0" d="M567.4,442.2L567.4,442.2c-0.1,1.1-1.2,1.9-2.3,1.8l-5.6-0.7c-1.1-0.1-1.9-1.2-1.8-2.3l0,0
			c0.1-1.1,1.2-1.9,2.3-1.8l5.6,0.7C566.7,440.1,567.5,441.1,567.4,442.2z"/>
	</g>
	<g>
		<path class="st0" d="M572.6,438.1L572.6,438.1c-1.1-0.1-1.9-1.2-1.8-2.3l0.7-5.6c0.1-1.1,1.2-1.9,2.3-1.8l0,0
			c1.1,0.1,1.9,1.2,1.8,2.3l-0.7,5.6C574.8,437.4,573.8,438.2,572.6,438.1z"/>
	</g>
</g>
<g>
	<g>
		<path class="st0" d="M578.4,453.3L578.4,453.3c0.3,1.1-0.4,2.2-1.5,2.5l-5.5,1.4c-1.1,0.3-2.2-0.4-2.5-1.5l0,0
			c-0.3-1.1,0.4-2.2,1.5-2.5l5.5-1.4C577,451.5,578.1,452.2,578.4,453.3z"/>
	</g>
	<g>
		<path class="st0" d="M581.8,447.5L581.8,447.5c-1.1,0.3-2.2-0.4-2.5-1.5l-1.4-5.5c-0.3-1.1,0.4-2.2,1.5-2.5l0,0
			c1.1-0.3,2.2,0.4,2.5,1.5l1.4,5.5C583.6,446.1,582.9,447.3,581.8,447.5z"/>
	</g>
</g>
<g>
	<g>
		<path class="st0" d="M590.8,461.2L590.8,461.2c0.3,1.1-0.4,2.2-1.5,2.5l-5.5,1.4c-1.1,0.3-2.2-0.4-2.5-1.5l0,0
			c-0.3-1.1,0.4-2.2,1.5-2.5l5.5-1.4C589.4,459.4,590.5,460.1,590.8,461.2z"/>
	</g>
	<g>
		<path class="st0" d="M594.2,455.4L594.2,455.4c-1.1,0.3-2.2-0.4-2.5-1.5l-1.4-5.5c-0.3-1.1,0.4-2.2,1.5-2.5l0,0
			c1.1-0.3,2.2,0.4,2.5,1.5l1.4,5.5C595.9,454,595.3,455.2,594.2,455.4z"/>
	</g>
</g>
<g>
	<g>
		<path class="st0" d="M606.2,464.8L606.2,464.8c0.7,0.9,0.6,2.2-0.3,2.9l-4.4,3.5c-0.9,0.7-2.2,0.6-2.9-0.3l0,0
			c-0.7-0.9-0.6-2.2,0.3-2.9l4.4-3.5C604.2,463.7,605.5,463.9,606.2,464.8z"/>
	</g>
	<g>
		<path class="st0" d="M606.9,458.1L606.9,458.1c-0.9,0.7-2.2,0.6-2.9-0.3l-3.5-4.4c-0.7-0.9-0.6-2.2,0.3-2.9l0,0
			c0.9-0.7,2.2-0.6,2.9,0.3l3.5,4.4C607.9,456.1,607.8,457.4,606.9,458.1z"/>
	</g>
</g>
<g>
	<g>
		<path class="st0" d="M620.7,466.9L620.7,466.9c0.7,0.9,0.6,2.2-0.3,2.9l-4.4,3.5c-0.9,0.7-2.2,0.6-2.9-0.3l0,0
			c-0.7-0.9-0.6-2.2,0.3-2.9l4.4-3.5C618.7,465.8,620,466,620.7,466.9z"/>
	</g>
	<g>
		<path class="st0" d="M621.4,460.2L621.4,460.2c-0.9,0.7-2.2,0.6-2.9-0.3l-3.5-4.4c-0.7-0.9-0.6-2.2,0.3-2.9l0,0
			c0.9-0.7,2.2-0.6,2.9,0.3l3.5,4.4C622.4,458.2,622.3,459.5,621.4,460.2z"/>
	</g>
</g>
<g>
	<path class="st0" d="M704.4,464.7c-0.8,0-1.5-0.7-1.5-1.5c0-0.8,0.7-1.5,1.5-1.5c7.7,0,15.3-1.4,22.4-4.2
		c22.9-9,37.7-31.4,37.7-56.9c0-20.1-8.7-38.1-23.9-49.3c-0.7-0.5-0.8-1.4-0.3-2.1c0.5-0.7,1.4-0.8,2.1-0.3
		c16,11.8,25.2,30.6,25.2,51.7c0,26.8-15.6,50.2-39.6,59.7C720.4,463.2,712.5,464.7,704.4,464.7z"/>
</g>
<g>
	<g>
		<path class="st0" d="M749,362.1L749,362.1c0,1.1-0.9,2.1-2,2.1l-5.6,0.2c-1.1,0-2.1-0.9-2.1-2l0,0c0-1.1,0.9-2.1,2-2.1l5.6-0.2
			C748,360.1,749,361,749,362.1z"/>
	</g>
	<g>
		<path class="st0" d="M753.6,357.2L753.6,357.2c-1.1,0-2.1-0.9-2.1-2l-0.2-5.6c0-1.1,0.9-2.1,2-2.1l0,0c1.1,0,2.1,0.9,2.1,2
			l0.2,5.6C755.6,356.3,754.7,357.2,753.6,357.2z"/>
	</g>
</g>
<g>
	<g>
		<path class="st0" d="M756.5,373.4L756.5,373.4c-0.3,1.1-1.4,1.7-2.5,1.4l-5.4-1.5c-1.1-0.3-1.7-1.4-1.4-2.5l0,0
			c0.3-1.1,1.4-1.7,2.5-1.4l5.4,1.5C756.1,371.2,756.8,372.3,756.5,373.4z"/>
	</g>
	<g>
		<path class="st0" d="M762.3,370.1L762.3,370.1c-1.1-0.3-1.7-1.4-1.4-2.5l1.5-5.4c0.3-1.1,1.4-1.7,2.5-1.4l0,0
			c1.1,0.3,1.7,1.4,1.4,2.5l-1.5,5.4C764.5,369.8,763.4,370.4,762.3,370.1z"/>
	</g>
</g>
<g>
	<g>
		<path class="st0" d="M762.1,386.3L762.1,386.3c-0.5,1-1.7,1.5-2.7,1l-5.1-2.4c-1-0.5-1.5-1.7-1-2.7l0,0c0.5-1,1.7-1.5,2.7-1
			l5.1,2.4C762.1,384,762.6,385.3,762.1,386.3z"/>
	</g>
	<g>
		<path class="st0" d="M768.4,384L768.4,384c-1-0.5-1.5-1.7-1-2.7l2.4-5.1c0.5-1,1.7-1.5,2.7-1l0,0c1,0.5,1.5,1.7,1,2.7l-2.4,5.1
			C770.6,384,769.4,384.5,768.4,384z"/>
	</g>
</g>
<g>
	<g>
		<path class="st0" d="M763.8,400.4L763.8,400.4c-0.6,0.9-1.9,1.2-2.9,0.6l-4.7-3.1c-0.9-0.6-1.2-1.9-0.6-2.9l0,0
			c0.6-0.9,1.9-1.2,2.9-0.6l4.7,3.1C764.1,398.2,764.4,399.5,763.8,400.4z"/>
	</g>
	<g>
		<path class="st0" d="M770.3,399.1L770.3,399.1c-0.9-0.6-1.2-1.9-0.6-2.9l3.1-4.7c0.6-0.9,1.9-1.2,2.9-0.6l0,0
			c0.9,0.6,1.2,1.9,0.6,2.9l-3.1,4.7C772.5,399.5,771.2,399.7,770.3,399.1z"/>
	</g>
</g>
<g>
	<g>
		<path class="st0" d="M760.7,413.5L760.7,413.5c-0.9,0.6-2.2,0.4-2.9-0.6l-3.1-4.7c-0.6-0.9-0.4-2.2,0.6-2.9l0,0
			c0.9-0.6,2.2-0.4,2.9,0.6l3.1,4.7C761.9,411.5,761.7,412.8,760.7,413.5z"/>
	</g>
	<g>
		<path class="st0" d="M767.3,414.7L767.3,414.7c-0.6-0.9-0.4-2.2,0.6-2.9l4.7-3.1c0.9-0.6,2.2-0.4,2.9,0.6l0,0
			c0.6,0.9,0.4,2.2-0.6,2.9l-4.7,3.1C769.2,415.9,767.9,415.7,767.3,414.7z"/>
	</g>
</g>
<g>
	<g>
		<path class="st0" d="M757.4,427.7L757.4,427.7c-0.9,0.6-2.2,0.4-2.9-0.6l-3.1-4.7c-0.6-0.9-0.4-2.2,0.6-2.9l0,0
			c0.9-0.6,2.2-0.4,2.9,0.6l3.1,4.7C758.6,425.8,758.4,427.1,757.4,427.7z"/>
	</g>
	<g>
		<path class="st0" d="M764,429L764,429c-0.6-0.9-0.4-2.2,0.6-2.9l4.7-3.1c0.9-0.6,2.2-0.4,2.9,0.6l0,0c0.6,0.9,0.4,2.2-0.6,2.9
			l-4.7,3.1C765.9,430.2,764.6,430,764,429z"/>
	</g>
</g>
<g>
	<g>
		<path class="st0" d="M749.4,438.4L749.4,438.4c-1.1,0.2-2.2-0.5-2.4-1.6l-1.1-5.5c-0.2-1.1,0.5-2.2,1.6-2.4l0,0
			c1.1-0.2,2.2,0.5,2.4,1.6l1.1,5.5C751.2,437.1,750.5,438.2,749.4,438.4z"/>
	</g>
	<g>
		<path class="st0" d="M754.9,442.2L754.9,442.2c-0.2-1.1,0.5-2.2,1.6-2.4l5.5-1.1c1.1-0.2,2.2,0.5,2.4,1.6l0,0
			c0.2,1.1-0.5,2.2-1.6,2.4l-5.5,1.1C756.2,444,755.1,443.3,754.9,442.2z"/>
	</g>
</g>
<g>
	<g>
		<path class="st0" d="M740.1,447.9L740.1,447.9c-1.1-0.2-1.9-1.3-1.7-2.4l1-5.5c0.2-1.1,1.3-1.9,2.4-1.7l0,0
			c1.1,0.2,1.9,1.3,1.7,2.4l-1,5.5C742.3,447.3,741.2,448.1,740.1,447.9z"/>
	</g>
	<g>
		<path class="st0" d="M743.9,453.4L743.9,453.4c0.2-1.1,1.3-1.9,2.4-1.7l5.5,1c1.1,0.2,1.9,1.3,1.7,2.4l0,0
			c-0.2,1.1-1.3,1.9-2.4,1.7l-5.5-1C744.4,455.5,743.7,454.5,743.9,453.4z"/>
	</g>
</g>
<g>
	<g>
		<path class="st0" d="M727.8,455.8L727.8,455.8c-1.1-0.2-1.9-1.3-1.7-2.4l1-5.5c0.2-1.1,1.3-1.9,2.4-1.7l0,0
			c1.1,0.2,1.9,1.3,1.7,2.4l-1,5.5C729.9,455.2,728.9,456,727.8,455.8z"/>
	</g>
	<g>
		<path class="st0" d="M731.5,461.3L731.5,461.3c0.2-1.1,1.3-1.9,2.4-1.7l5.5,1c1.1,0.2,1.9,1.3,1.7,2.4l0,0
			c-0.2,1.1-1.3,1.9-2.4,1.7l-5.5-1C732.1,463.4,731.3,462.4,731.5,461.3z"/>
	</g>
</g>
<g>
	<g>
		<path class="st0" d="M714.9,458.4L714.9,458.4c-0.9-0.6-1.2-1.9-0.5-2.9l3.2-4.6c0.6-0.9,1.9-1.2,2.9-0.5l0,0
			c0.9,0.6,1.2,1.9,0.5,2.9l-3.2,4.6C717.1,458.8,715.8,459,714.9,458.4z"/>
	</g>
	<g>
		<path class="st0" d="M716.1,465L716.1,465c0.6-0.9,1.9-1.2,2.9-0.5l4.6,3.2c0.9,0.6,1.2,1.9,0.5,2.9l0,0c-0.6,0.9-1.9,1.2-2.9,0.5
			l-4.6-3.2C715.7,467.2,715.4,465.9,716.1,465z"/>
	</g>
</g>
<g>
	<g>
		<path class="st0" d="M700.4,460.5L700.4,460.5c-0.9-0.6-1.2-1.9-0.5-2.9l3.2-4.6c0.6-0.9,1.9-1.2,2.9-0.5l0,0
			c0.9,0.6,1.2,1.9,0.5,2.9l-3.2,4.6C702.6,460.9,701.3,461.2,700.4,460.5z"/>
	</g>
	<g>
		<path class="st0" d="M701.6,467.1L701.6,467.1c0.6-0.9,1.9-1.2,2.9-0.5l4.6,3.2c0.9,0.6,1.2,1.9,0.5,2.9l0,0
			c-0.6,0.9-1.9,1.2-2.9,0.5l-4.6-3.2C701.2,469.3,700.9,468,701.6,467.1z"/>
	</g>
</g>
<g>
	<path class="st0" d="M132.8,394.1v8.1c0,0.4-0.4,0.8-0.8,0.8c-0.3,0-0.5-0.1-0.7-0.4l-4.1-6v5.5c0,0.4-0.4,0.8-0.8,0.8
		s-0.8-0.4-0.8-0.8v-8.1c0-0.4,0.4-0.8,0.8-0.8c0.3,0,0.5,0.1,0.6,0.3l4.1,6v-5.5c0-0.4,0.4-0.8,0.8-0.8
		C132.4,393.3,132.8,393.6,132.8,394.1z"/>
	<path class="st0" d="M134.4,399.7v-5.6c0-0.4,0.4-0.8,0.8-0.8s0.8,0.4,0.8,0.8v5.6c0,0.9,0.3,1.8,1.9,1.8c1.6,0,1.9-1,1.9-1.8v-5.6
		c0-0.4,0.4-0.8,0.8-0.8s0.8,0.4,0.8,0.8v5.6c0,1.6-0.7,3.3-3.5,3.3C135.1,403,134.4,401.3,134.4,399.7z"/>
	<path class="st0" d="M142.7,398.1c0-3.3,1.6-4.9,4.4-4.9s4.4,1.6,4.4,4.9c0,3.3-1.6,4.9-4.4,4.9S142.7,401.4,142.7,398.1z
		 M144.3,398.1c0,2.3,0.9,3.4,2.8,3.4c1.8,0,2.8-1.1,2.8-3.4c0-2.3-0.9-3.5-2.8-3.5C145.2,394.6,144.3,395.8,144.3,398.1z"/>
	<path class="st0" d="M155.5,402.4l-3.2-8c0-0.1-0.1-0.2-0.1-0.3c0-0.4,0.4-0.8,0.8-0.8c0.4,0,0.7,0.3,0.7,0.5l2.4,6.5l2.4-6.5
		c0.1-0.2,0.3-0.5,0.7-0.5c0.4,0,0.8,0.4,0.8,0.8c0,0.1,0,0.2-0.1,0.3l-3.2,8c-0.1,0.3-0.3,0.5-0.8,0.5S155.6,402.7,155.5,402.4z"/>
	<path class="st0" d="M161,398.1c0-3.3,1.6-4.9,4.4-4.9s4.4,1.6,4.4,4.9c0,3.3-1.6,4.9-4.4,4.9S161,401.4,161,398.1z M162.7,398.1
		c0,2.3,0.9,3.4,2.8,3.4c1.8,0,2.8-1.1,2.8-3.4c0-2.3-0.9-3.5-2.8-3.5C163.6,394.6,162.7,395.8,162.7,398.1z"/>
	<path class="st0" d="M176.2,400.3l-0.9,2c-0.1,0.3-0.4,0.5-0.8,0.5c-0.4,0-0.8-0.4-0.8-0.8c0-0.1,0-0.2,0.1-0.3l3.3-8.1
		c0.1-0.2,0.3-0.5,0.7-0.5c0.4,0,0.7,0.3,0.7,0.5l3.3,8.1c0,0.1,0.1,0.2,0.1,0.3c0,0.4-0.4,0.8-0.8,0.8c-0.4,0-0.6-0.2-0.8-0.5
		l-0.9-2H176.2z M177.9,395.9l-1.1,2.9h2.3L177.9,395.9z"/>
	<path class="st0" d="M187.1,396.6l-1.6,5.7c-0.1,0.4-0.4,0.6-0.8,0.6c-0.4,0-0.7-0.2-0.8-0.6l-2.4-8c0-0.1,0-0.2,0-0.3
		c0-0.4,0.4-0.8,0.8-0.8s0.7,0.3,0.8,0.6l1.6,5.9l1.6-5.9c0.1-0.4,0.4-0.6,0.8-0.6s0.7,0.2,0.8,0.6l1.6,5.9l1.6-5.9
		c0.1-0.2,0.3-0.6,0.8-0.6s0.8,0.4,0.8,0.8c0,0.1,0,0.2,0,0.3l-2.4,8c-0.1,0.3-0.4,0.6-0.8,0.6c-0.4,0-0.7-0.3-0.8-0.6L187.1,396.6z
		"/>
	<path class="st0" d="M194.6,400.3l-0.9,2c-0.1,0.3-0.4,0.5-0.8,0.5c-0.4,0-0.8-0.4-0.8-0.8c0-0.1,0-0.2,0.1-0.3l3.3-8.1
		c0.1-0.2,0.3-0.5,0.7-0.5c0.4,0,0.7,0.3,0.7,0.5l3.3,8.1c0,0.1,0.1,0.2,0.1,0.3c0,0.4-0.4,0.8-0.8,0.8c-0.4,0-0.6-0.2-0.8-0.5
		l-0.9-2H194.6z M196.3,395.9l-1.1,2.9h2.3L196.3,395.9z"/>
	<path class="st0" d="M203.1,399.2v2.9c0,0.4-0.4,0.8-0.8,0.8s-0.8-0.4-0.8-0.8v-7.9c0-0.4,0.4-0.8,0.8-0.8h2.7c1.9,0,3,1.3,3,2.9
		c0,1.3-0.8,2.6-2.2,2.8l2.1,2.5c0.1,0.2,0.2,0.3,0.2,0.5c0,0.4-0.4,0.8-0.8,0.8c-0.2,0-0.5-0.1-0.6-0.3l-2.5-3.4H203.1z
		 M203.1,394.8v2.9h1.9c0.9,0,1.2-0.7,1.2-1.5c0-0.8-0.4-1.5-1.3-1.5H203.1z"/>
	<path class="st0" d="M212,393.4c2.8,0,4.6,1.3,4.6,4.7c0,3.5-1.8,4.7-4.6,4.7h-1.9c-0.4,0-0.8-0.4-0.8-0.8v-7.8
		c0-0.4,0.4-0.8,0.8-0.8H212z M210.9,401.3h1.1c1.8,0,2.9-0.8,2.9-3.2c0-2.4-1.1-3.3-2.9-3.3h-1.1V401.3z"/>
	<path class="st0" d="M107.6,419.6c-0.4,0-0.8-0.4-0.8-0.8V411c0-0.4,0.4-0.8,0.8-0.8h2.5c2.1,0,2.9,1.1,2.9,2.4
		c0,0.9-0.5,1.6-1,1.9c1.1,0.4,1.5,1.2,1.5,2.3c0,1.7-1,2.8-3,2.8H107.6z M108.4,414h1.7c0.9,0,1.2-0.5,1.2-1.2
		c0-0.7-0.4-1.2-1.2-1.2h-1.7V414z M108.4,418.1h2c1,0,1.4-0.5,1.4-1.4c0-0.9-0.5-1.4-1.4-1.4h-2V418.1z"/>
	<path class="st0" d="M116.4,414.1h2.6c0.4,0,0.7,0.3,0.7,0.7c0,0.4-0.3,0.7-0.7,0.7h-2.6v2.6h3.7c0.4,0,0.7,0.3,0.7,0.7
		s-0.3,0.7-0.7,0.7h-4.5c-0.4,0-0.8-0.4-0.8-0.8V411c0-0.4,0.4-0.8,0.8-0.8h4.4c0.4,0,0.7,0.3,0.7,0.7c0,0.4-0.3,0.7-0.7,0.7h-3.6
		V414.1z"/>
	<path class="st0" d="M125.3,411.4c-1.2,0-1.6,0.5-1.6,1.1c0,1.8,5.1,1,5.1,4.5c0,1.7-1.2,2.8-3.5,2.8c-1.7,0-3-0.8-3.5-1.7
		c-0.1-0.1-0.1-0.3-0.1-0.4c0-0.4,0.3-0.8,0.7-0.8c0.3,0,0.5,0.2,0.6,0.3c0.6,0.6,1.3,1.1,2.3,1.1c1.3,0,1.9-0.4,1.9-1.3
		c0-2-5.1-1.1-5.1-4.5c0-1.4,1-2.6,3.2-2.6c1.4,0,2.6,0.5,3.2,1.3c0.1,0.1,0.1,0.3,0.1,0.4c0,0.4-0.3,0.7-0.8,0.7
		c-0.2,0-0.4-0.1-0.6-0.3C126.8,411.8,126.1,411.4,125.3,411.4z"/>
	<path class="st0" d="M133.6,411.6v7.3c0,0.4-0.4,0.8-0.8,0.8s-0.8-0.4-0.8-0.8v-7.3h-2.1c-0.4,0-0.7-0.3-0.7-0.7
		c0-0.4,0.3-0.7,0.7-0.7h5.9c0.4,0,0.7,0.3,0.7,0.7c0,0.4-0.3,0.7-0.7,0.7H133.6z"/>
	<path class="st0" d="M144,411.4c-1.2,0-1.6,0.5-1.6,1.1c0,1.8,5.1,1,5.1,4.5c0,1.7-1.2,2.8-3.5,2.8c-1.7,0-3-0.8-3.5-1.7
		c-0.1-0.1-0.1-0.3-0.1-0.4c0-0.4,0.3-0.8,0.7-0.8c0.3,0,0.5,0.2,0.6,0.3c0.6,0.6,1.3,1.1,2.3,1.1c1.3,0,1.9-0.4,1.9-1.3
		c0-2-5.1-1.1-5.1-4.5c0-1.4,1-2.6,3.2-2.6c1.4,0,2.6,0.5,3.2,1.3c0.1,0.1,0.1,0.3,0.1,0.4c0,0.4-0.3,0.7-0.8,0.7
		c-0.2,0-0.4-0.1-0.6-0.3C145.5,411.8,144.8,411.4,144,411.4z"/>
	<path class="st0" d="M152.3,411.6v7.3c0,0.4-0.4,0.8-0.8,0.8s-0.8-0.4-0.8-0.8v-7.3h-2.1c-0.4,0-0.7-0.3-0.7-0.7
		c0-0.4,0.3-0.7,0.7-0.7h5.9c0.4,0,0.7,0.3,0.7,0.7c0,0.4-0.3,0.7-0.7,0.7H152.3z"/>
	<path class="st0" d="M156.3,416.5v-5.6c0-0.4,0.4-0.8,0.8-0.8s0.8,0.4,0.8,0.8v5.6c0,0.9,0.3,1.8,1.9,1.8c1.6,0,1.9-1,1.9-1.8v-5.6
		c0-0.4,0.4-0.8,0.8-0.8s0.8,0.4,0.8,0.8v5.6c0,1.6-0.7,3.3-3.5,3.3C157,419.8,156.3,418.1,156.3,416.5z"/>
	<path class="st0" d="M167.7,410.2c2.8,0,4.6,1.3,4.6,4.7c0,3.5-1.8,4.7-4.6,4.7h-1.9c-0.4,0-0.8-0.4-0.8-0.8V411
		c0-0.4,0.4-0.8,0.8-0.8H167.7z M166.6,418.1h1.1c1.8,0,2.9-0.8,2.9-3.2c0-2.4-1.1-3.3-2.9-3.3h-1.1V418.1z"/>
	<path class="st0" d="M175.2,414.1h2.6c0.4,0,0.7,0.3,0.7,0.7c0,0.4-0.3,0.7-0.7,0.7h-2.6v2.6h3.7c0.4,0,0.7,0.3,0.7,0.7
		s-0.3,0.7-0.7,0.7h-4.5c-0.4,0-0.8-0.4-0.8-0.8V411c0-0.4,0.4-0.8,0.8-0.8h4.4c0.4,0,0.7,0.3,0.7,0.7c0,0.4-0.3,0.7-0.7,0.7h-3.6
		V414.1z"/>
	<path class="st0" d="M188,410.9v8.1c0,0.4-0.4,0.8-0.8,0.8c-0.3,0-0.5-0.1-0.7-0.4l-4.1-6v5.5c0,0.4-0.4,0.8-0.8,0.8
		s-0.8-0.4-0.8-0.8v-8.1c0-0.4,0.4-0.8,0.8-0.8c0.3,0,0.5,0.1,0.6,0.3l4.1,6v-5.5c0-0.4,0.4-0.8,0.8-0.8
		C187.6,410.1,188,410.4,188,410.9z"/>
	<path class="st0" d="M193.5,411.6v7.3c0,0.4-0.4,0.8-0.8,0.8s-0.8-0.4-0.8-0.8v-7.3h-2.1c-0.4,0-0.7-0.3-0.7-0.7
		c0-0.4,0.3-0.7,0.7-0.7h5.9c0.4,0,0.7,0.3,0.7,0.7c0,0.4-0.3,0.7-0.7,0.7H193.5z"/>
	<path class="st0" d="M207,416h-1.9c-0.4,0-0.7-0.3-0.7-0.7c0-0.4,0.3-0.7,0.7-0.7h2.7c0.4,0,0.8,0.3,0.8,0.7v2.2
		c0,0.3-0.1,0.5-0.2,0.7c-0.7,0.9-2.2,1.5-3.7,1.5c-2.8,0-4.4-1.5-4.4-4.9c0-3.3,1.6-4.9,4.4-4.9c1.7,0,2.8,0.7,3.4,1.5
		c0.1,0.2,0.2,0.3,0.2,0.5c0,0.4-0.3,0.7-0.8,0.7c-0.2,0-0.4-0.1-0.6-0.3c-0.6-0.6-1.2-1-2.2-1c-1.9,0-2.7,1.1-2.7,3.5
		c0,2.5,0.8,3.4,2.7,3.4c1,0,1.8-0.2,2.3-0.8V416z"/>
	<path class="st0" d="M211.9,417.1l-0.9,2c-0.1,0.3-0.4,0.5-0.8,0.5c-0.4,0-0.8-0.4-0.8-0.8c0-0.1,0-0.2,0.1-0.3l3.3-8.1
		c0.1-0.2,0.3-0.5,0.7-0.5c0.4,0,0.7,0.3,0.7,0.5l3.3,8.1c0,0.1,0.1,0.2,0.1,0.3c0,0.4-0.4,0.8-0.8,0.8c-0.4,0-0.6-0.2-0.8-0.5
		l-0.9-2H211.9z M213.6,412.7l-1.1,2.9h2.3L213.6,412.7z"/>
	<path class="st0" d="M222.5,417.7l-2.2-3.9v5.1c0,0.4-0.4,0.8-0.8,0.8s-0.8-0.4-0.8-0.8v-8.1c0-0.4,0.4-0.8,0.8-0.8
		c0.4,0,0.6,0.2,0.7,0.4l3,5.3l3-5.3c0.1-0.3,0.4-0.4,0.7-0.4c0.4,0,0.8,0.4,0.8,0.8v8.1c0,0.4-0.4,0.8-0.8,0.8
		c-0.4,0-0.8-0.4-0.8-0.8v-5.1l-2.2,3.9c-0.1,0.3-0.4,0.4-0.7,0.4S222.6,418,222.5,417.7z"/>
	<path class="st0" d="M231,414.1h2.6c0.4,0,0.7,0.3,0.7,0.7c0,0.4-0.3,0.7-0.7,0.7H231v2.6h3.7c0.4,0,0.7,0.3,0.7,0.7
		s-0.3,0.7-0.7,0.7h-4.5c-0.4,0-0.8-0.4-0.8-0.8V411c0-0.4,0.4-0.8,0.8-0.8h4.4c0.4,0,0.7,0.3,0.7,0.7c0,0.4-0.3,0.7-0.7,0.7H231
		V414.1z"/>
</g>
<g>
	<path class="st0" d="M130.8,380.9c0,0.7-0.6,1.3-1.3,1.3s-1.3-0.6-1.3-1.3v-13c0-0.7,0.6-1.3,1.3-1.3h7.2c0.7,0,1.2,0.5,1.2,1.2
		c0,0.7-0.5,1.2-1.2,1.2h-5.8v4.3h4.3c0.6,0,1.2,0.5,1.2,1.2c0,0.6-0.5,1.2-1.2,1.2h-4.3V380.9z"/>
	<path class="st0" d="M142.8,380.9c0,0.7-0.6,1.3-1.3,1.3s-1.3-0.6-1.3-1.3v-13.2c0-0.7,0.6-1.3,1.3-1.3s1.3,0.6,1.3,1.3V380.9z"/>
	<path class="st0" d="M157.2,367.7v13.2c0,0.7-0.6,1.3-1.3,1.3c-0.4,0-0.9-0.2-1.1-0.6l-6.8-9.8v9.1c0,0.7-0.6,1.3-1.3,1.3
		c-0.7,0-1.3-0.6-1.3-1.3v-13.2c0-0.7,0.6-1.3,1.3-1.3c0.5,0,0.8,0.2,1.1,0.6l6.8,9.9v-9.1c0-0.7,0.6-1.3,1.3-1.3
		S157.2,367,157.2,367.7z"/>
	<path class="st0" d="M162.9,378l-1.4,3.3c-0.2,0.5-0.6,0.9-1.2,0.9c-0.7,0-1.3-0.6-1.3-1.3c0-0.1,0-0.3,0.1-0.5l5.4-13.2
		c0.1-0.3,0.5-0.8,1.2-0.8s1.1,0.5,1.2,0.8l5.4,13.2c0.1,0.2,0.1,0.3,0.1,0.5c0,0.7-0.6,1.3-1.3,1.3c-0.6,0-1-0.4-1.2-0.9l-1.4-3.3
		H162.9z M165.7,370.8l-1.9,4.8h3.8L165.7,370.8z"/>
	<path class="st0" d="M182.4,379.6c0.8,0,1.3,0.6,1.3,1.2c0,0.7-0.5,1.2-1.3,1.2h-6.8c-0.8,0-1.3-0.6-1.3-1.3v-13
		c0-0.7,0.6-1.3,1.3-1.3s1.3,0.6,1.3,1.3v11.8H182.4z"/>
	<path class="st0" d="M188.2,380.9c0,0.7-0.6,1.3-1.3,1.3s-1.3-0.6-1.3-1.3v-13.2c0-0.7,0.6-1.3,1.3-1.3s1.3,0.6,1.3,1.3V380.9z"/>
	<path class="st0" d="M196.2,368.7c-1.9,0-2.6,0.9-2.6,1.8c0,3,8.4,1.6,8.4,7.4c0,2.8-2,4.6-5.8,4.6c-2.7,0-4.9-1.4-5.8-2.8
		c-0.1-0.2-0.2-0.4-0.2-0.6c0-0.7,0.6-1.2,1.2-1.2c0.5,0,0.8,0.3,1,0.5c1,1,2.2,1.7,3.8,1.7c2.1,0,3.1-0.7,3.1-2.1
		c0-3.4-8.4-1.8-8.4-7.4c0-2.3,1.6-4.2,5.3-4.2c2.3,0,4.3,0.9,5.2,2.2c0.1,0.2,0.2,0.5,0.2,0.7c0,0.7-0.6,1.2-1.2,1.2
		c-0.3,0-0.6-0.2-1-0.5C198.8,369.2,197.6,368.7,196.2,368.7z"/>
	<path class="st0" d="M209.9,368.9v12c0,0.7-0.6,1.3-1.3,1.3s-1.3-0.6-1.3-1.3v-12h-3.5c-0.6,0-1.2-0.5-1.2-1.2
		c0-0.6,0.5-1.2,1.2-1.2h9.7c0.6,0,1.2,0.5,1.2,1.2c0,0.6-0.5,1.2-1.2,1.2H209.9z"/>
</g>
<g>
	<g>
		<path class="st0" d="M332.1,390.9c0-4.3,2.1-6.3,5.7-6.3s5.7,2.1,5.7,6.3c0,4.2-2.1,6.3-5.7,6.3S332.1,395.1,332.1,390.9z
			 M334.3,390.9c0,3,1.2,4.4,3.5,4.4c2.4,0,3.5-1.5,3.5-4.4c0-3-1.2-4.4-3.5-4.4C335.5,386.4,334.3,387.9,334.3,390.9z"/>
		<path class="st0" d="M347.3,396c0,0.6-0.5,1-1,1s-1-0.5-1-1v-10.2c0-0.6,0.5-1,1-1h5.6c0.5,0,0.9,0.4,0.9,0.9
			c0,0.5-0.4,0.9-0.9,0.9h-4.6v3.3h3.4c0.5,0,0.9,0.4,0.9,0.9c0,0.5-0.4,0.9-0.9,0.9h-3.4V396z"/>
		<path class="st0" d="M356.8,396c0,0.6-0.5,1-1,1s-1-0.5-1-1v-10.2c0-0.6,0.5-1,1-1h5.6c0.5,0,0.9,0.4,0.9,0.9
			c0,0.5-0.4,0.9-0.9,0.9h-4.6v3.3h3.4c0.5,0,0.9,0.4,0.9,0.9c0,0.5-0.4,0.9-0.9,0.9h-3.4V396z"/>
		<path class="st0" d="M366.2,396c0,0.6-0.5,1-1,1s-1-0.5-1-1v-10.3c0-0.6,0.5-1,1-1s1,0.5,1,1V396z"/>
		<path class="st0" d="M367.9,390.9c0-4.3,2.1-6.3,5.6-6.3c2.2,0,3.6,0.9,4.3,1.9c0.1,0.2,0.2,0.4,0.2,0.6c0,0.5-0.4,1-1,1
			c-0.3,0-0.5-0.1-0.7-0.4c-0.7-0.8-1.5-1.3-2.8-1.3c-2.4,0-3.5,1.5-3.5,4.4c0,3.2,1.1,4.4,3.5,4.4c1.3,0,2.1-0.3,2.9-1.2
			c0.3-0.3,0.5-0.4,0.8-0.4c0.5,0,1,0.4,1,1c0,0.2-0.1,0.4-0.2,0.5c-0.9,1.2-2.6,1.9-4.5,1.9C369.9,397.2,367.9,395.3,367.9,390.9z"
			/>
		<path class="st0" d="M381.9,396c0,0.6-0.5,1-1,1s-1-0.5-1-1v-10.3c0-0.6,0.5-1,1-1s1,0.5,1,1V396z"/>
		<path class="st0" d="M386.5,393.8l-1.1,2.6c-0.2,0.4-0.5,0.7-1,0.7c-0.6,0-1-0.5-1-1c0-0.1,0-0.3,0.1-0.4l4.2-10.4
			c0.1-0.3,0.4-0.6,1-0.6s0.8,0.4,1,0.6l4.2,10.4c0.1,0.1,0.1,0.3,0.1,0.4c0,0.6-0.5,1-1,1c-0.5,0-0.8-0.3-1-0.7l-1.1-2.6H386.5z
			 M388.6,388.1l-1.5,3.8h3L388.6,388.1z"/>
		<path class="st0" d="M401.7,395c0.6,0,1,0.4,1,1c0,0.6-0.4,1-1,1h-5.3c-0.6,0-1-0.4-1-1v-10.2c0-0.6,0.5-1,1-1s1,0.5,1,1v9.3
			H401.7z"/>
		<path class="st0" d="M412.4,386.4c-1.5,0-2.1,0.7-2.1,1.4c0,2.4,6.6,1.3,6.6,5.8c0,2.2-1.5,3.6-4.5,3.6c-2.1,0-3.9-1.1-4.6-2.2
			c-0.1-0.1-0.1-0.3-0.1-0.5c0-0.5,0.4-1,1-1c0.4,0,0.6,0.2,0.8,0.4c0.8,0.8,1.7,1.4,3,1.4c1.6,0,2.4-0.5,2.4-1.7
			c0-2.6-6.6-1.4-6.6-5.8c0-1.8,1.3-3.3,4.1-3.3c1.8,0,3.4,0.7,4.1,1.7c0.1,0.2,0.2,0.4,0.2,0.6c0,0.5-0.4,1-1,1
			c-0.3,0-0.5-0.1-0.8-0.4C414.3,386.9,413.4,386.4,412.4,386.4z"/>
		<path class="st0" d="M420.6,389.9h3.4c0.5,0,0.9,0.4,0.9,0.9c0,0.5-0.4,0.9-0.9,0.9h-3.4v3.3h4.8c0.5,0,0.9,0.4,0.9,0.9
			c0,0.5-0.4,0.9-0.9,0.9h-5.8c-0.6,0-1-0.5-1-1v-10c0-0.6,0.5-1,1-1h5.6c0.5,0,0.9,0.4,0.9,0.9c0,0.5-0.4,0.9-0.9,0.9h-4.6V389.9z"
			/>
		<path class="st0" d="M434.3,395c0.6,0,1,0.4,1,1c0,0.6-0.4,1-1,1H429c-0.6,0-1-0.4-1-1v-10.2c0-0.6,0.5-1,1-1s1,0.5,1,1v9.3H434.3
			z"/>
		<path class="st0" d="M438.9,389.9h3.4c0.5,0,0.9,0.4,0.9,0.9c0,0.5-0.4,0.9-0.9,0.9h-3.4v3.3h4.8c0.5,0,0.9,0.4,0.9,0.9
			c0,0.5-0.4,0.9-0.9,0.9h-5.8c-0.6,0-1-0.5-1-1v-10c0-0.6,0.5-1,1-1h5.6c0.5,0,0.9,0.4,0.9,0.9c0,0.5-0.4,0.9-0.9,0.9h-4.6V389.9z"
			/>
		<path class="st0" d="M445.7,390.9c0-4.3,2.1-6.3,5.6-6.3c2.2,0,3.6,0.9,4.3,1.9c0.1,0.2,0.2,0.4,0.2,0.6c0,0.5-0.4,1-1,1
			c-0.3,0-0.5-0.1-0.7-0.4c-0.7-0.8-1.5-1.3-2.8-1.3c-2.4,0-3.5,1.5-3.5,4.4c0,3.2,1.1,4.4,3.5,4.4c1.3,0,2.1-0.3,2.9-1.2
			c0.3-0.3,0.5-0.4,0.8-0.4c0.5,0,1,0.4,1,1c0,0.2-0.1,0.4-0.2,0.5c-0.9,1.2-2.6,1.9-4.5,1.9C447.8,397.2,445.7,395.3,445.7,390.9z"
			/>
		<path class="st0" d="M462.8,386.7v9.4c0,0.6-0.5,1-1,1s-1-0.5-1-1v-9.4h-2.8c-0.5,0-0.9-0.4-0.9-0.9c0-0.5,0.4-0.9,0.9-0.9h7.6
			c0.5,0,0.9,0.4,0.9,0.9c0,0.5-0.4,0.9-0.9,0.9H462.8z"/>
		<path class="st0" d="M470,396c0,0.6-0.5,1-1,1s-1-0.5-1-1v-10.3c0-0.6,0.5-1,1-1s1,0.5,1,1V396z"/>
		<path class="st0" d="M471.7,390.9c0-4.3,2.1-6.3,5.7-6.3c3.6,0,5.7,2.1,5.7,6.3c0,4.2-2.1,6.3-5.7,6.3
			C473.8,397.2,471.7,395.1,471.7,390.9z M473.9,390.9c0,3,1.2,4.4,3.5,4.4c2.4,0,3.5-1.5,3.5-4.4c0-3-1.2-4.4-3.5-4.4
			C475,386.4,473.9,387.9,473.9,390.9z"/>
		<path class="st0" d="M493.9,385.7v10.4c0,0.6-0.5,1-1,1c-0.3,0-0.7-0.2-0.8-0.5l-5.3-7.7v7.1c0,0.6-0.5,1-1,1s-1-0.5-1-1v-10.4
			c0-0.6,0.5-1,1-1c0.4,0,0.6,0.2,0.8,0.4l5.3,7.7v-7.1c0-0.6,0.5-1,1-1C493.5,384.7,493.9,385.1,493.9,385.7z"/>
		<path class="st0" d="M347.1,405.9c3.4,0,5.5,1.5,5.5,5.7c0,4.2-2.1,5.7-5.5,5.7h-2.3c-0.5,0-1-0.4-1-1v-9.5c0-0.5,0.4-1,1-1H347.1
			z M345.8,415.6h1.3c2.2,0,3.5-1,3.5-3.9c0-3-1.3-4-3.5-4h-1.3V415.6z"/>
		<path class="st0" d="M356.2,416.5c0,0.5-0.4,1-1,1s-1-0.4-1-1v-9.7c0-0.5,0.4-1,1-1s1,0.4,1,1V416.5z"/>
		<path class="st0" d="M360.2,416.5c0,0.5-0.4,1-1,1s-1-0.4-1-1v-9.6c0-0.5,0.4-1,1-1h5.3c0.5,0,0.9,0.4,0.9,0.9s-0.4,0.9-0.9,0.9
			h-4.3v3.1h3.2c0.5,0,0.9,0.4,0.9,0.9s-0.4,0.9-0.9,0.9h-3.2V416.5z"/>
		<path class="st0" d="M369.1,416.5c0,0.5-0.4,1-1,1s-1-0.4-1-1v-9.6c0-0.5,0.4-1,1-1h5.3c0.5,0,0.9,0.4,0.9,0.9s-0.4,0.9-0.9,0.9
			h-4.3v3.1h3.2c0.5,0,0.9,0.4,0.9,0.9s-0.4,0.9-0.9,0.9h-3.2V416.5z"/>
		<path class="st0" d="M378,410.7h3.2c0.5,0,0.9,0.4,0.9,0.9c0,0.5-0.4,0.9-0.9,0.9H378v3.1h4.5c0.5,0,0.9,0.4,0.9,0.9
			s-0.4,0.9-0.9,0.9H377c-0.5,0-1-0.4-1-1v-9.5c0-0.5,0.4-1,1-1h5.3c0.5,0,0.9,0.4,0.9,0.9s-0.4,0.9-0.9,0.9H378V410.7z"/>
		<path class="st0" d="M386.9,413v3.5c0,0.5-0.4,1-1,1s-1-0.4-1-1v-9.6c0-0.5,0.4-1,1-1h3.2c2.3,0,3.6,1.6,3.6,3.6
			c0,1.6-1,3.2-2.6,3.4l2.5,3.1c0.2,0.2,0.2,0.4,0.2,0.6c0,0.5-0.4,1-1,1c-0.3,0-0.6-0.1-0.8-0.4L388,413H386.9z M386.9,407.7v3.6
			h2.3c1.1,0,1.5-0.9,1.5-1.8c0-0.9-0.5-1.8-1.6-1.8H386.9z"/>
		<path class="st0" d="M396.4,410.7h3.2c0.5,0,0.9,0.4,0.9,0.9c0,0.5-0.4,0.9-0.9,0.9h-3.2v3.1h4.5c0.5,0,0.9,0.4,0.9,0.9
			s-0.4,0.9-0.9,0.9h-5.5c-0.5,0-1-0.4-1-1v-9.5c0-0.5,0.4-1,1-1h5.3c0.5,0,0.9,0.4,0.9,0.9s-0.4,0.9-0.9,0.9h-4.3V410.7z"/>
		<path class="st0" d="M411.9,406.7v9.8c0,0.5-0.4,1-1,1c-0.3,0-0.6-0.2-0.8-0.4l-5-7.2v6.7c0,0.5-0.4,1-1,1s-1-0.4-1-1v-9.8
			c0-0.5,0.4-1,1-1c0.3,0,0.6,0.2,0.8,0.4l5,7.3v-6.7c0-0.5,0.4-1,1-1S411.9,406.2,411.9,406.7z"/>
		<path class="st0" d="M418.7,407.6v8.9c0,0.5-0.4,1-1,1s-1-0.4-1-1v-8.9h-2.6c-0.5,0-0.9-0.4-0.9-0.9c0-0.5,0.4-0.9,0.9-0.9h7.2
			c0.5,0,0.9,0.4,0.9,0.9c0,0.5-0.4,0.9-0.9,0.9H418.7z"/>
		<path class="st0" d="M435.1,412.9h-2.3c-0.5,0-0.9-0.4-0.9-0.9c0-0.5,0.4-0.9,0.9-0.9h3.3c0.5,0,0.9,0.4,0.9,0.9v2.7
			c0,0.4-0.1,0.6-0.3,0.9c-0.8,1.1-2.6,1.9-4.4,1.9c-3.4,0-5.3-1.8-5.3-5.9c0-4,1.9-6,5.3-6c2.1,0,3.4,0.8,4.1,1.8
			c0.1,0.2,0.2,0.4,0.2,0.6c0,0.5-0.4,0.9-0.9,0.9c-0.2,0-0.5-0.1-0.7-0.3c-0.7-0.8-1.4-1.2-2.7-1.2c-2.3,0-3.3,1.4-3.3,4.2
			c0,3,1,4.2,3.3,4.2c1.3,0,2.1-0.3,2.8-1V412.9z"/>
		<path class="st0" d="M441,414.4l-1,2.5c-0.2,0.4-0.5,0.6-0.9,0.6c-0.5,0-1-0.4-1-1c0-0.1,0-0.2,0.1-0.4l4-9.8
			c0.1-0.2,0.4-0.6,0.9-0.6s0.8,0.4,0.9,0.6l4,9.8c0.1,0.1,0.1,0.3,0.1,0.4c0,0.5-0.4,1-1,1c-0.4,0-0.8-0.3-0.9-0.6l-1-2.5H441z
			 M443,409l-1.4,3.6h2.8L443,409z"/>
		<path class="st0" d="M453.9,415.1l-2.7-4.7v6.2c0,0.5-0.4,1-1,1c-0.5,0-1-0.4-1-1v-9.8c0-0.5,0.4-1,1-1c0.4,0,0.7,0.2,0.9,0.5
			l3.6,6.5l3.6-6.5c0.2-0.3,0.4-0.5,0.9-0.5c0.5,0,1,0.4,1,1v9.8c0,0.5-0.4,1-1,1c-0.5,0-1-0.4-1-1v-6.2l-2.7,4.7
			c-0.2,0.3-0.5,0.5-0.8,0.5S454.1,415.4,453.9,415.1z"/>
		<path class="st0" d="M464.2,410.7h3.2c0.5,0,0.9,0.4,0.9,0.9c0,0.5-0.4,0.9-0.9,0.9h-3.2v3.1h4.5c0.5,0,0.9,0.4,0.9,0.9
			s-0.4,0.9-0.9,0.9h-5.5c-0.5,0-1-0.4-1-1v-9.5c0-0.5,0.4-1,1-1h5.3c0.5,0,0.9,0.4,0.9,0.9s-0.4,0.9-0.9,0.9h-4.3V410.7z"/>
		<path class="st0" d="M475,407.4c-1.4,0-1.9,0.7-1.9,1.3c0,2.2,6.2,1.2,6.2,5.4c0,2.1-1.5,3.4-4.3,3.4c-2,0-3.6-1-4.3-2.1
			c-0.1-0.1-0.1-0.3-0.1-0.5c0-0.5,0.4-0.9,0.9-0.9c0.4,0,0.6,0.2,0.7,0.4c0.7,0.7,1.6,1.3,2.8,1.3c1.5,0,2.3-0.5,2.3-1.6
			c0-2.5-6.2-1.3-6.2-5.4c0-1.7,1.2-3.1,3.9-3.1c1.7,0,3.2,0.6,3.9,1.6c0.1,0.2,0.2,0.3,0.2,0.5c0,0.5-0.4,0.9-0.9,0.9
			c-0.2,0-0.5-0.1-0.7-0.4C476.9,407.8,476,407.4,475,407.4z"/>
		<path class="st0" d="M400.1,426.1c2.5,0,3.9,1.4,3.9,3.5c0,3.6-5.9,5-5.9,6.5h5.2c0.5,0,0.9,0.4,0.9,0.9c0,0.5-0.4,0.9-0.9,0.9
			h-6.5c-0.5,0-0.9-0.4-0.9-0.9c0-3.8,6.1-4.1,6.1-7.3c0-1-0.7-1.8-2-1.8c-1.1,0-1.6,0.6-1.9,1.2c-0.2,0.4-0.5,0.5-0.9,0.5
			c-0.5,0-0.9-0.4-0.9-0.9c0-0.1,0-0.2,0.1-0.4C397,427,398.2,426.1,400.1,426.1z"/>
		<path class="st0" d="M414.4,432c0,4.1-1.4,6-4.4,6c-3.1,0-4.5-1.9-4.5-6c0-4.1,1.4-5.9,4.5-5.9C413,426.1,414.4,428,414.4,432z
			 M412.4,432c0-3-0.7-4.2-2.5-4.2c-1.8,0-2.5,1.3-2.5,4.2c0,3,0.8,4.2,2.5,4.2C411.7,436.3,412.4,435,412.4,432z"/>
		<path class="st0" d="M417,429.5c-0.2,0.1-0.3,0.2-0.6,0.2c-0.5,0-0.9-0.4-0.9-0.9c0-0.3,0.2-0.6,0.4-0.8l2.4-1.6
			c0.2-0.1,0.3-0.2,0.6-0.2c0.5,0,1,0.4,1,1v9.8c0,0.5-0.4,1-1,1c-0.5,0-1-0.4-1-1v-8.1L417,429.5z"/>
		<path class="st0" d="M430.4,434c0,2.8-1.8,4-4.3,4c-3,0-4.3-2.4-4.3-5.7c0-4.4,1.7-6.2,4.6-6.2c1.4,0,2.5,0.5,3,1
			c0.2,0.2,0.3,0.4,0.3,0.6c0,0.5-0.4,0.9-0.9,0.9c-0.1,0-0.3,0-0.5-0.2c-0.5-0.3-1-0.6-1.8-0.6c-1.7,0-2.6,1.2-2.6,3.4
			c0.5-0.6,1.5-1,2.6-1C428.8,430.1,430.4,431.5,430.4,434z M428.5,434c0-1.5-1-2.2-2.2-2.2c-1.2,0-2,0.6-2.4,1.4c0,1.9,0.8,3,2.3,3
			C427.5,436.3,428.5,435.7,428.5,434z"/>
	</g>
</g>
<g>
	<g>
		<path class="st0" d="M578.1,386.1c0-4.3,2.1-6.3,5.7-6.3c3.6,0,5.7,2.1,5.7,6.3c0,4.2-2.1,6.3-5.7,6.3
			C580.2,392.4,578.1,390.3,578.1,386.1z M580.3,386.1c0,3,1.2,4.4,3.5,4.4c2.4,0,3.5-1.5,3.5-4.4c0-3-1.2-4.4-3.5-4.4
			C581.4,381.6,580.3,383.1,580.3,386.1z"/>
		<path class="st0" d="M593.3,391.2c0,0.6-0.5,1-1,1s-1-0.5-1-1v-10.2c0-0.6,0.5-1,1-1h5.6c0.5,0,0.9,0.4,0.9,0.9
			c0,0.5-0.4,0.9-0.9,0.9h-4.6v3.3h3.4c0.5,0,0.9,0.4,0.9,0.9c0,0.5-0.4,0.9-0.9,0.9h-3.4V391.2z"/>
		<path class="st0" d="M602.7,391.2c0,0.6-0.5,1-1,1s-1-0.5-1-1v-10.2c0-0.6,0.5-1,1-1h5.6c0.5,0,0.9,0.4,0.9,0.9
			c0,0.5-0.4,0.9-0.9,0.9h-4.6v3.3h3.4c0.5,0,0.9,0.4,0.9,0.9c0,0.5-0.4,0.9-0.9,0.9h-3.4V391.2z"/>
		<path class="st0" d="M612.1,391.2c0,0.6-0.5,1-1,1s-1-0.5-1-1v-10.3c0-0.6,0.5-1,1-1s1,0.5,1,1V391.2z"/>
		<path class="st0" d="M613.8,386.1c0-4.3,2.1-6.3,5.6-6.3c2.2,0,3.6,0.9,4.3,1.9c0.1,0.2,0.2,0.4,0.2,0.6c0,0.5-0.4,1-1,1
			c-0.3,0-0.5-0.1-0.7-0.4c-0.7-0.8-1.5-1.3-2.8-1.3c-2.4,0-3.5,1.5-3.5,4.4c0,3.2,1.1,4.4,3.5,4.4c1.3,0,2.1-0.3,2.9-1.2
			c0.3-0.3,0.5-0.4,0.8-0.4c0.5,0,1,0.4,1,1c0,0.2-0.1,0.4-0.2,0.5c-0.9,1.2-2.6,1.9-4.5,1.9C615.9,392.4,613.8,390.5,613.8,386.1z"
			/>
		<path class="st0" d="M627.9,391.2c0,0.6-0.5,1-1,1s-1-0.5-1-1v-10.3c0-0.6,0.5-1,1-1s1,0.5,1,1V391.2z"/>
		<path class="st0" d="M632.4,389l-1.1,2.6c-0.2,0.4-0.5,0.7-1,0.7c-0.6,0-1-0.5-1-1c0-0.1,0-0.3,0.1-0.4l4.2-10.4
			c0.1-0.3,0.4-0.6,1-0.6c0.6,0,0.8,0.4,1,0.6l4.2,10.4c0.1,0.1,0.1,0.3,0.1,0.4c0,0.6-0.5,1-1,1c-0.5,0-0.8-0.3-1-0.7l-1.1-2.6
			H632.4z M634.6,383.3l-1.5,3.8h3L634.6,383.3z"/>
		<path class="st0" d="M647.6,390.2c0.6,0,1,0.4,1,1c0,0.6-0.4,1-1,1h-5.3c-0.6,0-1-0.4-1-1v-10.2c0-0.6,0.5-1,1-1s1,0.5,1,1v9.3
			H647.6z"/>
		<path class="st0" d="M658.3,381.6c-1.5,0-2.1,0.7-2.1,1.4c0,2.4,6.6,1.3,6.6,5.8c0,2.2-1.5,3.6-4.5,3.6c-2.1,0-3.9-1.1-4.6-2.2
			c-0.1-0.1-0.1-0.3-0.1-0.5c0-0.5,0.4-1,1-1c0.4,0,0.6,0.2,0.8,0.4c0.8,0.8,1.7,1.4,3,1.4c1.6,0,2.4-0.5,2.4-1.7
			c0-2.6-6.6-1.4-6.6-5.8c0-1.8,1.3-3.3,4.1-3.3c1.8,0,3.4,0.7,4.1,1.7c0.1,0.2,0.2,0.4,0.2,0.6c0,0.5-0.4,1-1,1
			c-0.3,0-0.5-0.1-0.8-0.4C660.3,382.1,659.4,381.6,658.3,381.6z"/>
		<path class="st0" d="M666.6,385.1h3.4c0.5,0,0.9,0.4,0.9,0.9c0,0.5-0.4,0.9-0.9,0.9h-3.4v3.3h4.8c0.5,0,0.9,0.4,0.9,0.9
			c0,0.5-0.4,0.9-0.9,0.9h-5.8c-0.6,0-1-0.5-1-1v-10c0-0.6,0.5-1,1-1h5.6c0.5,0,0.9,0.4,0.9,0.9c0,0.5-0.4,0.9-0.9,0.9h-4.6V385.1z"
			/>
		<path class="st0" d="M680.3,390.2c0.6,0,1,0.4,1,1c0,0.6-0.4,1-1,1h-5.3c-0.6,0-1-0.4-1-1v-10.2c0-0.6,0.5-1,1-1s1,0.5,1,1v9.3
			H680.3z"/>
		<path class="st0" d="M684.8,385.1h3.4c0.5,0,0.9,0.4,0.9,0.9c0,0.5-0.4,0.9-0.9,0.9h-3.4v3.3h4.8c0.5,0,0.9,0.4,0.9,0.9
			c0,0.5-0.4,0.9-0.9,0.9h-5.8c-0.6,0-1-0.5-1-1v-10c0-0.6,0.5-1,1-1h5.6c0.5,0,0.9,0.4,0.9,0.9c0,0.5-0.4,0.9-0.9,0.9h-4.6V385.1z"
			/>
		<path class="st0" d="M691.7,386.1c0-4.3,2.1-6.3,5.6-6.3c2.2,0,3.6,0.9,4.3,1.9c0.1,0.2,0.2,0.4,0.2,0.6c0,0.5-0.4,1-1,1
			c-0.3,0-0.5-0.1-0.7-0.4c-0.7-0.8-1.5-1.3-2.8-1.3c-2.4,0-3.5,1.5-3.5,4.4c0,3.2,1.1,4.4,3.5,4.4c1.3,0,2.1-0.3,2.9-1.2
			c0.3-0.3,0.5-0.4,0.8-0.4c0.5,0,1,0.4,1,1c0,0.2-0.1,0.4-0.2,0.5c-0.9,1.2-2.6,1.9-4.5,1.9C693.7,392.4,691.7,390.5,691.7,386.1z"
			/>
		<path class="st0" d="M708.7,381.9v9.4c0,0.6-0.5,1-1,1s-1-0.5-1-1v-9.4h-2.8c-0.5,0-0.9-0.4-0.9-0.9c0-0.5,0.4-0.9,0.9-0.9h7.6
			c0.5,0,0.9,0.4,0.9,0.9c0,0.5-0.4,0.9-0.9,0.9H708.7z"/>
		<path class="st0" d="M716,391.2c0,0.6-0.5,1-1,1s-1-0.5-1-1v-10.3c0-0.6,0.5-1,1-1s1,0.5,1,1V391.2z"/>
		<path class="st0" d="M717.7,386.1c0-4.3,2.1-6.3,5.7-6.3c3.6,0,5.7,2.1,5.7,6.3c0,4.2-2.1,6.3-5.7,6.3
			C719.7,392.4,717.7,390.3,717.7,386.1z M719.8,386.1c0,3,1.2,4.4,3.5,4.4c2.4,0,3.5-1.5,3.5-4.4c0-3-1.2-4.4-3.5-4.4
			C721,381.6,719.8,383.1,719.8,386.1z"/>
		<path class="st0" d="M739.9,380.9v10.4c0,0.6-0.5,1-1,1c-0.3,0-0.7-0.2-0.8-0.5l-5.3-7.7v7.1c0,0.6-0.5,1-1,1s-1-0.5-1-1v-10.4
			c0-0.6,0.5-1,1-1c0.4,0,0.6,0.2,0.8,0.4l5.3,7.7v-7.1c0-0.6,0.5-1,1-1C739.4,379.9,739.9,380.3,739.9,380.9z"/>
		<path class="st0" d="M641.8,412.4h4.7c0.7,0,1.3,0.6,1.3,1.3s-0.6,1.3-1.3,1.3h-4.7v4.6h6.6c0.7,0,1.3,0.6,1.3,1.3
			s-0.6,1.3-1.3,1.3h-8.1c-0.8,0-1.4-0.6-1.4-1.4v-13.9c0-0.8,0.6-1.4,1.4-1.4h7.8c0.7,0,1.3,0.6,1.3,1.3c0,0.7-0.6,1.3-1.3,1.3
			h-6.3V412.4z"/>
		<path class="st0" d="M663.3,415.7h-3.4c-0.7,0-1.3-0.6-1.3-1.3c0-0.7,0.6-1.3,1.3-1.3h4.8c0.7,0,1.4,0.6,1.4,1.3v4
			c0,0.6-0.1,1-0.4,1.3c-1.2,1.6-3.8,2.7-6.5,2.7c-5,0-7.8-2.6-7.8-8.7c0-5.9,2.8-8.8,7.8-8.8c3,0,5,1.2,6,2.7
			c0.2,0.3,0.3,0.6,0.3,0.8c0,0.7-0.6,1.3-1.3,1.3c-0.3,0-0.7-0.2-1-0.5c-1-1.1-2.1-1.8-3.9-1.8c-3.3,0-4.8,2-4.8,6.2
			c0,4.4,1.5,6.1,4.8,6.1c1.8,0,3.1-0.4,4.1-1.4V415.7z"/>
		<path class="st0" d="M674.2,416l-3.8,5.7c-0.3,0.4-0.7,0.7-1.2,0.7c-0.8,0-1.5-0.7-1.5-1.4c0-0.3,0.1-0.6,0.2-0.8l4.7-6.5
			l-4.3-6.1c-0.2-0.2-0.3-0.5-0.3-0.9c0-0.8,0.7-1.4,1.5-1.4c0.5,0,0.9,0.2,1.2,0.6l3.6,5.3l3.6-5.3c0.3-0.4,0.7-0.6,1.2-0.6
			c0.8,0,1.5,0.6,1.5,1.4c0,0.3-0.1,0.6-0.3,0.9l-4.3,6.1l4.7,6.5c0.2,0.2,0.2,0.5,0.2,0.8c0,0.8-0.6,1.4-1.4,1.4
			c-0.5,0-0.9-0.2-1.2-0.7L674.2,416z"/>
		<path class="st0" d="M646.1,430.9c2.5,0,3.9,1.4,3.9,3.5c0,3.6-5.9,5-5.9,6.5h5.2c0.5,0,0.9,0.4,0.9,0.9c0,0.5-0.4,0.9-0.9,0.9
			h-6.5c-0.5,0-0.9-0.4-0.9-0.9c0-3.8,6.1-4.1,6.1-7.3c0-1-0.7-1.8-2-1.8c-1.1,0-1.6,0.6-1.9,1.2c-0.2,0.4-0.5,0.5-0.8,0.5
			c-0.5,0-0.9-0.4-0.9-0.9c0-0.1,0-0.2,0.1-0.4C643,431.8,644.2,430.9,646.1,430.9z"/>
		<path class="st0" d="M660.3,436.8c0,4.1-1.4,6-4.4,6c-3.1,0-4.5-1.9-4.5-6c0-4.1,1.4-5.9,4.5-5.9
			C658.9,430.9,660.3,432.8,660.3,436.8z M658.4,436.8c0-3-0.7-4.2-2.5-4.2s-2.5,1.3-2.5,4.2c0,3,0.8,4.2,2.5,4.2
			S658.4,439.8,658.4,436.8z"/>
		<path class="st0" d="M663,434.3c-0.2,0.1-0.3,0.2-0.6,0.2c-0.5,0-0.9-0.4-0.9-0.9c0-0.3,0.2-0.6,0.4-0.8l2.4-1.6
			c0.2-0.1,0.3-0.2,0.6-0.2c0.5,0,1,0.4,1,1v9.8c0,0.5-0.4,1-1,1s-1-0.4-1-1v-8.1L663,434.3z"/>
		<path class="st0" d="M676.4,438.8c0,2.8-1.8,4-4.3,4c-3,0-4.3-2.4-4.3-5.7c0-4.4,1.7-6.2,4.6-6.2c1.4,0,2.5,0.5,3,1
			c0.2,0.2,0.3,0.4,0.3,0.6c0,0.5-0.4,0.9-0.9,0.9c-0.1,0-0.3,0-0.5-0.2c-0.5-0.3-1-0.6-1.8-0.6c-1.7,0-2.6,1.2-2.6,3.4
			c0.5-0.6,1.5-1,2.6-1C674.7,434.9,676.4,436.3,676.4,438.8z M674.5,438.8c0-1.5-1-2.2-2.2-2.2c-1.2,0-2,0.6-2.4,1.4
			c0,1.9,0.8,3,2.3,3C673.5,441.1,674.5,440.5,674.5,438.8z"/>
	</g>
</g>
</svg>
